<svg width="620" height="198" viewBox="0 0 620 198" fill="none" xmlns="http://www.w3.org/2000/svg">
<path d="M187.754 66.689L59.1715 140.926C68.7197 151.495 79.9442 157.507 92.845 158.961C105.961 160.291 119.304 157.038 132.873 149.204C151.18 138.635 161.217 123.937 162.984 105.112L201.437 105.311C199.268 137.865 182.461 163.22 151.016 181.375C124.955 196.421 99.1388 200.701 73.5679 194.213C51.1589 188.209 33.1194 175.35 19.4538 155.635C17.5811 152.933 15.7928 150.101 14.0844 147.142C0.281541 123.235 -3.37611 98.4958 3.11145 72.925C9.38363 47.4785 25.1195 27.4808 50.319 12.9319C73.7955 -0.622301 97.9672 -3.52165 122.834 4.23379C147.701 11.9892 166.974 27.7129 180.652 51.4048C183.139 55.7124 185.507 60.8071 187.754 66.689ZM42.4343 112.682L137.417 57.8439C127.711 46.5043 116.669 39.8133 104.29 37.7708C92.1261 35.6039 80.1213 37.9401 68.2754 44.7793C55.3526 52.2403 46.6353 62.0116 42.1236 74.0932C37.612 86.1747 37.7155 99.0378 42.4343 112.682Z" fill="#4713A3"/>
<path d="M278.028 104.114H221.778V85.5141H278.028V104.114Z" fill="#4713A3"/>
<path d="M366.699 111.314L379.449 65.1141H399.999L376.149 140.114H357.699L343.899 94.6641L330.099 140.114H311.649L287.799 65.1141H308.349L321.099 111.164L334.749 65.1141H353.049L366.699 111.314Z" fill="#4713A3"/>
<path d="M471.399 130.814C463.799 138.414 454.399 142.214 443.199 142.214C431.999 142.214 422.599 138.414 414.999 130.814C407.399 123.214 403.599 113.814 403.599 102.614C403.599 91.5141 407.399 82.1641 414.999 74.5641C422.699 66.8641 432.099 63.0141 443.199 63.0141C454.299 63.0141 463.699 66.8641 471.399 74.5641C479.099 82.2641 482.949 91.6141 482.949 102.614C482.949 113.714 479.099 123.114 471.399 130.814ZM428.649 117.464C432.549 121.364 437.399 123.314 443.199 123.314C448.999 123.314 453.849 121.364 457.749 117.464C461.649 113.564 463.599 108.614 463.599 102.614C463.599 96.6141 461.649 91.6641 457.749 87.7641C453.849 83.8641 448.999 81.9141 443.199 81.9141C437.399 81.9141 432.549 83.8641 428.649 87.7641C424.849 91.7641 422.949 96.7141 422.949 102.614C422.949 108.514 424.849 113.464 428.649 117.464Z" fill="#4713A3"/>
<path d="M515.912 65.1141V78.0141C517.612 73.3141 520.512 69.7641 524.612 67.3641C528.712 64.8641 533.412 63.6141 538.712 63.6141V85.2141C532.812 84.4141 527.512 85.6141 522.812 88.8141C518.212 91.9141 515.912 97.0641 515.912 104.264V140.114H496.562V65.1141H515.912Z" fill="#4713A3"/>
<path d="M588.129 102.164L619.179 140.114H596.679L569.379 106.064V140.114H550.029V35.1141H569.379V98.1141L595.179 65.1141H618.279L588.129 102.164Z" fill="#4713A3"/>
</svg>
