<svg width="1440" height="758" viewBox="0 0 1440 758" fill="none" xmlns="http://www.w3.org/2000/svg">
<path d="M0 0L1440 0V670.929H298.821C259.254 670.929 223.313 694.039 206.805 730.095L194.258 757.5L185.912 743.263C172.143 719.774 148.149 704.155 121.148 701.105L66.9294 694.979C40.5331 691.997 17.3285 676.086 4.98093 652.503C1.70929 646.254 0 639.303 0 632.245V0Z" fill="#4030A4"/>
<mask id="mask0_1607_6974" style="mask-type:alpha" maskUnits="userSpaceOnUse" x="0" y="0" width="1440" height="758">
<path d="M0 0L1440 0V670.929H298.821C259.254 670.929 223.313 694.039 206.805 730.095L194.258 757.5L185.912 743.263C172.143 719.774 148.149 704.155 121.148 701.105L66.9294 694.979C40.5331 691.997 17.3285 676.086 4.98093 652.503C1.70929 646.254 0 639.303 0 632.245V0Z" fill="#4030A4"/>
</mask>
<g mask="url(#mask0_1607_6974)">
<path d="M987.244 552.714C987.239 551.68 986.927 550.671 986.348 549.814C985.77 548.957 984.95 548.291 983.993 547.899C983.037 547.507 981.985 547.407 980.972 547.613C979.958 547.818 979.028 548.319 978.299 549.052C977.57 549.785 977.074 550.718 976.874 551.732C976.675 552.747 976.78 553.798 977.177 554.752C977.574 555.707 978.245 556.523 979.105 557.097C979.965 557.671 980.976 557.977 982.01 557.977C982.699 557.975 983.381 557.838 984.017 557.572C984.653 557.307 985.231 556.919 985.717 556.43C986.203 555.941 986.588 555.361 986.85 554.724C987.112 554.086 987.246 553.404 987.244 552.714Z" fill="#5A4ABF"/>
<path d="M923.608 646.149C912.322 646.183 901.211 643.35 891.319 637.917C881.427 632.483 873.076 624.627 867.05 615.084C861.024 605.541 857.52 594.623 856.867 583.356C856.213 572.089 858.432 560.84 863.314 550.664C868.197 540.488 875.583 531.719 884.781 525.179C893.979 518.638 904.688 514.54 915.902 513.27C927.117 511.999 938.471 513.597 948.899 517.914C959.327 522.231 968.489 529.125 975.524 537.95C975.703 538.175 975.836 538.434 975.916 538.71C975.996 538.987 976.02 539.276 975.987 539.562C975.955 539.848 975.867 540.125 975.727 540.377C975.588 540.628 975.401 540.85 975.175 541.03C974.95 541.209 974.692 541.342 974.416 541.422C974.139 541.501 973.85 541.526 973.564 541.493C973.278 541.461 973.001 541.372 972.749 541.233C972.497 541.094 972.275 540.906 972.096 540.681C963.654 530.061 951.975 522.487 938.835 519.112C925.695 515.736 911.812 516.743 899.296 521.98C886.781 527.217 876.318 536.397 869.497 548.125C862.676 559.852 859.871 573.486 861.509 586.954C863.146 600.422 869.136 612.987 878.567 622.739C887.999 632.491 900.357 638.896 913.763 640.982C927.168 643.068 940.888 640.72 952.837 634.294C964.786 627.869 974.31 617.718 979.962 605.384C980.081 605.122 980.251 604.885 980.462 604.689C980.673 604.492 980.921 604.338 981.191 604.237C981.461 604.136 981.748 604.09 982.036 604.1C982.325 604.11 982.608 604.176 982.87 604.296C983.133 604.415 983.369 604.585 983.566 604.796C983.763 605.007 983.916 605.255 984.017 605.525C984.118 605.795 984.165 606.082 984.155 606.371C984.145 606.659 984.078 606.942 983.958 607.205C978.672 618.793 970.172 628.621 959.467 635.524C948.762 642.427 936.302 646.114 923.565 646.149" fill="#5A4ABF"/>
<path d="M882.659 650.899C879.574 650.89 876.504 651.321 873.542 652.179C868.805 653.602 863.827 657.044 864.055 661.482C864.239 662.876 864.783 664.198 865.633 665.318C866.484 666.438 867.611 667.317 868.905 667.868C871.9 669.111 875.142 669.647 878.378 669.433C881.14 669.482 883.893 669.108 886.542 668.323C890.929 666.618 894.673 663.584 897.252 659.647C898.182 658.319 899.023 656.932 899.77 655.494C894.584 652.486 888.696 650.902 882.702 650.899H882.659ZM917.933 680.271C917.42 680.272 916.922 680.091 916.529 679.76C916.136 679.43 915.873 678.971 915.786 678.464C914.265 670.383 909.888 663.118 903.454 657.997C902.693 659.445 901.837 660.842 900.893 662.179C897.79 666.928 893.25 670.561 887.936 672.548C884.859 673.491 881.653 673.947 878.435 673.899C874.508 674.126 870.583 673.434 866.97 671.879C864.975 670.984 863.25 669.58 861.969 667.807C860.688 666.035 859.897 663.956 859.674 661.78C859.318 654.91 865.761 649.918 872.318 648.026C877.181 646.658 882.266 646.263 887.282 646.864C892.297 647.464 897.145 649.048 901.548 651.525C906.185 639.136 904.393 624.742 901.747 613.947C900.325 608.257 898.49 602.44 896.726 596.878C893.554 586.922 890.283 576.667 889.145 566.028C886.784 544.009 890.126 532.417 903.454 516.43C903.831 515.983 904.37 515.704 904.953 515.655C905.536 515.605 906.115 515.79 906.562 516.167C907.009 516.544 907.287 517.084 907.337 517.666C907.386 518.249 907.202 518.828 906.825 519.275C894.265 534.338 891.278 544.735 893.511 565.587C894.607 575.785 897.779 585.841 900.908 595.57C902.7 601.259 904.563 607.062 906.014 612.937C908.859 624.643 910.765 640.388 905.303 654.028C913.013 659.835 918.278 668.311 920.067 677.796C920.118 678.08 920.113 678.371 920.051 678.653C919.989 678.935 919.872 679.202 919.707 679.439C919.542 679.675 919.331 679.877 919.088 680.032C918.845 680.187 918.573 680.292 918.289 680.342C918.157 680.357 918.023 680.357 917.891 680.342" fill="#5A4ABF"/>
<path d="M1168.58 701.222C1166.1 701.916 1163.48 701.916 1161 701.222C1153.89 699.359 1152.79 692.688 1153.26 689.317C1153.28 689.181 1153.31 689.048 1153.36 688.919L1180.39 609.993C1180.46 609.783 1180.56 609.586 1180.7 609.409L1200.68 582.086C1200.95 581.723 1201.32 581.451 1201.74 581.305C1202.17 581.16 1202.63 581.149 1203.06 581.273C1203.49 581.397 1203.87 581.651 1204.15 582C1204.44 582.349 1204.61 582.776 1204.64 583.224L1207.11 617.474C1207.13 617.806 1207.08 618.138 1206.95 618.446C1206.83 618.753 1206.63 619.029 1206.39 619.252C1206.14 619.477 1205.85 619.643 1205.52 619.737C1205.2 619.83 1204.87 619.849 1204.54 619.793L1190.71 617.36C1190.21 617.194 1189.79 616.854 1189.52 616.403C1189.26 615.952 1189.16 615.419 1189.25 614.902C1189.34 614.385 1189.62 613.918 1190.02 613.586C1190.43 613.254 1190.94 613.079 1191.47 613.093L1202.53 615.028L1200.7 589.568L1184.44 611.785L1157.56 690.171C1157.33 691.668 1157.67 693.196 1158.5 694.461C1159.33 695.727 1160.6 696.64 1162.07 697.026C1167.67 698.449 1169.99 695.704 1170.5 694.95L1190.98 635.396C1191.17 634.845 1191.57 634.392 1192.09 634.136C1192.62 633.88 1193.22 633.842 1193.77 634.03C1194.32 634.219 1194.77 634.619 1195.03 635.142C1195.29 635.664 1195.32 636.267 1195.14 636.818L1174.57 696.557C1174.52 696.673 1174.47 696.787 1174.41 696.898C1173.07 699.034 1170.98 700.595 1168.55 701.279" fill="#5A4ABF"/>
<path d="M1285.27 688.904C1284.81 688.901 1284.37 688.757 1283.99 688.492C1283.52 688.15 1283.2 687.634 1283.11 687.059C1283.01 686.483 1283.15 685.893 1283.49 685.42C1310.12 648.623 1320.39 611.585 1312.41 581.118C1307.32 561.632 1295.06 546.143 1278.78 538.647C1261.25 530.568 1239.87 527.567 1216.97 529.985C1201.07 531.663 1189.23 534.522 1175.52 537.822C1170.93 538.931 1166.12 540.098 1160.87 541.278C1141.4 545.688 1117.22 535.475 1104.63 517.554C1096.1 505.321 1085.46 478.851 1110.98 438.912C1111.29 438.421 1111.78 438.075 1112.35 437.95C1112.92 437.824 1113.51 437.93 1114.01 438.243C1114.5 438.556 1114.84 439.051 1114.97 439.619C1115.09 440.188 1114.99 440.782 1114.67 441.273C1096.78 469.279 1094.49 495.464 1108.23 515.022C1121.47 533.896 1144.74 540.425 1159.9 536.997C1165.12 535.817 1169.86 534.664 1174.48 533.555C1188.35 530.212 1200.33 527.325 1216.5 525.618C1240.2 523.115 1262.37 526.244 1280.62 534.664C1298.09 542.715 1311.23 559.243 1316.66 580.009C1324.98 611.77 1314.47 650.117 1287.05 687.994C1286.85 688.277 1286.58 688.507 1286.27 688.665C1285.96 688.824 1285.62 688.906 1285.27 688.904Z" fill="#5A4ABF"/>
<path d="M1066.73 565.715C1066.73 568.339 1065.95 570.905 1064.49 573.088C1063.03 575.27 1060.96 576.971 1058.53 577.975C1056.11 578.98 1053.44 579.242 1050.87 578.73C1048.29 578.218 1045.93 576.954 1044.07 575.098C1042.22 573.243 1040.95 570.878 1040.44 568.304C1039.93 565.729 1040.19 563.061 1041.19 560.636C1042.2 558.211 1043.9 556.139 1046.08 554.681C1048.26 553.223 1050.83 552.444 1053.46 552.444C1056.97 552.444 1060.35 553.842 1062.84 556.331C1065.33 558.82 1066.73 562.195 1066.73 565.715ZM1024.06 565.715C1024.05 571.52 1025.77 577.195 1028.99 582.022C1032.22 586.85 1036.8 590.613 1042.16 592.836C1047.52 595.058 1053.43 595.641 1059.12 594.509C1064.81 593.377 1070.04 590.582 1074.15 586.478C1078.25 582.373 1081.05 577.143 1082.18 571.45C1083.31 565.757 1082.73 559.856 1080.51 554.493C1078.28 549.131 1074.52 544.548 1069.69 541.325C1064.86 538.102 1059.19 536.383 1053.38 536.386C1045.61 536.393 1038.15 539.486 1032.65 544.984C1027.16 550.483 1024.06 557.939 1024.06 565.715Z" fill="#5A4ABF"/>
<path d="M147.559 446.977C147.788 447.285 147.911 447.659 147.911 448.043C147.911 448.428 147.788 448.801 147.559 449.11C142.524 455.838 137.773 468.525 136.436 472.252C136.35 472.492 136.215 472.711 136.038 472.895C135.862 473.079 135.648 473.223 135.412 473.319C135.187 473.413 134.945 473.461 134.701 473.461C134.457 473.461 134.215 473.413 133.99 473.319C126.398 469.464 119.798 463.91 114.703 457.09C114.531 456.906 114.4 456.689 114.318 456.451C114.236 456.214 114.204 455.962 114.226 455.711C114.247 455.461 114.321 455.218 114.443 454.998C114.565 454.778 114.731 454.586 114.932 454.435C115.132 454.284 115.362 454.176 115.607 454.119C115.852 454.063 116.106 454.058 116.352 454.106C116.599 454.154 116.833 454.253 117.039 454.397C117.245 454.541 117.418 454.727 117.547 454.942C121.911 460.769 127.45 465.614 133.805 469.165C135.753 463.931 140.063 453.221 144.714 447.019C144.856 446.83 145.033 446.671 145.237 446.55C145.44 446.43 145.665 446.351 145.899 446.318C146.133 446.285 146.371 446.298 146.6 446.358C146.829 446.417 147.044 446.521 147.232 446.664C147.377 446.773 147.506 446.903 147.616 447.048" fill="#5A4ABF"/>
<path d="M179.178 633.106C164.954 633.106 142.111 618.256 111.004 588.885C110.608 588.502 110.368 587.986 110.332 587.437C110.295 586.887 110.464 586.344 110.805 585.912L129.523 562.699C129.878 562.262 130.387 561.977 130.946 561.903C131.236 561.87 131.529 561.898 131.808 561.984C132.087 562.069 132.345 562.211 132.567 562.401L170.217 594.204L177.087 575.23C177.311 574.731 177.713 574.334 178.215 574.117C178.717 573.9 179.282 573.878 179.799 574.056C180.316 574.235 180.748 574.6 181.009 575.08C181.271 575.561 181.343 576.122 181.212 576.653L173.261 598.585C173.156 598.919 172.971 599.223 172.724 599.471C172.476 599.718 172.172 599.902 171.838 600.008C171.498 600.097 171.14 600.104 170.796 600.028C170.452 599.951 170.132 599.793 169.861 599.567L131.529 567.18L115.499 587.093C155.993 625.069 174.242 630.517 182.35 628.341C187.356 626.99 188.693 622.523 189.348 620.376C189.461 619.923 189.623 619.484 189.831 619.067C191.68 615.796 203.713 579.497 215.135 541.791C230.624 490.586 235.659 467.828 235.318 463.319C234.177 463.063 232.991 463.088 231.862 463.39C230.732 463.692 229.693 464.263 228.832 465.055C212.888 477.616 197.655 491.055 183.203 505.307C173.46 514.766 163.375 524.552 143.903 540.994C120.307 560.907 109.354 550.083 68.5187 509.702C63.7538 504.98 58.5622 499.845 52.8728 494.284C52.4579 493.877 52.2217 493.321 52.2164 492.74C52.2111 492.158 52.437 491.598 52.8444 491.183C53.2518 490.768 53.8073 490.532 54.3888 490.527C54.9703 490.522 55.5301 490.747 55.9451 491.155C61.6345 496.716 66.8261 501.865 71.591 506.587C113.75 548.092 121.203 554.492 141.172 537.637C160.516 521.28 170.544 511.551 180.245 502.079C194.8 487.735 210.138 474.207 226.187 461.556C229.927 458.555 234.209 457.815 237.964 459.522C238.342 459.697 238.677 459.954 238.945 460.274C239.212 460.593 239.407 460.968 239.514 461.371C241.107 466.25 234.365 493.658 219.487 542.815C208.507 579.113 195.99 617.19 193.757 621.158C193.732 621.299 193.694 621.437 193.643 621.57C192.918 624.031 190.955 630.531 183.573 632.508C182.152 632.876 180.688 633.058 179.22 633.049" fill="#5A4ABF"/>
<path d="M198.195 558.076C197.993 558.076 197.792 558.047 197.597 557.991L184.014 554.222C183.448 554.065 182.968 553.69 182.678 553.18C182.389 552.669 182.314 552.064 182.471 551.498C182.627 550.932 183.002 550.452 183.513 550.162C184.024 549.873 184.629 549.798 185.195 549.955L198.778 553.738C199.263 553.899 199.677 554.225 199.948 554.659C200.218 555.093 200.328 555.607 200.259 556.114C200.19 556.621 199.946 557.087 199.569 557.433C199.192 557.778 198.706 557.981 198.195 558.005" fill="#5A4ABF"/>
<path d="M204.111 539.202C203.909 539.201 203.708 539.173 203.514 539.117L190.556 535.504C190.276 535.427 190.014 535.296 189.784 535.118C189.555 534.94 189.363 534.719 189.219 534.467C189.075 534.214 188.982 533.936 188.945 533.648C188.909 533.36 188.929 533.067 189.006 532.787C189.083 532.507 189.214 532.245 189.392 532.015C189.57 531.785 189.791 531.593 190.043 531.449C190.296 531.305 190.574 531.212 190.862 531.176C191.15 531.139 191.443 531.16 191.723 531.237L204.723 534.849C205.208 535.01 205.622 535.336 205.893 535.77C206.163 536.204 206.273 536.719 206.204 537.225C206.135 537.732 205.891 538.198 205.514 538.544C205.137 538.889 204.651 539.092 204.14 539.117" fill="#5A4ABF"/>
<path d="M702.882 529.558C702.885 531.215 702.396 532.837 701.477 534.216C700.559 535.596 699.251 536.672 697.721 537.308C696.19 537.944 694.505 538.112 692.879 537.791C691.253 537.469 689.759 536.672 688.586 535.501C687.413 534.33 686.614 532.837 686.289 531.212C685.965 529.586 686.13 527.901 686.764 526.37C687.397 524.838 688.471 523.529 689.849 522.607C691.227 521.686 692.847 521.195 694.505 521.195C696.724 521.195 698.853 522.075 700.424 523.643C701.994 525.211 702.879 527.338 702.882 529.558ZM676 529.558C676 533.215 677.084 536.79 679.116 539.831C681.148 542.871 684.036 545.241 687.415 546.641C690.793 548.04 694.511 548.407 698.098 547.693C701.685 546.98 704.979 545.219 707.565 542.633C710.151 540.047 711.912 536.752 712.626 533.165C713.339 529.578 712.973 525.861 711.574 522.482C710.174 519.103 707.804 516.215 704.763 514.184C701.723 512.152 698.148 511.067 694.491 511.067C689.587 511.067 684.883 513.015 681.416 516.483C677.948 519.951 676 524.654 676 529.558Z" fill="#5A4ABF"/>
<path d="M278.5 644.257C275.512 644.277 272.528 644.035 269.582 643.531C267.708 643.315 265.926 642.603 264.419 641.469C260.55 638.226 261.005 632.281 262.997 628.113C271.673 610.575 289.467 582.228 292.496 577.42C291.956 574.035 289.652 560.352 284.972 542.658C284.823 542.092 284.905 541.49 285.2 540.985C285.494 540.479 285.978 540.112 286.544 539.963C287.11 539.814 287.711 539.896 288.217 540.19C288.722 540.485 289.09 540.969 289.239 541.534C294.63 562.073 296.962 577.406 296.991 577.563C297.062 578.088 296.946 578.622 296.664 579.07C296.465 579.383 276.296 611.144 266.951 630.062C265.628 632.75 265.258 636.476 267.193 638.098C268.122 638.712 269.186 639.092 270.293 639.207C278.401 640.63 287.02 639.478 294.473 638.297C316.906 634.832 339.122 630.083 361.011 624.073C364.738 623.007 368.663 621.528 369.702 618.626C368.478 614.814 350.329 600.334 338.268 590.705C331.056 585.016 324.243 579.511 319.606 575.415C319.259 575.107 319.016 574.7 318.909 574.249L314.642 555.758C314.567 555.474 314.55 555.178 314.591 554.887C314.633 554.596 314.732 554.317 314.884 554.065C315.036 553.814 315.237 553.595 315.474 553.423C315.712 553.251 315.982 553.128 316.269 553.062C316.555 552.996 316.851 552.989 317.141 553.04C317.43 553.091 317.706 553.2 317.952 553.36C318.199 553.52 318.41 553.727 318.575 553.971C318.739 554.214 318.853 554.488 318.909 554.776L323.02 572.627C327.571 576.61 334.1 581.815 340.984 587.306C367.212 608.243 375.121 615.426 373.983 619.636C372.56 624.756 367.198 626.904 362.192 628.341C340.154 634.402 317.786 639.189 295.199 642.678C289.684 643.658 284.1 644.2 278.5 644.299" fill="#5A4ABF"/>
<path d="M320.545 522.532C320.273 522.532 320.001 522.561 319.734 522.617L278.173 530.639C277.614 530.746 277.082 530.963 276.608 531.278C276.134 531.593 275.728 532 275.414 532.474C274.772 533.425 274.532 534.59 274.745 535.717L275.143 537.751C275.367 538.876 276.026 539.868 276.977 540.51C277.928 541.152 279.094 541.392 280.221 541.179L321.768 533.157C322.331 533.057 322.867 532.845 323.346 532.533C323.825 532.222 324.237 531.817 324.557 531.344C324.876 530.87 325.098 530.337 325.208 529.776C325.317 529.215 325.314 528.638 325.196 528.079L324.798 526.045C324.693 525.487 324.478 524.956 324.166 524.482C323.853 524.008 323.449 523.602 322.977 523.286C322.26 522.797 321.413 522.534 320.545 522.532ZM279.396 545.674C277.37 545.663 275.41 544.947 273.853 543.65C272.296 542.352 271.239 540.553 270.862 538.562L270.464 536.514C270.034 534.244 270.519 531.896 271.815 529.982C273.11 528.069 275.109 526.746 277.377 526.301L318.924 518.265C320.054 518.061 321.214 518.081 322.336 518.325C323.459 518.569 324.523 519.032 325.466 519.687C326.42 520.321 327.236 521.14 327.866 522.095C328.497 523.05 328.929 524.123 329.136 525.249L329.534 527.297C329.968 529.567 329.484 531.917 328.189 533.832C326.893 535.746 324.891 537.069 322.622 537.509L281.075 545.546C280.53 545.646 279.978 545.699 279.425 545.702" fill="#5A4ABF"/>
<path d="M763.509 610.419C767.338 610.609 771.145 611.123 774.887 611.955C782.643 613.39 789.606 617.615 794.459 623.832C799.15 630.665 800.974 639.067 799.537 647.23C798.456 654.27 795.469 661.368 790.391 668.949C790.217 669.209 789.994 669.432 789.734 669.605C789.475 669.778 789.183 669.899 788.877 669.96C788.57 670.02 788.255 670.02 787.949 669.959C787.642 669.898 787.351 669.777 787.091 669.603C786.832 669.43 786.609 669.207 786.435 668.947C786.262 668.687 786.141 668.395 786.081 668.089C786.02 667.783 786.02 667.467 786.081 667.161C786.142 666.854 786.263 666.563 786.437 666.303C791.117 659.32 793.862 652.848 794.829 646.519C796.075 639.578 794.542 632.426 790.562 626.606C786.398 621.333 780.448 617.766 773.835 616.578C761.219 613.904 751.177 614.06 743.212 623.533C738.233 629.45 737.224 638.44 737.935 644.869C738.646 651.298 741.576 656.575 745.815 659.391C750.466 662.492 756.966 662.079 760.294 658.481C760.593 658.153 760.877 657.798 761.162 657.442C762.215 655.795 763.775 654.536 765.608 653.856C767.441 653.176 769.445 653.112 771.317 653.673C772.057 653.784 772.803 653.85 773.55 653.872C777.462 653.872 784.133 652.848 784.929 645.452C784.962 645.141 785.056 644.839 785.205 644.565C785.354 644.29 785.556 644.047 785.799 643.85C786.042 643.653 786.321 643.506 786.621 643.418C786.921 643.329 787.235 643.3 787.546 643.333C787.857 643.365 788.159 643.459 788.434 643.608C788.709 643.757 788.951 643.959 789.148 644.202C789.345 644.445 789.492 644.725 789.581 645.024C789.669 645.324 789.698 645.639 789.666 645.95C788.798 653.972 782.767 658.751 773.522 658.637C772.57 658.611 771.62 658.53 770.677 658.395C769.622 657.938 768.433 657.896 767.347 658.275C766.262 658.655 765.358 659.429 764.817 660.443C764.462 660.884 764.12 661.311 763.75 661.709C758.815 667.043 749.769 667.768 743.126 663.359C737.65 659.732 734.023 653.175 733.17 645.395C732.103 635.78 734.478 626.449 739.528 620.447C746.483 612.197 755.003 610.064 763.48 610.362" fill="#5A4ABF"/>
<path d="M1352.59 589.652C1352.31 585.829 1352.35 581.988 1352.71 578.171C1353.18 570.297 1356.51 562.866 1362.08 557.283C1368.28 551.783 1376.39 548.937 1384.67 549.355C1391.79 549.558 1399.2 551.646 1407.35 555.749C1407.63 555.889 1407.88 556.083 1408.09 556.32C1408.29 556.556 1408.45 556.831 1408.54 557.127C1408.64 557.424 1408.68 557.737 1408.66 558.048C1408.63 558.36 1408.55 558.664 1408.41 558.943C1408.27 559.222 1408.08 559.471 1407.84 559.675C1407.6 559.879 1407.33 560.035 1407.03 560.133C1406.74 560.231 1406.42 560.27 1406.11 560.247C1405.8 560.224 1405.5 560.14 1405.22 560C1397.71 556.218 1390.95 554.293 1384.55 554.115C1377.51 553.735 1370.6 556.139 1365.31 560.808C1360.59 565.591 1357.79 571.935 1357.43 578.645C1356.33 591.494 1357.73 601.44 1368.11 608.175C1374.6 612.384 1383.64 612.277 1389.93 610.777C1396.23 609.278 1401.1 605.719 1403.37 601.165C1405.87 596.166 1404.66 589.767 1400.68 586.908C1400.32 586.652 1399.93 586.414 1399.54 586.176C1397.78 585.334 1396.34 583.941 1395.44 582.206C1394.53 580.471 1394.22 578.49 1394.55 576.563C1394.57 575.815 1394.54 575.067 1394.47 574.322C1393.99 570.441 1392.15 563.947 1384.71 564.07C1384.4 564.076 1384.09 564.02 1383.8 563.906C1383.5 563.792 1383.24 563.622 1383.01 563.405C1382.79 563.188 1382.61 562.929 1382.48 562.642C1382.36 562.356 1382.29 562.047 1382.28 561.735C1382.28 561.422 1382.33 561.111 1382.45 560.82C1382.56 560.529 1382.73 560.263 1382.95 560.038C1383.17 559.813 1383.43 559.632 1383.71 559.507C1384 559.382 1384.31 559.314 1384.62 559.309C1392.69 559.179 1398.17 564.574 1399.2 573.762C1399.29 574.71 1399.33 575.663 1399.31 576.615C1398.99 577.719 1399.1 578.904 1399.61 579.934C1400.12 580.965 1401 581.766 1402.07 582.177C1402.55 582.476 1403.02 582.762 1403.46 583.08C1409.36 587.319 1411.2 596.206 1407.64 603.342C1404.72 609.224 1398.66 613.633 1391.04 615.441C1381.63 617.686 1372.08 616.481 1365.5 612.212C1356.46 606.328 1353.29 598.137 1352.54 589.687" fill="#5A4ABF"/>
<path d="M297.859 506.829C297.726 505.473 297.193 504.187 296.327 503.134C295.462 502.082 294.303 501.31 292.997 500.918C291.692 500.526 290.3 500.531 288.997 500.933C287.695 501.334 286.542 502.114 285.684 503.173C284.826 504.232 284.302 505.522 284.179 506.879C284.057 508.237 284.34 509.6 284.994 510.795C285.649 511.991 286.644 512.965 287.853 513.593C289.062 514.222 290.431 514.477 291.785 514.325C293.584 514.135 295.234 513.239 296.373 511.834C297.511 510.428 298.046 508.628 297.859 506.829Z" fill="#5A4ABF"/>
<path d="M297.091 475.552C296.854 473.158 295.91 470.889 294.38 469.033C292.851 467.176 290.803 465.817 288.499 465.127C286.195 464.436 283.737 464.447 281.439 465.156C279.14 465.866 277.105 467.243 275.59 469.112C274.076 470.981 273.152 473.258 272.935 475.654C272.718 478.05 273.218 480.456 274.371 482.567C275.524 484.678 277.279 486.398 279.413 487.509C281.546 488.621 283.962 489.073 286.353 488.808C287.928 488.643 289.456 488.169 290.848 487.414C292.241 486.658 293.471 485.636 294.468 484.405C295.465 483.174 296.21 481.758 296.66 480.239C297.11 478.72 297.257 477.127 297.091 475.552Z" fill="#5A4ABF"/>
<path d="M279.667 496.474C279.574 495.56 279.211 494.694 278.625 493.986C278.038 493.278 277.255 492.761 276.374 492.499C275.493 492.237 274.554 492.244 273.676 492.517C272.799 492.79 272.022 493.317 271.445 494.033C270.868 494.748 270.516 495.619 270.435 496.534C270.354 497.45 270.547 498.369 270.989 499.175C271.431 499.98 272.102 500.637 272.918 501.06C273.734 501.483 274.657 501.655 275.571 501.552C276.173 501.488 276.757 501.306 277.289 501.016C277.822 500.727 278.291 500.335 278.672 499.863C279.052 499.391 279.336 498.849 279.507 498.268C279.678 497.686 279.732 497.077 279.667 496.474Z" fill="#5A4ABF"/>
<path d="M463.648 654.569C463.435 652.82 461.927 650.387 459.31 647.656C458.209 646.546 456.886 645.679 455.428 645.113C453.97 644.547 452.409 644.294 450.847 644.371C444.404 644.371 436.851 647.784 431.02 651.483C444.66 659.462 460.164 660.216 463.222 656.39C463.411 656.133 463.547 655.841 463.62 655.53C463.693 655.22 463.703 654.898 463.648 654.583V654.569ZM410.723 678.578C409.713 670.357 412.941 661.211 419.57 654.398C420.574 653.393 421.633 652.443 422.741 651.554C408.973 640.772 405.204 625.553 412.458 609.039C412.559 608.726 412.724 608.438 412.944 608.193C413.164 607.948 413.432 607.752 413.733 607.617C414.033 607.483 414.358 607.413 414.687 607.412C415.017 607.412 415.342 607.48 415.643 607.614C415.944 607.747 416.213 607.942 416.434 608.186C416.654 608.431 416.821 608.719 416.923 609.031C417.025 609.344 417.06 609.675 417.026 610.002C416.992 610.33 416.889 610.646 416.725 610.931C408.305 630.105 417.934 642.223 426.681 648.624C433.537 643.958 442.825 639.62 450.861 639.663C453.057 639.589 455.243 639.971 457.283 640.787C459.322 641.602 461.17 642.832 462.71 644.399C469.978 651.98 468.996 656.703 466.891 659.32C461.515 666.033 442.555 663.985 427.876 655.053C427.506 654.839 427.151 654.612 426.781 654.37C425.426 655.384 424.143 656.492 422.941 657.684C417.251 663.544 412.984 673.458 416.497 682.333C418.162 686.6 421.547 690.469 426.838 694.338C434.703 700.027 444.02 703.967 453.038 707.737C455.256 708.661 457.475 709.586 459.68 710.581C481.015 719.812 496.263 729.911 507.628 742.357C522.064 758.173 529.318 777.731 527.54 796.022C526.576 806.139 522.085 815.594 514.853 822.734C514.411 823.151 513.824 823.381 513.216 823.377C512.608 823.372 512.026 823.133 511.589 822.71C511.153 822.286 510.897 821.711 510.874 821.103C510.852 820.496 511.064 819.903 511.468 819.448C517.993 813.098 522.029 804.621 522.847 795.553C524.525 778.584 517.726 760.349 504.185 745.514C493.276 733.581 478.583 723.838 457.845 714.877C455.655 713.938 453.45 713.028 451.26 712.032C441.986 708.163 432.399 704.166 424.078 698.093C418.062 693.684 414.122 689.09 412.145 684.026C411.442 682.248 410.964 680.389 410.723 678.493" fill="#5A4ABF"/>
<path d="M1355.95 460.119C1357.64 460.631 1360.47 460.247 1364.03 458.967C1365.49 458.411 1366.82 457.554 1367.93 456.451C1369.04 455.349 1369.9 454.025 1370.47 452.566C1373.13 446.692 1373.04 438.343 1372.05 431.558C1359.25 440.789 1352.22 454.643 1354.47 458.995C1354.78 459.541 1355.29 459.944 1355.89 460.119H1355.95ZM1355.51 402.016C1363.43 404.434 1370.46 411.091 1374 419.909C1374.52 421.237 1374.96 422.595 1375.32 423.977C1390.78 415.784 1406.21 418.515 1418.35 431.871C1418.56 432.097 1418.73 432.365 1418.84 432.657C1418.96 432.95 1419.01 433.262 1419 433.576C1418.99 433.889 1418.92 434.197 1418.78 434.482C1418.65 434.766 1418.46 435.022 1418.23 435.233C1418 435.444 1417.73 435.606 1417.43 435.71C1417.14 435.815 1416.82 435.859 1416.51 435.839C1416.2 435.82 1415.89 435.739 1415.61 435.6C1415.33 435.46 1415.08 435.266 1414.88 435.029C1400.78 419.539 1385.83 423.437 1376.47 428.77C1377.89 436.92 1378.12 447.176 1374.82 454.501C1374 456.537 1372.76 458.379 1371.19 459.909C1369.61 461.44 1367.73 462.625 1365.68 463.39C1355.79 466.946 1351.88 464.13 1350.34 461.143C1346.39 453.505 1356.03 436.963 1370.09 427.234L1371.11 426.48C1370.75 424.826 1370.28 423.201 1369.69 421.616C1366.67 413.992 1359.33 406.112 1349.77 405.714C1345.25 405.515 1340.29 407.008 1334.61 410.266C1326.16 415.116 1318.82 422.057 1311.71 428.756C1309.96 430.416 1308.2 432.061 1306.45 433.692C1289.38 449.437 1273.91 459.294 1257.92 464.571C1237.59 471.327 1216.78 469.99 1200.8 460.901C1191.95 455.917 1185.12 447.984 1181.52 438.485C1181.32 437.911 1181.35 437.283 1181.61 436.73C1181.86 436.177 1182.31 435.743 1182.88 435.518C1183.44 435.293 1184.07 435.293 1184.64 435.52C1185.2 435.747 1185.65 436.182 1185.9 436.736C1189.07 445.266 1195.18 452.384 1203.13 456.805C1217.95 465.239 1237.38 466.434 1256.43 460.105C1271.77 454.999 1286.65 445.511 1303.26 430.235C1305.01 428.628 1306.75 426.992 1308.48 425.357C1315.78 418.458 1323.33 411.332 1332.27 406.198C1338.74 402.485 1344.53 400.793 1349.97 401.02C1351.9 401.102 1353.82 401.432 1355.66 402.002" fill="#5A4ABF"/>
<path d="M238.604 665.037C240.325 664.682 243.113 665.308 246.555 666.886C247.961 667.572 249.208 668.543 250.217 669.738C251.227 670.934 251.975 672.326 252.415 673.828C254.534 679.901 253.738 688.165 252.159 694.893C240.168 684.581 234.408 670.172 237.025 666.033C237.205 665.767 237.438 665.541 237.71 665.369C237.982 665.198 238.286 665.085 238.604 665.037ZM233.142 722.884C241.249 721.163 248.788 715.147 253.055 706.67C253.677 705.386 254.232 704.071 254.719 702.73C269.412 712.245 285.015 710.866 298.271 698.619C298.498 698.41 298.682 698.158 298.812 697.878C298.941 697.598 299.014 697.295 299.027 696.987C299.039 696.678 298.991 696.37 298.885 696.081C298.778 695.791 298.616 695.525 298.407 695.298C298.197 695.071 297.946 694.887 297.665 694.758C297.385 694.628 297.082 694.555 296.774 694.543C296.466 694.53 296.158 694.578 295.868 694.685C295.578 694.791 295.312 694.954 295.085 695.163C279.696 709.386 265.145 704.181 256.212 698.008C258.389 690.014 259.47 679.816 256.81 672.234C256.169 670.133 255.096 668.189 253.661 666.526C252.226 664.863 250.46 663.518 248.475 662.577C238.945 658.167 234.792 660.628 233 663.473C228.405 670.741 236.527 688.008 249.712 699.032C250.039 699.316 250.381 699.586 250.722 699.857C250.219 701.464 249.601 703.032 248.873 704.55C245.189 711.89 237.196 719.101 227.652 718.674C223.129 718.461 218.321 716.541 212.945 712.8C204.951 707.239 198.237 699.686 191.751 692.389C190.144 690.583 188.551 688.791 186.93 687.013C171.284 669.845 156.747 658.722 141.272 652.023C121.615 643.489 100.764 643.034 84.0509 650.714C74.7972 654.898 67.3101 662.204 62.9005 671.353C62.6195 671.918 62.5747 672.573 62.7761 673.172C62.9775 673.77 63.4085 674.265 63.9744 674.546C64.5402 674.827 65.1946 674.872 65.7934 674.67C66.3922 674.469 66.8865 674.038 67.1676 673.472C71.0677 665.256 77.7702 658.699 86.0706 654.981C101.574 647.87 121.032 648.382 139.452 656.404C154.301 662.833 168.297 673.586 183.544 690.256C185.152 692.005 186.731 693.783 188.309 695.575C194.994 703.071 201.893 710.837 210.342 716.726C216.472 720.993 222.09 723.183 227.524 723.425C229.433 723.506 231.345 723.343 233.213 722.941" fill="#5A4ABF"/>
<path d="M-34.4038 589.256C-35.577 590.573 -36.407 593.3 -36.7326 597.087C-36.8386 598.645 -36.6147 600.207 -36.0753 601.673C-35.5359 603.138 -34.6933 604.473 -33.6026 605.59C-29.383 610.454 -21.8661 613.799 -15.1816 615.811C-18.1925 600.289 -27.8587 588.153 -32.7526 588.365C-33.0741 588.392 -33.3865 588.486 -33.6705 588.639C-33.9545 588.792 -34.2041 589.002 -34.4038 589.256ZM18.5671 613.189C13.051 619.381 4.09333 623.02 -5.41825 622.471C-6.84321 622.392 -8.26222 622.228 -9.66767 621.981C-8.67996 639.453 -17.6303 652.3 -34.8135 657.774C-35.1143 657.909 -35.4401 657.978 -35.7695 657.978C-36.099 657.978 -36.4248 657.909 -36.7257 657.775C-37.0267 657.641 -37.296 657.445 -37.5162 657.2C-37.7365 656.955 -37.9026 656.667 -38.0039 656.353C-38.1052 656.04 -38.1394 655.708 -38.1042 655.381C-38.069 655.053 -37.9652 654.737 -37.7996 654.452C-37.634 654.167 -37.4103 653.92 -37.143 653.728C-36.8758 653.535 -36.5709 653.401 -36.2484 653.334C-16.2836 647.004 -13.5945 631.798 -14.4894 620.999C-22.5074 618.923 -31.8697 614.849 -37.1782 608.748C-38.6813 607.148 -39.836 605.252 -40.5692 603.183C-41.3025 601.113 -41.5983 598.913 -41.4381 596.723C-40.5308 586.254 -36.3361 583.877 -32.9801 583.723C-24.3888 583.339 -13.4248 598.936 -10.4154 615.828C-10.3403 616.257 -10.2652 616.686 -10.2102 617.116C-8.53624 617.472 -6.83928 617.711 -5.13187 617.83C3.07344 618.264 13.2758 614.895 17.6405 606.382C19.7051 602.354 20.4268 597.225 19.8294 590.711C18.9569 580.999 15.7254 571.434 12.6021 562.175C11.8259 559.896 11.0631 557.616 10.3136 555.335C3.15238 533.182 0.658149 515.091 2.52222 498.331C4.87101 477.05 14.7726 458.687 29.7199 447.983C37.9372 442.008 47.9971 439.12 58.1323 439.826C58.7304 439.891 59.2809 440.183 59.6714 440.64C60.0618 441.098 60.2628 441.688 60.2331 442.289C60.2035 442.89 59.9455 443.457 59.5119 443.874C59.0783 444.291 58.5018 444.527 57.9002 444.534C48.8268 443.84 39.8049 446.419 32.4689 451.803C18.6057 461.74 9.40946 478.883 7.19567 498.837C5.42332 514.917 7.79072 532.38 14.7732 553.879C15.4982 556.144 16.2634 558.407 17.0286 560.67C20.2366 570.176 23.5647 580.018 24.5359 590.218C25.2066 597.654 24.3222 603.629 21.8409 608.467C20.968 610.177 19.878 611.767 18.5978 613.197" fill="#5A4ABF"/>
<path d="M577.75 615.653C564.337 615.653 550.028 612.681 539.702 607.205C526.246 600.093 485.297 578.388 498.667 521.437C498.73 521.168 498.847 520.915 499.011 520.692C499.175 520.47 499.382 520.283 499.62 520.142C499.858 520.003 500.121 519.912 500.395 519.875C500.668 519.839 500.947 519.857 501.213 519.929L530.599 528.022C530.902 528.109 531.18 528.264 531.414 528.475C531.648 528.686 531.83 528.948 531.946 529.24C532.063 529.533 532.111 529.848 532.087 530.162C532.063 530.476 531.968 530.781 531.808 531.052C528.963 535.831 526.246 547.252 530.528 559.158C534.638 570.536 544.168 579.241 558.121 584.205C568.746 587.989 591.874 590.976 603.295 575.173C603.443 574.934 603.638 574.727 603.869 574.567C604.101 574.406 604.362 574.295 604.638 574.24C604.914 574.185 605.199 574.187 605.474 574.247C605.749 574.306 606.008 574.422 606.237 574.587C606.465 574.751 606.657 574.961 606.8 575.203C606.944 575.445 607.036 575.714 607.071 575.994C607.106 576.273 607.083 576.556 607.004 576.826C606.924 577.096 606.79 577.347 606.609 577.563C593.808 595.342 568.376 592.199 556.742 588.06C537.625 581.261 529.831 569.342 526.673 560.537C522.705 549.5 523.999 538.249 527.086 531.308L502.194 524.452C491 576.78 529.006 596.992 541.608 603.592C556.912 611.699 581.434 614.003 597.435 608.84C615.641 602.98 629.026 590.079 640.618 567.151C615.473 557.887 589.726 550.35 563.555 544.593C563.043 544.458 562.604 544.13 562.329 543.679C562.054 543.228 561.964 542.687 562.077 542.171C562.191 541.655 562.5 541.202 562.94 540.909C563.38 540.615 563.916 540.503 564.437 540.596C591.534 546.552 618.179 554.409 644.174 564.107C644.444 564.207 644.689 564.362 644.895 564.563C645.101 564.764 645.262 565.006 645.368 565.274C645.474 565.538 645.521 565.822 645.509 566.106C645.497 566.391 645.425 566.669 645.297 566.924C632.909 592.241 618.571 606.38 598.772 612.809C591.975 614.821 584.909 615.781 577.821 615.653" fill="#5A4ABF"/>
<path d="M1123.11 493.729C1124.15 494.515 1125.4 494.974 1126.7 495.048C1128 495.122 1129.29 494.808 1130.41 494.146C1131.53 493.483 1132.43 492.502 1133 491.327C1133.56 490.152 1133.76 488.836 1133.57 487.547C1133.39 486.258 1132.82 485.053 1131.95 484.085C1131.08 483.118 1129.94 482.432 1128.67 482.115C1127.41 481.797 1126.08 481.862 1124.85 482.302C1123.63 482.741 1122.56 483.536 1121.78 484.584C1120.75 485.973 1120.31 487.715 1120.56 489.43C1120.8 491.144 1121.72 492.691 1123.11 493.729Z" fill="#5A4ABF"/>
<path d="M1145.6 513.5C1147.43 514.89 1149.64 515.703 1151.94 515.834C1154.25 515.965 1156.53 515.409 1158.52 514.237C1160.5 513.064 1162.09 511.328 1163.09 509.25C1164.08 507.171 1164.44 504.843 1164.11 502.562C1163.77 500.281 1162.77 498.15 1161.23 496.441C1159.68 494.731 1157.66 493.519 1155.43 492.959C1153.19 492.4 1150.84 492.518 1148.67 493.298C1146.5 494.079 1144.61 495.486 1143.25 497.342C1141.42 499.798 1140.64 502.877 1141.08 505.906C1141.52 508.935 1143.15 511.666 1145.6 513.5Z" fill="#5A4ABF"/>
<path d="M1142.2 487.642C1142.9 488.177 1143.75 488.491 1144.63 488.543C1145.51 488.595 1146.39 488.383 1147.15 487.935C1147.91 487.486 1148.52 486.821 1148.91 486.024C1149.29 485.227 1149.42 484.334 1149.3 483.459C1149.17 482.584 1148.79 481.767 1148.19 481.112C1147.6 480.456 1146.82 479.992 1145.97 479.779C1145.11 479.565 1144.21 479.612 1143.38 479.913C1142.54 480.214 1141.82 480.755 1141.3 481.469C1140.6 482.407 1140.31 483.583 1140.47 484.74C1140.64 485.897 1141.26 486.94 1142.2 487.642Z" fill="#5A4ABF"/>
<path d="M1286.37 634.144C1285.97 634.149 1285.57 634.043 1285.23 633.838C1284.88 633.633 1284.6 633.337 1284.41 632.983C1284.23 632.628 1284.14 632.229 1284.17 631.829C1284.19 631.429 1284.33 631.044 1284.56 630.716C1288.64 624.755 1291.31 617.944 1292.37 610.798C1293.43 603.652 1292.86 596.358 1290.69 589.468C1288.51 582.577 1284.81 576.271 1279.84 571.025C1274.87 565.779 1268.78 561.731 1262.02 559.186C1261.47 558.981 1261.03 558.567 1260.79 558.036C1260.55 557.505 1260.53 556.901 1260.74 556.356C1260.94 555.811 1261.35 555.37 1261.89 555.13C1262.42 554.889 1263.02 554.87 1263.57 555.076C1270.94 557.857 1277.59 562.277 1283.01 568.003C1288.43 573.729 1292.48 580.611 1294.85 588.129C1297.22 595.648 1297.85 603.607 1296.7 611.405C1295.54 619.204 1292.63 626.639 1288.19 633.149C1287.98 633.444 1287.71 633.686 1287.39 633.852C1287.08 634.018 1286.72 634.104 1286.37 634.102" fill="#5A4ABF"/>
<path d="M802.169 557.337C801.065 558.853 800.053 560.435 799.139 562.073C796.423 567.08 793.677 572.997 793.877 578.928C794.047 583.992 797.12 590.008 802.496 591.189C803.952 591.536 805.471 591.528 806.923 591.167C808.376 590.805 809.721 590.101 810.845 589.112C812.311 587.697 813.424 585.956 814.094 584.032C814.763 582.107 814.971 580.052 814.7 578.032C813.932 568.218 809.722 561.262 802.169 557.337ZM612.171 651.212C519.832 651.212 483.832 608.371 454.105 572.983C430.935 545.417 410.937 521.607 370.385 523.94C370.098 523.957 369.809 523.918 369.537 523.823C369.264 523.729 369.013 523.582 368.798 523.39C368.583 523.198 368.407 522.966 368.282 522.707C368.156 522.447 368.083 522.165 368.067 521.878C368.04 521.296 368.242 520.727 368.631 520.293C369.019 519.859 369.562 519.596 370.144 519.559C412.814 517.084 433.538 541.691 457.476 570.166C492.679 612.055 532.562 659.519 656.876 643.816C655.98 624.244 671.512 601.572 699.902 581.232C730.354 559.385 775.4 542.103 800.889 551.804C813.462 535.703 842.592 508.052 878.692 500.798C906.527 495.208 933.168 502.462 957.874 522.347C958.288 522.725 958.542 523.247 958.584 523.806C958.627 524.365 958.455 524.919 958.103 525.356C957.752 525.793 957.247 526.079 956.692 526.157C956.137 526.235 955.573 526.098 955.115 525.775C931.475 506.729 906.058 499.774 879.559 505.108C845.11 512.021 817.274 538.121 804.957 553.681C813.491 558.375 818.327 566.596 819.18 577.577C819.507 580.282 819.193 583.027 818.264 585.589C817.335 588.151 815.817 590.459 813.832 592.327C812.188 593.76 810.227 594.784 808.111 595.313C805.994 595.842 803.783 595.862 801.657 595.37C794.033 593.692 789.809 585.855 789.595 578.971C789.382 572.087 792.44 565.401 795.37 559.883C796.217 558.374 797.142 556.912 798.144 555.502C776.609 548.305 736.485 560.409 702.505 584.802C674.811 604.715 659.464 627.373 661.441 645.523C661.502 646.092 661.339 646.664 660.986 647.115C660.632 647.566 660.117 647.863 659.55 647.941C643.845 650.059 628.018 651.152 612.171 651.212Z" fill="#5A4ABF"/>
<path d="M674.412 636.164L694.524 618.882L695.534 644.541L674.412 636.164Z" fill="#5A4ABF"/>
<path d="M1121.43 702.019C1112.33 704.864 1105.67 708.96 1104.76 712.502C1104.62 713.057 1104.18 714.749 1107.82 716.854C1111.2 718.817 1114.73 714.977 1116.08 713.227C1118.56 709.867 1120.38 706.062 1121.43 702.019ZM1031.45 634.358C1031.01 633.177 1030.53 632.068 1030.03 631.029C1025.39 621.428 1021.3 620.148 1019.75 620.049C1018.92 620.042 1018.1 620.26 1017.39 620.681C1016.67 621.102 1016.09 621.71 1015.69 622.438C1014.6 624.394 1014.02 626.598 1014.02 628.839C1014.02 631.08 1014.6 633.284 1015.69 635.24C1019.96 643.347 1024.94 648.283 1030.88 651.156C1031.28 650.554 1031.63 649.921 1031.93 649.264C1034.11 644.471 1033.12 638.923 1031.39 634.329L1031.45 634.358ZM981.967 852.362C983.183 861.328 987.616 869.548 994.441 875.489C1006.92 886.512 1026.23 888.29 1038.42 879.628C1041.75 877.079 1044.47 873.822 1046.39 870.093C1048.3 866.364 1049.37 862.256 1049.5 858.065C1049.83 850.427 1047.13 843.586 1042.06 839.276C1034.18 832.563 1021.51 831.382 1008.12 836.118C998.347 839.606 989.428 845.144 981.967 852.362ZM966.393 900.466C964.471 895.232 963.4 889.724 963.221 884.151C962.737 871.677 968.569 860.114 977.444 850.797C977.351 849.376 977.351 847.951 977.444 846.53C978.17 836.972 983.034 827.2 991.881 817.471C1001.29 807.073 1012.9 798.904 1025.86 793.562C1042.6 786.763 1060.27 785.71 1077.36 784.7C1091.72 783.847 1106.57 782.951 1120.77 778.655C1143.53 771.771 1159.65 762.284 1168.78 750.479C1176.55 740.522 1178.74 729.015 1175.27 717.409C1170.17 700.668 1151.77 698.563 1141.24 698.79C1136.13 698.917 1131.05 699.57 1126.08 700.739C1125 706.213 1122.73 711.383 1119.44 715.887C1115.17 721.391 1109.98 723.155 1105.57 720.609C1099.88 717.338 1099.88 713.497 1100.48 711.407C1102.01 705.433 1111.33 700.255 1122.38 697.183C1124.09 686.316 1121.9 673.387 1112.43 663.687C1106.57 657.684 1098.2 655.977 1080.37 657.172C1076.72 657.414 1073.25 657.713 1069.77 658.011C1055.38 659.22 1042.74 660.301 1032.11 656.433C1028.69 659.875 1023.67 662.506 1017.11 664.284C1016.84 664.364 1016.55 664.387 1016.26 664.353C1015.98 664.319 1015.7 664.229 1015.46 664.087C1015.21 663.945 1014.99 663.755 1014.81 663.527C1014.64 663.3 1014.51 663.04 1014.44 662.762C1014.29 662.204 1014.37 661.61 1014.66 661.109C1014.95 660.608 1015.42 660.241 1015.98 660.088C1020.26 659.08 1024.29 657.175 1027.78 654.498C1021.64 651.213 1016.29 645.822 1011.82 637.202C1008.89 631.513 1008.98 624.615 1011.99 619.978C1012.81 618.6 1013.98 617.469 1015.38 616.704C1016.79 615.94 1018.37 615.572 1019.97 615.64C1023.47 615.867 1028.73 618.385 1033.88 629.067C1037.94 637.444 1038.62 645.04 1035.89 651.028C1035.62 651.62 1035.32 652.195 1034.98 652.749C1044.45 655.793 1055.9 654.811 1069.4 653.673C1072.86 653.375 1076.41 653.076 1080.07 652.834C1096.61 651.725 1107.72 652.649 1115.54 660.643C1125.5 670.898 1128.24 684.396 1126.85 696.102C1131.56 695.088 1136.35 694.512 1141.17 694.381C1161.17 693.954 1175.12 701.905 1179.43 716.086C1183.39 729.101 1180.86 741.888 1172.24 753.067C1162.54 765.612 1145.65 775.597 1122.04 782.752C1107.36 787.204 1092.24 788.1 1077.63 788.967C1060.13 790.006 1043.6 791.001 1027.51 797.502C1015.15 802.584 1004.08 810.359 995.11 820.259C987.031 829.149 982.551 837.953 981.825 846.43C989.11 840.074 997.518 835.135 1006.62 831.866C1021.48 826.617 1035.76 828.082 1044.84 835.82C1050.91 840.997 1054.18 849.133 1053.78 858.108C1053.36 868.065 1048.42 877.665 1040.9 883.028C1026.89 892.984 1005.65 891.121 991.497 878.604C984.784 872.77 980.105 864.948 978.141 856.273C971.371 864.253 967.118 873.74 967.516 883.838C968.612 911.958 990.174 924.646 1013.03 938.087C1041.08 954.586 1070.08 971.654 1065.39 1018.11C1065.33 1018.68 1065.04 1019.21 1064.59 1019.57C1064.15 1019.94 1063.57 1020.11 1063 1020.06C1062.72 1020.03 1062.44 1019.94 1062.19 1019.81C1061.94 1019.67 1061.72 1019.49 1061.54 1019.27C1061.36 1019.05 1061.22 1018.8 1061.14 1018.52C1061.06 1018.25 1061.04 1017.96 1061.06 1017.68C1065.46 973.987 1037.7 957.644 1010.83 941.828C992.521 931.061 973.718 919.995 966.364 900.323" fill="#5A4ABF"/>
</g>
</svg>
