<svg width="171" height="31" viewBox="0 0 171 31" fill="none" xmlns="http://www.w3.org/2000/svg">
<path d="M21.4648 21.5625H6.71875C6.84896 23.0729 7.34375 24.1927 8.20312 24.9219C9.0625 25.638 10.3255 25.9961 11.9922 25.9961C13.125 25.9961 14.2839 25.8659 15.4688 25.6055C16.6667 25.332 17.8385 24.9414 18.9844 24.4336L18.1836 29.5117C16.9596 29.9023 15.7096 30.1953 14.4336 30.3906C13.1576 30.5859 11.875 30.6836 10.5859 30.6836C7.40885 30.6836 4.89583 29.8177 3.04688 28.0859C1.19792 26.3542 0.273438 24.0039 0.273438 21.0352C0.273438 19.3685 0.605469 17.7279 1.26953 16.1133C1.93359 14.4857 2.82552 13.112 3.94531 11.9922C5.03906 10.9245 6.35417 10.1237 7.89062 9.58984C9.4401 9.04297 11.1784 8.76953 13.1055 8.76953C15.944 8.76953 18.125 9.53776 19.6484 11.0742C21.1849 12.6107 21.9531 14.7982 21.9531 17.6367C21.9531 18.2227 21.9141 18.8477 21.8359 19.5117C21.7578 20.1628 21.6341 20.8464 21.4648 21.5625ZM15.9766 17.5977C16.0156 17.3372 16.0417 17.1419 16.0547 17.0117C16.0677 16.8685 16.0742 16.7448 16.0742 16.6406C16.0742 15.4948 15.7487 14.5898 15.0977 13.9258C14.4466 13.2617 13.5742 12.9297 12.4805 12.9297C11.3607 12.9297 10.3711 13.3464 9.51172 14.1797C8.65234 15 8.02734 16.1393 7.63672 17.5977H15.9766Z" fill="white"/>
<path d="M25.293 15.8398H36.0547L34.9609 20.8789H24.1992L25.293 15.8398Z" fill="white"/>
<path d="M56.2891 10.0781L54.7266 14.6094C53.4245 14.1667 52.3633 13.8607 51.543 13.6914C50.7357 13.5221 49.987 13.4375 49.2969 13.4375C48.2943 13.4375 47.5065 13.6068 46.9336 13.9453C46.3737 14.2839 46.0938 14.7396 46.0938 15.3125C46.0938 16.0547 46.9531 16.7383 48.6719 17.3633C49.375 17.6237 49.9284 17.8385 50.332 18.0078C51.7904 18.6198 52.8516 19.3294 53.5156 20.1367C54.1927 20.944 54.5312 21.9271 54.5312 23.0859C54.5312 25.3385 53.6458 27.1484 51.875 28.5156C50.1172 29.8828 47.7604 30.5664 44.8047 30.5664C43.3464 30.5664 41.9336 30.4557 40.5664 30.2344C39.2122 30.013 37.8906 29.681 36.6016 29.2383L38.0859 24.2773C39.0495 24.7461 40.0065 25.0977 40.957 25.332C41.9076 25.5664 42.8711 25.6836 43.8477 25.6836C45.0065 25.6836 45.8919 25.5273 46.5039 25.2148C47.1289 24.8893 47.4414 24.4336 47.4414 23.8477C47.4414 22.9883 46.6406 22.2461 45.0391 21.6211C44.7786 21.5299 44.5833 21.4583 44.4531 21.4062C42.4479 20.5859 41.0872 19.7526 40.3711 18.9062C39.6549 18.0599 39.2969 16.9596 39.2969 15.6055C39.2969 13.6133 40.1888 11.9922 41.9727 10.7422C43.7565 9.47917 46.1133 8.84766 49.043 8.84766C50.1497 8.84766 51.3021 8.95182 52.5 9.16016C53.6979 9.35547 54.9609 9.66146 56.2891 10.0781Z" fill="white"/>
<path d="M77.6172 10.1953L75.9766 15.1562C75.2083 14.8047 74.4531 14.5378 73.7109 14.3555C72.9818 14.1732 72.2656 14.082 71.5625 14.082C69.6615 14.082 68.125 14.6289 66.9531 15.7227C65.7943 16.8034 65.2148 18.2292 65.2148 20C65.2148 21.5495 65.6901 22.7799 66.6406 23.6914C67.6042 24.5898 68.8997 25.0391 70.5273 25.0391C71.1784 25.0391 71.8359 24.9609 72.5 24.8047C73.1771 24.6484 73.8802 24.4076 74.6094 24.082L73.7695 29.5117C72.6758 29.7982 71.6406 30.0065 70.6641 30.1367C69.7005 30.2799 68.776 30.3516 67.8906 30.3516C64.7786 30.3516 62.2982 29.4857 60.4492 27.7539C58.6133 26.0091 57.6953 23.6914 57.6953 20.8008C57.6953 17.2201 58.8867 14.3359 61.2695 12.1484C63.6523 9.94792 66.8034 8.84766 70.7227 8.84766C71.8945 8.84766 73.0534 8.95833 74.1992 9.17969C75.3451 9.40104 76.4844 9.73958 77.6172 10.1953Z" fill="white"/>
<path d="M83.2422 0H90.4102L87.8906 11.9531C88.9323 10.9375 90.0195 10.1823 91.1523 9.6875C92.2852 9.17969 93.4896 8.92578 94.7656 8.92578C96.901 8.92578 98.5547 9.55729 99.7266 10.8203C100.898 12.0703 101.484 13.8346 101.484 16.1133C101.484 16.8034 101.419 17.6237 101.289 18.5742C101.172 19.5247 100.983 20.599 100.723 21.7969L99.0039 30H91.8164L94.0039 19.6875C94.082 19.2969 94.1406 18.9323 94.1797 18.5938C94.2318 18.2552 94.2578 17.9362 94.2578 17.6367C94.2578 16.6732 94.0234 15.931 93.5547 15.4102C93.099 14.8763 92.4609 14.6094 91.6406 14.6094C90.2214 14.6094 89.0299 15.1693 88.0664 16.2891C87.1159 17.4089 86.4062 19.0885 85.9375 21.3281L84.082 30H76.8945L83.2422 0Z" fill="white"/>
<path d="M121.367 18.2422C121.367 16.8229 121.016 15.6966 120.312 14.8633C119.622 14.0169 118.691 13.5938 117.52 13.5938C116.009 13.5938 114.714 14.3229 113.633 15.7812C112.552 17.2396 112.012 19.0169 112.012 21.1133C112.012 22.4805 112.376 23.6003 113.105 24.4727C113.848 25.332 114.798 25.7617 115.957 25.7617C117.454 25.7617 118.73 25.0391 119.785 23.5938C120.84 22.1484 121.367 20.3646 121.367 18.2422ZM117.93 8.88672C121.25 8.88672 123.861 9.74609 125.762 11.4648C127.663 13.1836 128.613 15.5469 128.613 18.5547C128.613 22.1615 127.396 25.0716 124.961 27.2852C122.526 29.4987 119.303 30.6055 115.293 30.6055C112.012 30.6055 109.427 29.7656 107.539 28.0859C105.664 26.4062 104.727 24.1081 104.727 21.1914C104.727 17.4414 105.911 14.4531 108.281 12.2266C110.664 10 113.88 8.88672 117.93 8.88672Z" fill="white"/>
<path d="M148.047 18.2422C148.047 16.8229 147.695 15.6966 146.992 14.8633C146.302 14.0169 145.371 13.5938 144.199 13.5938C142.689 13.5938 141.393 14.3229 140.312 15.7812C139.232 17.2396 138.691 19.0169 138.691 21.1133C138.691 22.4805 139.056 23.6003 139.785 24.4727C140.527 25.332 141.478 25.7617 142.637 25.7617C144.134 25.7617 145.41 25.0391 146.465 23.5938C147.52 22.1484 148.047 20.3646 148.047 18.2422ZM144.609 8.88672C147.93 8.88672 150.54 9.74609 152.441 11.4648C154.342 13.1836 155.293 15.5469 155.293 18.5547C155.293 22.1615 154.076 25.0716 151.641 27.2852C149.206 29.4987 145.983 30.6055 141.973 30.6055C138.691 30.6055 136.107 29.7656 134.219 28.0859C132.344 26.4062 131.406 24.1081 131.406 21.1914C131.406 17.4414 132.591 14.4531 134.961 12.2266C137.344 10 140.56 8.88672 144.609 8.88672Z" fill="white"/>
<path d="M163.77 0H170.879L164.531 30H157.402L163.77 0Z" fill="white"/>
</svg>
