<svg width="103" height="19" viewBox="0 0 103 19" fill="none" xmlns="http://www.w3.org/2000/svg">
<path d="M12.7148 12.9375H3.86719C3.94531 13.8438 4.24219 14.5156 4.75781 14.9531C5.27344 15.3828 6.03125 15.5977 7.03125 15.5977C7.71094 15.5977 8.40625 15.5195 9.11719 15.3633C9.83594 15.1992 10.5391 14.9648 11.2266 14.6602L10.7461 17.707C10.0117 17.9414 9.26172 18.1172 8.49609 18.2344C7.73047 18.3516 6.96094 18.4102 6.1875 18.4102C4.28125 18.4102 2.77344 17.8906 1.66406 16.8516C0.554688 15.8125 0 14.4023 0 12.6211C0 11.6211 0.199219 10.6367 0.597656 9.66797C0.996094 8.69141 1.53125 7.86719 2.20312 7.19531C2.85938 6.55469 3.64844 6.07422 4.57031 5.75391C5.5 5.42578 6.54297 5.26172 7.69922 5.26172C9.40234 5.26172 10.7109 5.72266 11.625 6.64453C12.5469 7.56641 13.0078 8.87891 13.0078 10.582C13.0078 10.9336 12.9844 11.3086 12.9375 11.707C12.8906 12.0977 12.8164 12.5078 12.7148 12.9375ZM9.42188 10.5586C9.44531 10.4023 9.46094 10.2852 9.46875 10.207C9.47656 10.1211 9.48047 10.0469 9.48047 9.98438C9.48047 9.29688 9.28516 8.75391 8.89453 8.35547C8.50391 7.95703 7.98047 7.75781 7.32422 7.75781C6.65234 7.75781 6.05859 8.00781 5.54297 8.50781C5.02734 9 4.65234 9.68359 4.41797 10.5586H9.42188Z" fill="white"/>
<path d="M15.0117 9.50391H21.4688L20.8125 12.5273H14.3555L15.0117 9.50391Z" fill="white"/>
<path d="M33.6094 6.04688L32.6719 8.76562C31.8906 8.5 31.2539 8.31641 30.7617 8.21484C30.2773 8.11328 29.8281 8.0625 29.4141 8.0625C28.8125 8.0625 28.3398 8.16406 27.9961 8.36719C27.6602 8.57031 27.4922 8.84375 27.4922 9.1875C27.4922 9.63281 28.0078 10.043 29.0391 10.418C29.4609 10.5742 29.793 10.7031 30.0352 10.8047C30.9102 11.1719 31.5469 11.5977 31.9453 12.082C32.3516 12.5664 32.5547 13.1562 32.5547 13.8516C32.5547 15.2031 32.0234 16.2891 30.9609 17.1094C29.9062 17.9297 28.4922 18.3398 26.7188 18.3398C25.8438 18.3398 24.9961 18.2734 24.1758 18.1406C23.3633 18.0078 22.5703 17.8086 21.7969 17.543L22.6875 14.5664C23.2656 14.8477 23.8398 15.0586 24.4102 15.1992C24.9805 15.3398 25.5586 15.4102 26.1445 15.4102C26.8398 15.4102 27.3711 15.3164 27.7383 15.1289C28.1133 14.9336 28.3008 14.6602 28.3008 14.3086C28.3008 13.793 27.8203 13.3477 26.8594 12.9727C26.7031 12.918 26.5859 12.875 26.5078 12.8438C25.3047 12.3516 24.4883 11.8516 24.0586 11.3438C23.6289 10.8359 23.4141 10.1758 23.4141 9.36328C23.4141 8.16797 23.9492 7.19531 25.0195 6.44531C26.0898 5.6875 27.5039 5.30859 29.2617 5.30859C29.9258 5.30859 30.6172 5.37109 31.3359 5.49609C32.0547 5.61328 32.8125 5.79688 33.6094 6.04688Z" fill="white"/>
<path d="M46.4062 6.11719L45.4219 9.09375C44.9609 8.88281 44.5078 8.72266 44.0625 8.61328C43.625 8.50391 43.1953 8.44922 42.7734 8.44922C41.6328 8.44922 40.7109 8.77734 40.0078 9.43359C39.3125 10.082 38.9648 10.9375 38.9648 12C38.9648 12.9297 39.25 13.668 39.8203 14.2148C40.3984 14.7539 41.1758 15.0234 42.1523 15.0234C42.543 15.0234 42.9375 14.9766 43.3359 14.8828C43.7422 14.7891 44.1641 14.6445 44.6016 14.4492L44.0977 17.707C43.4414 17.8789 42.8203 18.0039 42.2344 18.082C41.6562 18.168 41.1016 18.2109 40.5703 18.2109C38.7031 18.2109 37.2148 17.6914 36.1055 16.6523C35.0039 15.6055 34.4531 14.2148 34.4531 12.4805C34.4531 10.332 35.168 8.60156 36.5977 7.28906C38.0273 5.96875 39.918 5.30859 42.2695 5.30859C42.9727 5.30859 43.668 5.375 44.3555 5.50781C45.043 5.64062 45.7266 5.84375 46.4062 6.11719Z" fill="white"/>
<path d="M49.7812 0H54.082L52.5703 7.17188C53.1953 6.5625 53.8477 6.10938 54.5273 5.8125C55.207 5.50781 55.9297 5.35547 56.6953 5.35547C57.9766 5.35547 58.9688 5.73438 59.6719 6.49219C60.375 7.24219 60.7266 8.30078 60.7266 9.66797C60.7266 10.082 60.6875 10.5742 60.6094 11.1445C60.5391 11.7148 60.4258 12.3594 60.2695 13.0781L59.2383 18H54.9258L56.2383 11.8125C56.2852 11.5781 56.3203 11.3594 56.3438 11.1562C56.375 10.9531 56.3906 10.7617 56.3906 10.582C56.3906 10.0039 56.25 9.55859 55.9688 9.24609C55.6953 8.92578 55.3125 8.76562 54.8203 8.76562C53.9688 8.76562 53.2539 9.10156 52.6758 9.77344C52.1055 10.4453 51.6797 11.4531 51.3984 12.7969L50.2852 18H45.9727L49.7812 0Z" fill="white"/>
<path d="M72.6562 10.9453C72.6562 10.0938 72.4453 9.41797 72.0234 8.91797C71.6094 8.41016 71.0508 8.15625 70.3477 8.15625C69.4414 8.15625 68.6641 8.59375 68.0156 9.46875C67.3672 10.3438 67.043 11.4102 67.043 12.668C67.043 13.4883 67.2617 14.1602 67.6992 14.6836C68.1445 15.1992 68.7148 15.457 69.4102 15.457C70.3086 15.457 71.0742 15.0234 71.707 14.1562C72.3398 13.2891 72.6562 12.2188 72.6562 10.9453ZM70.5938 5.33203C72.5859 5.33203 74.1523 5.84766 75.293 6.87891C76.4336 7.91016 77.0039 9.32812 77.0039 11.1328C77.0039 13.2969 76.2734 15.043 74.8125 16.3711C73.3516 17.6992 71.418 18.3633 69.0117 18.3633C67.043 18.3633 65.4922 17.8594 64.3594 16.8516C63.2344 15.8438 62.6719 14.4648 62.6719 12.7148C62.6719 10.4648 63.3828 8.67188 64.8047 7.33594C66.2344 6 68.1641 5.33203 70.5938 5.33203Z" fill="white"/>
<path d="M88.6641 10.9453C88.6641 10.0938 88.4531 9.41797 88.0312 8.91797C87.6172 8.41016 87.0586 8.15625 86.3555 8.15625C85.4492 8.15625 84.6719 8.59375 84.0234 9.46875C83.375 10.3438 83.0508 11.4102 83.0508 12.668C83.0508 13.4883 83.2695 14.1602 83.707 14.6836C84.1523 15.1992 84.7227 15.457 85.418 15.457C86.3164 15.457 87.082 15.0234 87.7148 14.1562C88.3477 13.2891 88.6641 12.2188 88.6641 10.9453ZM86.6016 5.33203C88.5938 5.33203 90.1602 5.84766 91.3008 6.87891C92.4414 7.91016 93.0117 9.32812 93.0117 11.1328C93.0117 13.2969 92.2812 15.043 90.8203 16.3711C89.3594 17.6992 87.4258 18.3633 85.0195 18.3633C83.0508 18.3633 81.5 17.8594 80.3672 16.8516C79.2422 15.8438 78.6797 14.4648 78.6797 12.7148C78.6797 10.4648 79.3906 8.67188 80.8125 7.33594C82.2422 6 84.1719 5.33203 86.6016 5.33203Z" fill="white"/>
<path d="M98.0977 0H102.363L98.5547 18H94.2773L98.0977 0Z" fill="white"/>
</svg>
