<svg width="171" height="31" viewBox="0 0 171 31" fill="none" xmlns="http://www.w3.org/2000/svg">
<path d="M21.1914 21.5625H6.44531C6.57552 23.0729 7.07031 24.1927 7.92969 24.9219C8.78906 25.638 10.0521 25.9961 11.7188 25.9961C12.8516 25.9961 14.0104 25.8659 15.1953 25.6055C16.3932 25.332 17.5651 24.9414 18.7109 24.4336L17.9102 29.5117C16.6862 29.9023 15.4362 30.1953 14.1602 30.3906C12.8841 30.5859 11.6016 30.6836 10.3125 30.6836C7.13542 30.6836 4.6224 29.8177 2.77344 28.0859C0.924479 26.3542 0 24.0039 0 21.0352C0 19.3685 0.332031 17.7279 0.996094 16.1133C1.66016 14.4857 2.55208 13.112 3.67188 11.9922C4.76562 10.9245 6.08073 10.1237 7.61719 9.58984C9.16667 9.04297 10.9049 8.76953 12.832 8.76953C15.6706 8.76953 17.8516 9.53776 19.375 11.0742C20.9115 12.6107 21.6797 14.7982 21.6797 17.6367C21.6797 18.2227 21.6406 18.8477 21.5625 19.5117C21.4844 20.1628 21.3607 20.8464 21.1914 21.5625ZM15.7031 17.5977C15.7422 17.3372 15.7682 17.1419 15.7812 17.0117C15.7943 16.8685 15.8008 16.7448 15.8008 16.6406C15.8008 15.4948 15.4753 14.5898 14.8242 13.9258C14.1732 13.2617 13.3008 12.9297 12.207 12.9297C11.0872 12.9297 10.0977 13.3464 9.23828 14.1797C8.37891 15 7.75391 16.1393 7.36328 17.5977H15.7031Z" fill="#4030A4"/>
<path d="M25.0195 15.8398H35.7812L34.6875 20.8789H23.9258L25.0195 15.8398Z" fill="#4030A4"/>
<path d="M56.0156 10.0781L54.4531 14.6094C53.151 14.1667 52.0898 13.8607 51.2695 13.6914C50.4622 13.5221 49.7135 13.4375 49.0234 13.4375C48.0208 13.4375 47.2331 13.6068 46.6602 13.9453C46.1003 14.2839 45.8203 14.7396 45.8203 15.3125C45.8203 16.0547 46.6797 16.7383 48.3984 17.3633C49.1016 17.6237 49.6549 17.8385 50.0586 18.0078C51.5169 18.6198 52.5781 19.3294 53.2422 20.1367C53.9193 20.944 54.2578 21.9271 54.2578 23.0859C54.2578 25.3385 53.3724 27.1484 51.6016 28.5156C49.8438 29.8828 47.487 30.5664 44.5312 30.5664C43.0729 30.5664 41.6602 30.4557 40.293 30.2344C38.9388 30.013 37.6172 29.681 36.3281 29.2383L37.8125 24.2773C38.776 24.7461 39.7331 25.0977 40.6836 25.332C41.6341 25.5664 42.5977 25.6836 43.5742 25.6836C44.7331 25.6836 45.6185 25.5273 46.2305 25.2148C46.8555 24.8893 47.168 24.4336 47.168 23.8477C47.168 22.9883 46.3672 22.2461 44.7656 21.6211C44.5052 21.5299 44.3099 21.4583 44.1797 21.4062C42.1745 20.5859 40.8138 19.7526 40.0977 18.9062C39.3815 18.0599 39.0234 16.9596 39.0234 15.6055C39.0234 13.6133 39.9154 11.9922 41.6992 10.7422C43.4831 9.47917 45.8398 8.84766 48.7695 8.84766C49.8763 8.84766 51.0286 8.95182 52.2266 9.16016C53.4245 9.35547 54.6875 9.66146 56.0156 10.0781Z" fill="#4030A4"/>
<path d="M77.3438 10.1953L75.7031 15.1562C74.9349 14.8047 74.1797 14.5378 73.4375 14.3555C72.7083 14.1732 71.9922 14.082 71.2891 14.082C69.388 14.082 67.8516 14.6289 66.6797 15.7227C65.5208 16.8034 64.9414 18.2292 64.9414 20C64.9414 21.5495 65.4167 22.7799 66.3672 23.6914C67.3307 24.5898 68.6263 25.0391 70.2539 25.0391C70.9049 25.0391 71.5625 24.9609 72.2266 24.8047C72.9036 24.6484 73.6068 24.4076 74.3359 24.082L73.4961 29.5117C72.4023 29.7982 71.3672 30.0065 70.3906 30.1367C69.4271 30.2799 68.5026 30.3516 67.6172 30.3516C64.5052 30.3516 62.0247 29.4857 60.1758 27.7539C58.3398 26.0091 57.4219 23.6914 57.4219 20.8008C57.4219 17.2201 58.6133 14.3359 60.9961 12.1484C63.3789 9.94792 66.5299 8.84766 70.4492 8.84766C71.6211 8.84766 72.7799 8.95833 73.9258 9.17969C75.0716 9.40104 76.2109 9.73958 77.3438 10.1953Z" fill="#4030A4"/>
<path d="M82.9688 0H90.1367L87.6172 11.9531C88.6589 10.9375 89.7461 10.1823 90.8789 9.6875C92.0117 9.17969 93.2161 8.92578 94.4922 8.92578C96.6276 8.92578 98.2812 9.55729 99.4531 10.8203C100.625 12.0703 101.211 13.8346 101.211 16.1133C101.211 16.8034 101.146 17.6237 101.016 18.5742C100.898 19.5247 100.71 20.599 100.449 21.7969L98.7305 30H91.543L93.7305 19.6875C93.8086 19.2969 93.8672 18.9323 93.9062 18.5938C93.9583 18.2552 93.9844 17.9362 93.9844 17.6367C93.9844 16.6732 93.75 15.931 93.2812 15.4102C92.8255 14.8763 92.1875 14.6094 91.3672 14.6094C89.9479 14.6094 88.7565 15.1693 87.793 16.2891C86.8424 17.4089 86.1328 19.0885 85.6641 21.3281L83.8086 30H76.6211L82.9688 0Z" fill="#4030A4"/>
<path d="M121.094 18.2422C121.094 16.8229 120.742 15.6966 120.039 14.8633C119.349 14.0169 118.418 13.5938 117.246 13.5938C115.736 13.5938 114.44 14.3229 113.359 15.7812C112.279 17.2396 111.738 19.0169 111.738 21.1133C111.738 22.4805 112.103 23.6003 112.832 24.4727C113.574 25.332 114.525 25.7617 115.684 25.7617C117.181 25.7617 118.457 25.0391 119.512 23.5938C120.566 22.1484 121.094 20.3646 121.094 18.2422ZM117.656 8.88672C120.977 8.88672 123.587 9.74609 125.488 11.4648C127.389 13.1836 128.34 15.5469 128.34 18.5547C128.34 22.1615 127.122 25.0716 124.688 27.2852C122.253 29.4987 119.03 30.6055 115.02 30.6055C111.738 30.6055 109.154 29.7656 107.266 28.0859C105.391 26.4062 104.453 24.1081 104.453 21.1914C104.453 17.4414 105.638 14.4531 108.008 12.2266C110.391 10 113.607 8.88672 117.656 8.88672Z" fill="#4030A4"/>
<path d="M147.773 18.2422C147.773 16.8229 147.422 15.6966 146.719 14.8633C146.029 14.0169 145.098 13.5938 143.926 13.5938C142.415 13.5938 141.12 14.3229 140.039 15.7812C138.958 17.2396 138.418 19.0169 138.418 21.1133C138.418 22.4805 138.783 23.6003 139.512 24.4727C140.254 25.332 141.204 25.7617 142.363 25.7617C143.861 25.7617 145.137 25.0391 146.191 23.5938C147.246 22.1484 147.773 20.3646 147.773 18.2422ZM144.336 8.88672C147.656 8.88672 150.267 9.74609 152.168 11.4648C154.069 13.1836 155.02 15.5469 155.02 18.5547C155.02 22.1615 153.802 25.0716 151.367 27.2852C148.932 29.4987 145.71 30.6055 141.699 30.6055C138.418 30.6055 135.833 29.7656 133.945 28.0859C132.07 26.4062 131.133 24.1081 131.133 21.1914C131.133 17.4414 132.318 14.4531 134.688 12.2266C137.07 10 140.286 8.88672 144.336 8.88672Z" fill="#4030A4"/>
<path d="M163.496 0H170.605L164.258 30H157.129L163.496 0Z" fill="#4030A4"/>
</svg>
