<svg width="56" height="56" viewBox="0 0 56 56" fill="none" xmlns="http://www.w3.org/2000/svg">
<circle cx="28" cy="28" r="28" fill="#4D3DB0"/>
<path d="M37.0802 24.58V31.42C37.0802 32.54 36.4802 33.58 35.5102 34.15L29.5702 37.58C28.6002 38.14 27.4002 38.14 26.4202 37.58L20.4802 34.15C19.5102 33.59 18.9102 32.55 18.9102 31.42V24.58C18.9102 23.46 19.5102 22.42 20.4802 21.85L26.4202 18.42C27.3902 17.86 28.5902 17.86 29.5702 18.42L35.5102 21.85C36.4802 22.42 37.0802 23.45 37.0802 24.58Z" stroke="white" stroke-width="1.5" stroke-linecap="round" stroke-linejoin="round"/>
<path d="M27.9999 27.0001C29.2867 27.0001 30.3299 25.9569 30.3299 24.67C30.3299 23.3832 29.2867 22.3401 27.9999 22.3401C26.7131 22.3401 25.6699 23.3832 25.6699 24.67C25.6699 25.9569 26.7131 27.0001 27.9999 27.0001Z" stroke="white" stroke-width="1.5" stroke-linecap="round" stroke-linejoin="round"/>
<path d="M32 32.6601C32 30.8601 30.21 29.4001 28 29.4001C25.79 29.4001 24 30.8601 24 32.6601" stroke="white" stroke-width="1.5" stroke-linecap="round" stroke-linejoin="round"/>
</svg>
