<svg width="94" height="40" viewBox="0 0 94 40" fill="none" xmlns="http://www.w3.org/2000/svg">
<path d="M84.5864 2.98788C84.5416 2.85341 84.4071 2.76375 84.2726 2.76375C84.1382 2.76375 84.0037 2.85341 83.9589 2.98788L82.121 7.3808C82.0762 7.51528 82.0762 7.60493 82.121 7.69458C82.1658 7.78423 82.3003 7.82906 82.39 7.82906C82.4348 7.82906 82.5245 7.82905 82.5693 7.78423C82.6141 7.7394 82.6589 7.69457 82.7037 7.64975L83.0624 6.75324H85.3933L85.7519 7.64975C85.7967 7.69457 85.8415 7.78423 85.8864 7.78423C85.9312 7.78423 86.0208 7.82906 86.0657 7.82906C86.2002 7.82906 86.2898 7.78423 86.3346 7.69458C86.3795 7.60493 86.4243 7.47045 86.3795 7.3808L84.5864 2.98788ZM83.3313 6.1705L84.2726 3.83957L85.214 6.1705H83.3313Z" fill="#172C51"/>
<path d="M89.5172 5.72227C89.562 5.72227 89.562 5.72228 89.6069 5.67745C89.8758 5.54297 90.0551 5.36367 90.1896 5.13955C90.3241 4.91542 90.4137 4.64646 90.4137 4.33268C90.4137 4.0189 90.3241 3.74994 90.1896 3.48099C90.0551 3.25686 89.831 3.03274 89.6069 2.89826C89.3827 2.76378 89.0689 2.67413 88.7552 2.67413H87.5897C87.5001 2.67413 87.4104 2.71896 87.3656 2.76378C87.3208 2.80861 87.2759 2.89826 87.2759 2.98791V7.42565C87.2759 7.5153 87.3208 7.60495 87.3656 7.64978C87.4104 7.6946 87.5001 7.73943 87.5897 7.73943C87.6794 7.73943 87.769 7.6946 87.8138 7.64978C87.8587 7.60495 87.9035 7.5153 87.9035 7.42565V5.81193H88.7552C88.8 5.81193 88.8448 5.81193 88.8897 5.81193L90.0103 7.60496C90.0551 7.64978 90.0999 7.6946 90.1448 7.73943C90.1896 7.78425 90.2344 7.78426 90.3241 7.78426C90.4585 7.78426 90.5482 7.73943 90.6379 7.60496C90.7275 7.47048 90.6827 7.38083 90.593 7.24635L89.5172 5.72227ZM87.9035 5.27402V3.39134H88.7552C88.9345 3.39134 89.1138 3.43617 89.2931 3.52582C89.4276 3.61547 89.562 3.70512 89.6517 3.88443C89.7413 4.0189 89.7862 4.1982 89.7862 4.3775C89.7862 4.55681 89.7413 4.69128 89.6517 4.82576C89.562 4.96024 89.4276 5.04989 89.2931 5.13955C89.1586 5.2292 88.9793 5.27402 88.7552 5.27402H87.9035Z" fill="#172C51"/>
<path d="M93.9102 5.13954C93.8205 5.09471 93.7757 5.04988 93.686 5.04988H92.7895V4.15337C92.7895 4.06371 92.7447 3.97406 92.6999 3.92924C92.655 3.88441 92.5654 3.83959 92.4757 3.83959C92.3861 3.83959 92.2964 3.88441 92.2516 3.92924C92.2068 3.97406 92.162 4.06371 92.162 4.15337V5.04988H91.2654C91.1758 5.04988 91.0861 5.09471 91.0413 5.13954C90.9965 5.18436 90.9517 5.27401 90.9517 5.36366C90.9517 5.45332 90.9965 5.54297 91.0413 5.58779C91.0861 5.63262 91.1758 5.67744 91.2654 5.67744H92.162V6.57396C92.162 6.66361 92.2068 6.75326 92.2516 6.79808C92.2964 6.84291 92.3861 6.88773 92.4757 6.88773C92.5654 6.88773 92.655 6.84291 92.6999 6.79808C92.7447 6.75326 92.7895 6.66361 92.7895 6.57396V5.67744H93.686C93.7757 5.67744 93.8653 5.63262 93.9102 5.58779C93.955 5.54297 93.9998 5.45332 93.9998 5.36366C93.9998 5.27401 93.9998 5.18436 93.9102 5.13954Z" fill="#172C51"/>
<path d="M33.5802 16.1051L33.2738 15.8787L33.5802 15.6409C34.3542 15.1016 35.0073 14.4075 35.4981 13.6029C36.0799 12.4348 36.3827 11.1481 36.3827 9.84377C36.3827 8.5394 36.0799 7.25275 35.4981 6.08467C34.8606 5.01579 33.9371 4.14539 32.8312 3.57109C31.646 2.95123 30.3219 2.64332 28.9841 2.67657H0.15918V5.02035C1.11318 4.99844 2.05865 5.20421 2.91687 5.62048C3.67643 6.00244 4.30464 6.60158 4.72126 7.34146C5.12431 8.12034 5.33464 8.98421 5.33464 9.86077C5.33464 10.7373 5.12431 11.6011 4.72126 12.38C4.30867 13.1258 3.67968 13.7297 2.91687 14.1124C2.06143 14.5377 1.11464 14.7476 0.15918 14.7238V17.1242C1.11318 17.1023 2.05865 17.308 2.91687 17.7243C3.67643 18.1063 4.30464 18.7054 4.72126 19.4453C5.12431 20.2242 5.33464 21.088 5.33464 21.9646C5.33464 22.8412 5.12431 23.705 4.72126 24.4838C4.30867 25.2296 3.67968 25.8335 2.91687 26.2162C2.06112 26.6406 1.11455 26.8505 0.15918 26.8276V29.1714H28.9841C30.3219 29.2005 31.6441 28.8804 32.8199 28.2429C33.9297 27.6598 34.8566 26.7821 35.4981 25.7067C36.0799 24.5386 36.3827 23.252 36.3827 21.9476C36.3827 20.6432 36.0799 19.3566 35.4981 18.1885C35.009 17.3857 34.3555 16.695 33.5802 16.1618V16.1051ZM6.68451 6.14127C6.4713 5.75383 6.20807 5.396 5.9015 5.07695H28.9841C29.9344 5.05597 30.8759 5.26174 31.7304 5.67707C32.4924 6.05557 33.1216 6.65558 33.5348 7.39806C33.9379 8.17694 34.1482 9.0408 34.1482 9.91737C34.1482 10.7939 33.9379 11.6577 33.5348 12.4366C33.1251 13.1846 32.4953 13.7893 31.7304 14.169C30.8787 14.5933 29.9359 14.8032 28.9841 14.7804H5.83338C6.16344 14.44 6.44939 14.0596 6.68451 13.6481C7.26633 12.4801 7.56913 11.1934 7.56913 9.88903C7.56913 8.58467 7.26633 7.29801 6.68451 6.12994V6.14127ZM33.5348 24.4725C33.1251 25.2205 32.4953 25.8252 31.7304 26.2049C30.8787 26.6292 29.9359 26.8391 28.9841 26.8163H5.86742C6.1838 26.4725 6.45809 26.0924 6.68451 25.684C7.26633 24.5159 7.56913 23.2293 7.56913 21.9249C7.56913 20.6206 7.26633 19.3339 6.68451 18.1658C6.46289 17.775 6.18789 17.4168 5.86742 17.1015H28.9841C29.9344 17.0805 30.8759 17.2863 31.7304 17.7016C32.4924 18.0801 33.1216 18.6802 33.5348 19.4227C33.9379 20.2016 34.1482 21.0654 34.1482 21.9419C34.1482 22.8185 33.9379 23.6823 33.5348 24.4612" fill="#F2B73F"/>
<path d="M69.2885 13.1225C68.5008 13.1352 67.7287 12.9027 67.0792 12.4571C66.4133 11.9911 65.8895 11.3498 65.5657 10.6044C65.1902 9.75595 65.0047 8.83568 65.0221 7.90801V2.9806H67.1705V8.25159C67.1617 8.74899 67.2534 9.24303 67.4401 9.70415C67.5944 10.0991 67.8566 10.4427 68.1968 10.6957C68.5125 10.9297 68.8956 11.0549 69.2885 11.0524C69.6868 11.0558 70.0757 10.9308 70.3974 10.6957C70.7365 10.4405 70.9996 10.0977 71.1585 9.70415C71.3523 9.24488 71.4471 8.74996 71.4369 8.25159V2.9806H73.4026V7.90801C73.4192 8.83454 73.2475 9.75482 72.8981 10.6131C72.6016 11.3523 72.1008 11.9919 71.4543 12.4571C70.8187 12.9046 70.0569 13.1377 69.2797 13.1225" fill="#172C51"/>
<path d="M75.7033 13.1225C74.9158 13.1346 74.1438 12.9022 73.494 12.4571C72.8278 11.9925 72.3051 11.3507 71.9849 10.6044C71.6079 9.75628 71.4209 8.836 71.4369 7.90801L71.4369 2.9806H73.6114V8.25159C73.6013 8.7487 73.6915 9.24273 73.8767 9.70415C74.0324 10.0983 74.2944 10.4415 74.6334 10.6957C74.9496 10.9286 75.3323 11.0536 75.725 11.0524C76.1234 11.0558 76.5123 10.9308 76.834 10.6957C77.1744 10.4408 77.439 10.098 77.5995 9.70415C77.7913 9.24429 77.886 8.74978 77.8778 8.25159V2.9806H79.8435V7.90801C79.8601 8.83454 79.6885 9.75482 79.3391 10.6131C79.0408 11.3514 78.5404 11.9905 77.8952 12.4571C77.2589 12.9032 76.4976 13.1361 75.7207 13.1225" fill="#172C51"/>
<path d="M59.1988 13.1225C58.2242 13.1388 57.2611 12.91 56.398 12.4571C55.5937 12.0348 54.9234 11.3961 54.4627 10.6131C53.9908 9.80328 53.7487 8.88006 53.7625 7.94285C53.7476 7.02099 53.9772 6.11165 54.4279 5.30735C54.8659 4.53465 55.5105 3.89918 56.2893 3.47208C57.1359 3.01198 58.0875 2.77967 59.0509 2.79796C59.9187 2.78511 60.7748 2.99951 61.5342 3.41987C62.2468 3.81091 62.837 4.39206 63.239 5.09861C63.6517 5.82731 63.862 6.65319 63.8479 7.49056C63.8479 7.69496 63.8479 7.92544 63.8218 8.1255C63.7957 8.32555 63.7783 8.5604 63.7391 8.83439H56.1458C56.2309 9.28154 56.4268 9.70021 56.7155 10.0521C57.0086 10.3966 57.3841 10.6614 57.8071 10.8219C58.2855 11.0058 58.795 11.0959 59.3075 11.0872C59.7963 11.0987 60.283 11.0191 60.7427 10.8523C61.1544 10.6846 61.5208 10.4224 61.8125 10.0869L63.2868 11.3916C62.7675 11.9546 62.1345 12.4009 61.4298 12.7008C60.725 13.0007 59.9645 13.1474 59.1988 13.1312V13.1225ZM61.5777 6.99041C61.5118 6.56246 61.3498 6.15502 61.1036 5.79879C60.8844 5.48494 60.5836 5.23683 60.2338 5.08119C59.8551 4.91776 59.446 4.83625 59.0335 4.842C58.5857 4.83851 58.1419 4.92581 57.7288 5.09861C57.3424 5.26574 57.0022 5.52387 56.7372 5.85098C56.4715 6.18438 56.2856 6.57413 56.1936 6.99041H61.5777Z" fill="#172C51"/>
<path d="M41.2548 5.59877C41.229 4.56282 41.4765 3.53837 41.9723 2.62842C42.4368 1.79878 43.1337 1.12304 43.9772 0.6844C44.8872 0.217133 45.8987 -0.0174536 46.9215 0.00160317C47.9447 -0.0218802 48.9573 0.212956 49.8658 0.6844C50.7045 1.12818 51.3987 1.80276 51.8663 2.62842C52.3669 3.53686 52.6176 4.56183 52.5926 5.59877V12.9182H50.192V5.59877C50.2083 4.95438 50.068 4.31566 49.7831 3.73741C49.5297 3.22963 49.1277 2.81097 48.6307 2.53708C48.1053 2.2568 47.5168 2.11604 46.9215 2.12827C46.3303 2.11534 45.7458 2.25621 45.2254 2.53708C44.7314 2.81361 44.3316 3.23167 44.0773 3.73741C43.7943 4.31634 43.6542 4.95458 43.6684 5.59877V12.9182H41.2548V5.59877Z" fill="#172C51"/>
<path d="M58.7247 29.2747C57.7495 29.2918 56.7859 29.0613 55.9239 28.605C55.1232 28.1758 54.4542 27.5369 53.9886 26.7567C53.5155 25.9444 53.2748 25.0176 53.2928 24.0777C53.2787 23.1589 53.518 22.2539 53.9844 21.4622C54.4509 20.6704 55.1265 20.0225 55.937 19.5895C56.7935 19.1308 57.7532 18.8987 58.7247 18.9154C59.6959 18.9014 60.6549 19.1333 61.5124 19.5895C62.3177 20.0145 62.9937 20.6484 63.4695 21.4248C63.9451 22.2206 64.1891 23.1333 64.174 24.0603C64.1954 25.0022 63.9577 25.9319 63.4869 26.748C63.0159 27.5337 62.3392 28.1759 61.5298 28.605C60.6719 29.0597 59.7129 29.2901 58.7421 29.2747H58.7247ZM58.7421 27.2046C59.2976 27.2141 59.8461 27.0793 60.3338 26.8132C60.7957 26.5559 61.1768 26.1748 61.4341 25.7129C61.7062 25.2116 61.8426 24.6479 61.8299 24.0777C61.8431 23.5102 61.7066 22.9492 61.4341 22.4512C61.1748 21.9952 60.7938 21.6203 60.3338 21.3683C59.8376 21.1095 59.2843 20.9794 58.7247 20.9899C58.1653 20.9814 57.6125 21.1114 57.1156 21.3683C56.65 21.6118 56.2648 21.9849 56.0066 22.4425C55.7369 22.9382 55.6019 23.4961 55.6152 24.0603C55.6043 24.6326 55.739 25.1982 56.0066 25.7042C56.2594 26.1747 56.6451 26.5603 57.1156 26.8132C57.6158 27.0794 58.1755 27.2141 58.7421 27.2046Z" fill="#172C51"/>
<path d="M70.7802 29.2747C69.8064 29.2917 68.8442 29.0613 67.9838 28.605C67.1812 28.1783 66.5116 27.5388 66.0484 26.7566C65.5719 25.9455 65.3295 25.0182 65.3483 24.0776C65.3341 23.1588 65.5734 22.2539 66.0399 21.4621C66.5064 20.6704 67.1819 20.0225 67.9924 19.5895C68.8492 19.1313 69.8087 18.8992 70.7802 18.9154C71.7527 18.9019 72.7129 19.1338 73.5722 19.5895C74.3754 20.0158 75.0497 20.6495 75.5249 21.4247C76.0018 22.2202 76.2473 23.1329 76.2338 24.0602C76.2486 25.0042 76.0033 25.934 75.5249 26.7479C75.0544 27.5325 74.3795 28.1745 73.5722 28.605C72.7126 29.0593 71.7524 29.2897 70.7802 29.2747ZM70.7802 27.2046C71.3357 27.2147 71.8843 27.0798 72.3719 26.8132C72.8338 26.5558 73.2148 26.1748 73.4722 25.7129C73.7458 25.212 73.8837 24.6483 73.8723 24.0776C73.8842 23.5097 73.7462 22.9487 73.4722 22.4511C73.2128 21.9952 72.8319 21.6203 72.3719 21.3682C71.8758 21.1089 71.3224 20.9788 70.7628 20.9898C70.2034 20.9819 69.6508 21.1118 69.1536 21.3682C68.6881 21.6117 68.3029 21.9848 68.0446 22.4424C67.7785 22.9394 67.6452 23.4966 67.6576 24.0602C67.6473 24.6319 67.7803 25.1971 68.0446 25.7042C68.2975 26.1746 68.6832 26.5603 69.1536 26.8132C69.6539 27.0793 70.2136 27.214 70.7802 27.2046Z" fill="#172C51"/>
<path d="M77.4037 15.6624H79.8218V29.04H77.4037V15.6624ZM79.2042 24.5692V22.66H81.0395C81.5904 22.6838 82.1378 22.5623 82.6269 22.3077C83.0303 22.0706 83.338 21.6998 83.4967 21.2596C83.6853 20.7116 83.7737 20.1341 83.7576 19.5548V19.1199H86.1757V19.5548C86.2022 20.4949 85.9833 21.4257 85.5407 22.2555C85.1385 22.9783 84.5339 23.5678 83.8011 23.9516C82.9918 24.3555 82.096 24.5556 81.1917 24.5344L79.2042 24.5692ZM84.31 28.6399C84.318 27.9678 84.1815 27.3019 83.9099 26.6871C83.6625 26.123 83.2673 25.6361 82.7661 25.2781C82.257 24.922 81.6476 24.7376 81.0265 24.7519H79.1912V22.8426H81.1874C82.1472 22.8363 83.0904 23.0936 83.9142 23.5863C84.7766 24.0994 85.4887 24.8306 85.9788 25.7063C86.4689 26.5819 86.7198 27.5712 86.7063 28.5746V29.0661H84.31V28.6399Z" fill="#172C51"/>
<path d="M51.4314 21.4161C50.9825 20.6473 50.3351 20.0134 49.557 19.5809C48.746 19.131 47.8313 18.9016 46.9041 18.9155C46.2977 18.9143 45.6958 19.0188 45.1253 19.2242C44.5903 19.422 44.0963 19.7169 43.6684 20.094V15.6668H41.2547V23.9299C41.2389 24.8984 41.4789 25.854 41.9505 26.7002C42.4051 27.5034 43.0755 28.1633 43.8859 28.6051C44.7453 29.0695 45.7099 29.3047 46.6866 29.2879C47.6675 29.3059 48.6369 29.0755 49.5048 28.6181C50.3086 28.1883 50.9761 27.542 51.4314 26.7524C51.8948 25.9365 52.132 25.0116 52.1185 24.0734C52.132 23.1462 51.8946 22.2326 51.4314 21.4292V21.4161ZM49.4135 25.726C49.1561 26.1879 48.7751 26.5689 48.3131 26.8263C47.8157 27.0833 47.2639 27.2175 46.704 27.2175C46.1441 27.2175 45.5923 27.0833 45.0949 26.8263C44.632 26.5678 44.2519 26.1833 43.9989 25.7173C43.7244 25.2136 43.5865 24.6469 43.5988 24.0734C43.5843 23.5079 43.7225 22.949 43.9989 22.4556C44.2559 22.0026 44.6359 21.6317 45.0949 21.3857C45.5842 21.1245 46.1321 20.9928 46.6866 21.003C47.2468 20.9917 47.8006 21.1234 48.2958 21.3857C48.7581 21.6357 49.142 22.009 49.4048 22.4643C49.6836 22.9603 49.8247 23.5219 49.8136 24.0908C49.825 24.6614 49.687 25.2251 49.4135 25.726Z" fill="#172C51"/>
<path d="M19.0052 39.9994C18.5497 40.0079 18.0998 39.8969 17.7005 39.6776C17.3295 39.4714 17.0191 39.1715 16.8003 38.8078C16.6321 38.5265 16.5211 38.2147 16.4738 37.8903C16.4265 37.566 16.4438 37.2355 16.5246 36.9178C16.6054 36.6002 16.7482 36.3016 16.9448 36.0393C17.1414 35.777 17.3879 35.5562 17.6701 35.3895C18.0167 35.2011 18.4006 35.0914 18.7945 35.0681C19.1883 35.0448 19.5825 35.1085 19.9489 35.2546C20.2507 35.3847 20.5251 35.5707 20.7579 35.8026L20.4143 36.1244C20.2272 35.9405 20.0074 35.793 19.7663 35.6895C19.5075 35.5815 19.2291 35.5282 18.9487 35.533C18.5972 35.5279 18.2511 35.6196 17.9484 35.7983C17.6532 35.9773 17.4102 36.2308 17.2438 36.5332C17.0714 36.8471 16.981 37.1994 16.981 37.5575C16.981 37.9155 17.0714 38.2678 17.2438 38.5816C17.411 38.8827 17.6558 39.1335 17.9527 39.3079C18.2496 39.4853 18.5898 39.5771 18.9356 39.5732C19.2181 39.576 19.4981 39.5197 19.7576 39.4079C20.0075 39.2994 20.2335 39.1427 20.423 38.9469L20.7666 39.2688C20.5465 39.4924 20.285 39.6711 19.9968 39.795C19.6782 39.9323 19.3347 40.0019 18.9878 39.9994H19.0052ZM20.2925 38.0076H20.8144V39.9298H20.2925V38.0076Z" fill="#172C51"/>
<path d="M23.289 35.5852V39.4471H26.3333V39.9212H22.7758V35.0981H26.255V35.5722L23.289 35.5852ZM23.2194 37.2248H25.9549V37.7075H23.2194V37.2248Z" fill="#172C51"/>
<path d="M28.2599 37.1682C28.2516 36.7774 28.3398 36.3905 28.5165 36.0418C28.6775 35.7325 28.9254 35.477 29.2298 35.3068C29.5558 35.1383 29.9174 35.0503 30.2844 35.0503C30.6514 35.0503 31.013 35.1383 31.339 35.3068C31.6434 35.477 31.8913 35.7325 32.0523 36.0418C32.229 36.3905 32.3172 36.7774 32.3089 37.1682V39.9298H31.7783V37.1682C31.7833 36.8678 31.7193 36.5702 31.5913 36.2984C31.4715 36.0647 31.2874 35.87 31.0607 35.7374C30.8221 35.6091 30.5554 35.542 30.2844 35.542C30.0135 35.542 29.7467 35.6091 29.5081 35.7374C29.2816 35.8689 29.0987 36.064 28.9819 36.2984C28.8539 36.5702 28.7899 36.8678 28.7949 37.1682V39.9298H28.2599V37.1682Z" fill="#172C51"/>
<path d="M34.7834 35.5852V39.4471H37.8277V39.9212H34.2703V35.0981H37.7495V35.5722L34.7834 35.5852ZM34.7139 37.2248H37.4494V37.7075H34.7139V37.2248Z" fill="#172C51"/>
<path d="M45.6777 37.1682C45.6688 36.7787 45.757 36.3931 45.9343 36.0462C46.0952 35.7357 46.343 35.4788 46.6475 35.3068C46.9724 35.1332 47.336 35.0449 47.7043 35.0503C48.0714 35.0437 48.4339 35.1321 48.7568 35.3068C49.0622 35.4776 49.3104 35.7348 49.47 36.0462C49.6473 36.3931 49.7355 36.7787 49.7266 37.1682V39.9298H49.196V37.1682C49.2042 36.8675 49.1401 36.5692 49.009 36.2984C48.8907 36.0625 48.7064 35.8661 48.4785 35.7331C48.2427 35.5993 47.9753 35.5317 47.7043 35.5373C47.432 35.5318 47.1632 35.5993 46.9258 35.7331C46.7005 35.8666 46.5191 36.0631 46.404 36.2984C46.2729 36.5692 46.2088 36.8675 46.217 37.1682V39.9298H45.6777V37.1682ZM45.9256 38.312L46.1865 37.8293H49.2787L49.5179 38.312H45.9256Z" fill="#172C51"/>
<path d="M55.5456 35.5852H51.6793V35.0981H55.5456V35.5852ZM53.3363 35.5113H53.8799V39.9299H53.3363V35.5113Z" fill="#172C51"/>
<path d="M58.0289 35.1112H57.4983V39.9299H58.0289V35.1112Z" fill="#172C51"/>
<path d="M62.4779 39.9995C62.0296 40.0056 61.5874 39.8946 61.195 39.6776C60.8245 39.4738 60.5164 39.1731 60.3034 38.8078C60.0922 38.4156 59.9816 37.9769 59.9816 37.5314C59.9816 37.0858 60.0922 36.6472 60.3034 36.255C60.5169 35.8901 60.8249 35.5896 61.195 35.3852C61.5904 35.1739 62.0318 35.0633 62.4801 35.0633C62.9284 35.0633 63.3699 35.1739 63.7653 35.3852C64.1357 35.589 64.4438 35.8897 64.6568 36.255C64.8681 36.6472 64.9786 37.0858 64.9786 37.5314C64.9786 37.9769 64.8681 38.4156 64.6568 38.8078C64.4433 39.1727 64.1353 39.4732 63.7653 39.6776C63.3664 39.8981 62.9162 40.0092 62.4606 39.9995H62.4779ZM62.4606 39.5167C62.8119 39.5231 63.1586 39.4361 63.4652 39.2645C63.7641 39.1073 64.0127 38.8692 64.1827 38.5773C64.3551 38.26 64.4421 37.9033 64.435 37.5423C64.4425 37.1826 64.3555 36.8272 64.1827 36.5116C64.022 36.2131 63.779 35.967 63.4826 35.8027C63.1752 35.6344 62.8305 35.5462 62.4801 35.5462C62.1297 35.5462 61.785 35.6344 61.4777 35.8027C61.1844 35.9698 60.9435 36.2152 60.7818 36.5116C60.6111 36.828 60.5243 37.1828 60.5296 37.5423C60.5247 37.9031 60.6115 38.2592 60.7818 38.5773C60.9448 38.8727 61.1854 39.1179 61.4777 39.2862C61.7829 39.4575 62.1281 39.5445 62.4779 39.5385" fill="#172C51"/>
<path d="M66.9313 37.1682C66.9216 36.7777 67.0083 36.3909 67.1835 36.0418C67.3461 35.7322 67.5955 35.4767 67.9011 35.3068C68.2271 35.1383 68.5888 35.0503 68.9558 35.0503C69.3228 35.0503 69.6844 35.1383 70.0104 35.3068C70.3138 35.4782 70.5614 35.7334 70.7236 36.0418C70.9004 36.3905 70.9885 36.7774 70.9802 37.1682V39.9298H70.4453V37.1682C70.451 36.8673 70.3854 36.5692 70.2539 36.2984C70.1371 36.064 69.9542 35.8689 69.7277 35.7374C69.4883 35.6091 69.2209 35.542 68.9492 35.542C68.6776 35.542 68.4102 35.6091 68.1708 35.7374C67.9446 35.8679 67.7628 36.0634 67.6489 36.2984C67.5189 36.5696 67.4548 36.8676 67.4619 37.1682V39.9298H66.9269L66.9313 37.1682Z" fill="#172C51"/>
<path d="M43.0944 39.9299L41.5244 38.2294L42.0898 38.1337L43.725 39.9299H43.0944Z" fill="#172C51"/>
<path d="M43.2814 35.8808C43.1301 35.6231 42.9103 35.4124 42.6465 35.272C42.3422 35.1129 42.0025 35.0336 41.6592 35.0415H39.7892V39.9298H40.3415V38.3685H41.4113C41.7973 38.3785 42.181 38.3074 42.5377 38.1597C42.8291 38.0382 43.0785 37.8341 43.2553 37.5726C43.4202 37.3129 43.5049 37.0104 43.4989 36.7028C43.5001 36.4144 43.4251 36.1309 43.2814 35.8808ZM42.79 37.3291C42.6725 37.5097 42.5047 37.6518 42.3072 37.7379C42.0719 37.8419 41.8164 37.8924 41.5592 37.8857H40.3415V35.5329H41.6462C41.8871 35.5276 42.1252 35.5845 42.3377 35.6982C42.528 35.7985 42.6874 35.9489 42.7987 36.1331C42.903 36.3126 42.9571 36.5169 42.9552 36.7245C42.959 36.9391 42.9017 37.1503 42.79 37.3334" fill="#172C51"/>
</svg>
