<svg width="32" height="32" viewBox="0 0 32 32" fill="none" xmlns="http://www.w3.org/2000/svg">
<mask id="mask0_1168_3623" style="mask-type:alpha" maskUnits="userSpaceOnUse" x="0" y="0" width="32" height="32">
<rect width="32" height="32" fill="#C68609"/>
</mask>
<g mask="url(#mask0_1168_3623)">
<path d="M14.668 22.6667H17.3346V14.6667H14.668V22.6667ZM16.0013 12C16.3791 12 16.696 11.872 16.952 11.616C17.2071 11.3609 17.3346 11.0444 17.3346 10.6667C17.3346 10.2889 17.2071 9.97199 16.952 9.71599C16.696 9.46088 16.3791 9.33332 16.0013 9.33332C15.6235 9.33332 15.3071 9.46088 15.052 9.71599C14.796 9.97199 14.668 10.2889 14.668 10.6667C14.668 11.0444 14.796 11.3609 15.052 11.616C15.3071 11.872 15.6235 12 16.0013 12ZM16.0013 29.3333C14.1569 29.3333 12.4235 28.9831 10.8013 28.2827C9.17908 27.5831 7.76797 26.6333 6.56797 25.4333C5.36797 24.2333 4.41819 22.8222 3.71864 21.2C3.01819 19.5778 2.66797 17.8444 2.66797 16C2.66797 14.1555 3.01819 12.4222 3.71864 10.8C4.41819 9.17777 5.36797 7.76666 6.56797 6.56666C7.76797 5.36666 9.17908 4.41643 10.8013 3.71599C12.4235 3.01643 14.1569 2.66666 16.0013 2.66666C17.8457 2.66666 19.5791 3.01643 21.2013 3.71599C22.8235 4.41643 24.2346 5.36666 25.4346 6.56666C26.6346 7.76666 27.5844 9.17777 28.284 10.8C28.9844 12.4222 29.3346 14.1555 29.3346 16C29.3346 17.8444 28.9844 19.5778 28.284 21.2C27.5844 22.8222 26.6346 24.2333 25.4346 25.4333C24.2346 26.6333 22.8235 27.5831 21.2013 28.2827C19.5791 28.9831 17.8457 29.3333 16.0013 29.3333ZM16.0013 26.6667C18.9791 26.6667 21.5013 25.6333 23.568 23.5667C25.6346 21.5 26.668 18.9778 26.668 16C26.668 13.0222 25.6346 10.5 23.568 8.43332C21.5013 6.36666 18.9791 5.33332 16.0013 5.33332C13.0235 5.33332 10.5013 6.36666 8.43463 8.43332C6.36797 10.5 5.33464 13.0222 5.33464 16C5.33464 18.9778 6.36797 21.5 8.43463 23.5667C10.5013 25.6333 13.0235 26.6667 16.0013 26.6667Z" fill="#C68609"/>
</g>
</svg>
