<svg width="1419" height="357" viewBox="0 0 1419 357" fill="none" xmlns="http://www.w3.org/2000/svg">
<path d="M987.244 151.714C987.239 150.68 986.927 149.671 986.348 148.814C985.77 147.957 984.95 147.291 983.993 146.899C983.037 146.507 981.985 146.407 980.972 146.613C979.958 146.818 979.028 147.319 978.299 148.052C977.57 148.785 977.074 149.718 976.874 150.732C976.675 151.747 976.78 152.798 977.177 153.752C977.574 154.707 978.245 155.523 979.105 156.097C979.965 156.671 980.976 156.977 982.01 156.977C982.699 156.975 983.381 156.838 984.017 156.572C984.653 156.307 985.231 155.919 985.717 155.43C986.203 154.941 986.588 154.361 986.85 153.724C987.112 153.086 987.246 152.404 987.244 151.714" fill="#5A4ABF"/>
<path d="M923.608 245.149C912.322 245.183 901.211 242.35 891.319 236.917C881.427 231.483 873.076 223.627 867.05 214.084C861.024 204.541 857.52 193.623 856.867 182.356C856.213 171.089 858.432 159.84 863.314 149.664C868.197 139.488 875.583 130.719 884.781 124.179C893.979 117.638 904.688 113.54 915.902 112.27C927.117 110.999 938.471 112.597 948.899 116.914C959.327 121.231 968.489 128.125 975.524 136.95C975.703 137.175 975.836 137.434 975.916 137.71C975.996 137.987 976.02 138.276 975.987 138.562C975.955 138.848 975.867 139.125 975.727 139.377C975.588 139.628 975.401 139.85 975.175 140.03C974.95 140.209 974.692 140.342 974.416 140.422C974.139 140.501 973.85 140.526 973.564 140.493C973.278 140.461 973.001 140.372 972.749 140.233C972.497 140.094 972.275 139.906 972.096 139.681C963.654 129.061 951.975 121.487 938.835 118.112C925.695 114.736 911.812 115.743 899.296 120.98C886.781 126.217 876.318 135.397 869.497 147.125C862.676 158.852 859.871 172.486 861.509 185.954C863.146 199.422 869.136 211.987 878.567 221.739C887.999 231.491 900.357 237.896 913.763 239.982C927.168 242.068 940.888 239.72 952.837 233.294C964.786 226.869 974.31 216.718 979.962 204.384C980.081 204.122 980.251 203.885 980.462 203.689C980.673 203.492 980.921 203.338 981.191 203.237C981.461 203.136 981.748 203.09 982.036 203.1C982.325 203.11 982.608 203.176 982.87 203.296C983.133 203.415 983.369 203.585 983.566 203.796C983.763 204.007 983.916 204.255 984.017 204.525C984.118 204.795 984.165 205.082 984.155 205.371C984.145 205.659 984.078 205.942 983.958 206.205C978.672 217.793 970.172 227.621 959.467 234.524C948.762 241.427 936.302 245.114 923.565 245.149" fill="#5A4ABF"/>
<path d="M882.659 249.899C879.574 249.89 876.504 250.321 873.542 251.179C868.805 252.602 863.827 256.044 864.055 260.482C864.239 261.876 864.783 263.198 865.633 264.318C866.484 265.438 867.611 266.317 868.905 266.868C871.9 268.111 875.142 268.647 878.378 268.433C881.14 268.482 883.893 268.108 886.542 267.323C890.929 265.618 894.673 262.584 897.252 258.647C898.182 257.319 899.023 255.932 899.77 254.494C894.584 251.486 888.696 249.902 882.702 249.899H882.659ZM917.933 279.271C917.42 279.272 916.922 279.091 916.529 278.76C916.136 278.43 915.873 277.971 915.786 277.464C914.265 269.383 909.888 262.118 903.454 256.997C902.693 258.445 901.837 259.842 900.893 261.179C897.79 265.928 893.25 269.561 887.936 271.548C884.859 272.491 881.653 272.947 878.435 272.899C874.508 273.126 870.583 272.434 866.97 270.879C864.975 269.984 863.25 268.58 861.969 266.807C860.688 265.034 859.897 262.956 859.674 260.78C859.318 253.91 865.761 248.918 872.318 247.026C877.181 245.658 882.266 245.263 887.282 245.864C892.297 246.464 897.145 248.048 901.548 250.525C906.185 238.136 904.393 223.742 901.747 212.947C900.325 207.257 898.49 201.44 896.726 195.878C893.554 185.922 890.283 175.667 889.145 165.028C886.784 143.009 890.126 131.417 903.454 115.43C903.831 114.983 904.37 114.704 904.953 114.655C905.536 114.605 906.115 114.79 906.562 115.167C907.009 115.544 907.287 116.084 907.337 116.666C907.386 117.249 907.202 117.828 906.825 118.275C894.265 133.338 891.278 143.735 893.511 164.587C894.607 174.785 897.779 184.841 900.908 194.57C902.7 200.259 904.563 206.062 906.014 211.937C908.859 223.643 910.765 239.388 905.303 253.028C913.013 258.835 918.278 267.311 920.067 276.796C920.118 277.08 920.113 277.371 920.051 277.653C919.989 277.935 919.872 278.202 919.707 278.439C919.542 278.675 919.331 278.877 919.088 279.032C918.845 279.187 918.573 279.292 918.289 279.342C918.157 279.357 918.023 279.357 917.891 279.342" fill="#5A4ABF"/>
<path d="M1168.58 300.222C1166.1 300.916 1163.48 300.916 1161 300.222C1153.89 298.359 1152.79 291.688 1153.26 288.317C1153.28 288.181 1153.31 288.048 1153.36 287.919L1180.39 208.993C1180.46 208.783 1180.56 208.586 1180.7 208.409L1200.68 181.086C1200.95 180.723 1201.32 180.451 1201.74 180.305C1202.17 180.16 1202.63 180.149 1203.06 180.273C1203.49 180.397 1203.87 180.651 1204.15 181C1204.44 181.349 1204.61 181.776 1204.64 182.224L1207.11 216.474C1207.13 216.806 1207.08 217.138 1206.95 217.446C1206.83 217.753 1206.63 218.029 1206.39 218.252C1206.14 218.477 1205.85 218.643 1205.52 218.737C1205.2 218.83 1204.87 218.849 1204.54 218.793L1190.71 216.36C1190.21 216.194 1189.79 215.854 1189.52 215.403C1189.26 214.952 1189.16 214.419 1189.25 213.902C1189.34 213.385 1189.62 212.918 1190.02 212.586C1190.43 212.254 1190.94 212.079 1191.47 212.093L1202.53 214.028L1200.7 188.568L1184.44 210.785L1157.56 289.171C1157.33 290.668 1157.67 292.196 1158.5 293.461C1159.33 294.727 1160.6 295.64 1162.07 296.026C1167.67 297.449 1169.99 294.704 1170.5 293.95L1190.98 234.396C1191.17 233.845 1191.57 233.392 1192.09 233.136C1192.62 232.88 1193.22 232.842 1193.77 233.03C1194.32 233.219 1194.77 233.619 1195.03 234.142C1195.29 234.664 1195.32 235.267 1195.14 235.818L1174.57 295.557C1174.52 295.673 1174.47 295.787 1174.41 295.898C1173.07 298.034 1170.98 299.595 1168.55 300.279" fill="#5A4ABF"/>
<path d="M1285.27 287.904C1284.81 287.901 1284.37 287.757 1283.99 287.492C1283.52 287.15 1283.2 286.634 1283.11 286.059C1283.01 285.483 1283.15 284.893 1283.49 284.42C1310.12 247.623 1320.39 210.585 1312.41 180.118C1307.32 160.632 1295.06 145.143 1278.78 137.647C1261.25 129.568 1239.87 126.567 1216.97 128.985C1201.07 130.663 1189.23 133.522 1175.52 136.822C1170.93 137.931 1166.12 139.098 1160.87 140.278C1141.4 144.688 1117.22 134.475 1104.63 116.554C1096.1 104.321 1085.46 77.8512 1110.98 37.9116C1111.29 37.4212 1111.78 37.0752 1112.35 36.9498C1112.92 36.8245 1113.51 36.93 1114.01 37.2431C1114.5 37.5562 1114.84 38.0513 1114.97 38.6194C1115.09 39.1876 1114.99 39.7823 1114.67 40.2727C1096.78 68.2789 1094.49 94.4643 1108.23 114.022C1121.47 132.896 1144.74 139.425 1159.9 135.997C1165.12 134.817 1169.86 133.664 1174.48 132.555C1188.35 129.212 1200.33 126.325 1216.5 124.618C1240.2 122.115 1262.37 125.244 1280.62 133.664C1298.09 141.715 1311.23 158.243 1316.66 179.009C1324.98 210.77 1314.47 249.117 1287.05 286.994C1286.85 287.277 1286.58 287.507 1286.27 287.665C1285.96 287.824 1285.62 287.906 1285.27 287.904" fill="#5A4ABF"/>
<path d="M1066.73 164.715C1066.73 167.339 1065.95 169.905 1064.49 172.088C1063.03 174.27 1060.96 175.971 1058.53 176.975C1056.11 177.98 1053.44 178.242 1050.87 177.73C1048.29 177.218 1045.93 175.954 1044.07 174.098C1042.22 172.243 1040.95 169.878 1040.44 167.304C1039.93 164.729 1040.19 162.061 1041.19 159.636C1042.2 157.211 1043.9 155.139 1046.08 153.681C1048.26 152.223 1050.83 151.444 1053.46 151.444C1056.97 151.444 1060.35 152.842 1062.84 155.331C1065.33 157.82 1066.73 161.195 1066.73 164.715V164.715ZM1024.06 164.715C1024.05 170.52 1025.77 176.195 1028.99 181.022C1032.22 185.85 1036.8 189.613 1042.16 191.836C1047.52 194.058 1053.43 194.641 1059.12 193.509C1064.81 192.377 1070.04 189.582 1074.15 185.478C1078.25 181.373 1081.05 176.143 1082.18 170.45C1083.31 164.757 1082.73 158.856 1080.51 153.493C1078.28 148.131 1074.52 143.548 1069.69 140.325C1064.86 137.102 1059.19 135.383 1053.38 135.386C1045.61 135.393 1038.15 138.486 1032.65 143.984C1027.16 149.483 1024.06 156.939 1024.06 164.715" fill="#5A4ABF"/>
<path d="M147.559 45.9766C147.788 46.2853 147.911 46.6593 147.911 47.0434C147.911 47.4275 147.788 47.8015 147.559 48.1101C142.524 54.8379 137.773 67.5253 136.436 71.2519C136.35 71.4919 136.215 71.711 136.038 71.8949C135.862 72.0787 135.648 72.2231 135.412 72.3186C135.187 72.4125 134.945 72.4609 134.701 72.4609C134.457 72.4609 134.215 72.4125 133.99 72.3186C126.398 68.4641 119.798 62.9105 114.703 56.0896C114.531 55.9061 114.4 55.6886 114.318 55.4511C114.236 55.2137 114.204 54.9616 114.226 54.7113C114.247 54.4609 114.321 54.218 114.443 53.9981C114.565 53.7782 114.731 53.5863 114.932 53.4349C115.132 53.2835 115.362 53.176 115.607 53.1193C115.852 53.0626 116.106 53.0579 116.352 53.1057C116.599 53.1535 116.833 53.2527 117.039 53.3967C117.245 53.5408 117.418 53.7265 117.547 53.9418C121.911 59.7687 127.45 64.6144 133.805 68.1654C135.753 62.9311 140.063 52.2208 144.714 46.0193C144.856 45.8301 145.033 45.6706 145.237 45.5502C145.44 45.4298 145.665 45.3508 145.899 45.3178C146.133 45.2847 146.371 45.2983 146.6 45.3576C146.829 45.417 147.044 45.5211 147.232 45.6637C147.377 45.7733 147.506 45.9026 147.616 46.0478" fill="#5A4ABF"/>
<path d="M179.178 232.106C164.954 232.106 142.111 217.256 111.004 187.885C110.608 187.502 110.368 186.986 110.332 186.437C110.295 185.887 110.464 185.344 110.805 184.912L129.523 161.699C129.878 161.262 130.387 160.977 130.946 160.903C131.236 160.87 131.529 160.898 131.808 160.984C132.087 161.069 132.345 161.211 132.567 161.401L170.217 193.204L177.087 174.23C177.311 173.731 177.713 173.334 178.215 173.117C178.717 172.9 179.282 172.878 179.799 173.056C180.316 173.235 180.748 173.6 181.009 174.08C181.271 174.561 181.343 175.122 181.212 175.653L173.261 197.585C173.156 197.919 172.971 198.223 172.724 198.471C172.476 198.718 172.172 198.902 171.838 199.008C171.498 199.097 171.14 199.104 170.796 199.028C170.452 198.951 170.132 198.793 169.861 198.567L131.529 166.18L115.499 186.093C155.993 224.069 174.242 229.517 182.35 227.341C187.356 225.99 188.693 221.523 189.348 219.376C189.461 218.923 189.623 218.484 189.831 218.067C191.68 214.796 203.713 178.497 215.135 140.791C230.624 89.5859 235.659 66.8283 235.318 62.3195C234.177 62.0635 232.991 62.0876 231.862 62.3898C230.732 62.692 229.693 63.2632 228.832 64.0547C212.888 76.6163 197.655 90.0546 183.203 104.307C173.46 113.766 163.375 123.552 143.903 139.994C120.307 159.907 109.354 149.083 68.5187 108.702C63.7538 103.98 58.5622 98.8454 52.8728 93.284C52.4579 92.8766 52.2217 92.3211 52.2164 91.7396C52.2111 91.1581 52.437 90.5983 52.8444 90.1833C53.2518 89.7684 53.8073 89.5322 54.3888 89.5269C54.9703 89.5216 55.5301 89.7474 55.9451 90.1548C61.6345 95.7162 66.8261 100.865 71.591 105.587C113.75 147.092 121.203 153.492 141.172 136.637C160.516 120.28 170.544 110.551 180.245 101.079C194.8 86.7349 210.138 73.2066 226.187 60.5557C229.927 57.5545 234.209 56.8149 237.964 58.5217C238.342 58.6975 238.677 58.9543 238.945 59.2738C239.212 59.5933 239.407 59.9679 239.514 60.3709C241.107 65.2495 234.365 92.6582 219.487 141.815C208.507 178.113 195.99 216.19 193.757 220.158C193.732 220.299 193.694 220.437 193.643 220.57C192.918 223.031 190.955 229.531 183.573 231.508C182.152 231.876 180.688 232.058 179.22 232.049" fill="#5A4ABF"/>
<path d="M198.195 157.076C197.993 157.076 197.792 157.047 197.597 156.991L184.014 153.222C183.448 153.065 182.968 152.69 182.678 152.18C182.389 151.669 182.314 151.064 182.471 150.498C182.627 149.932 183.002 149.452 183.513 149.162C184.024 148.873 184.629 148.798 185.195 148.955L198.778 152.738C199.263 152.899 199.677 153.225 199.948 153.659C200.218 154.093 200.328 154.607 200.259 155.114C200.19 155.621 199.946 156.087 199.569 156.433C199.192 156.778 198.706 156.981 198.195 157.005" fill="#5A4ABF"/>
<path d="M204.111 138.202C203.909 138.201 203.708 138.173 203.514 138.117L190.556 134.504C190.276 134.427 190.014 134.296 189.784 134.118C189.555 133.94 189.363 133.719 189.219 133.467C189.075 133.214 188.982 132.936 188.945 132.648C188.909 132.36 188.929 132.067 189.006 131.787C189.083 131.507 189.214 131.245 189.392 131.015C189.57 130.785 189.791 130.593 190.043 130.449C190.296 130.305 190.574 130.212 190.862 130.176C191.15 130.139 191.443 130.16 191.723 130.237L204.723 133.849C205.208 134.01 205.622 134.336 205.893 134.77C206.163 135.204 206.273 135.719 206.204 136.225C206.135 136.732 205.891 137.198 205.514 137.544C205.137 137.889 204.651 138.092 204.14 138.117" fill="#5A4ABF"/>
<path d="M702.882 128.558C702.885 130.215 702.396 131.837 701.477 133.216C700.559 134.596 699.251 135.672 697.721 136.308C696.19 136.944 694.505 137.112 692.879 136.791C691.253 136.469 689.759 135.672 688.586 134.501C687.413 133.33 686.614 131.837 686.289 130.212C685.965 128.586 686.13 126.901 686.764 125.37C687.397 123.838 688.471 122.529 689.849 121.607C691.227 120.686 692.847 120.195 694.505 120.195C696.724 120.195 698.853 121.075 700.424 122.643C701.994 124.211 702.879 126.338 702.882 128.558V128.558ZM676 128.558C676 132.215 677.084 135.79 679.116 138.831C681.148 141.871 684.036 144.241 687.415 145.641C690.793 147.04 694.511 147.407 698.098 146.693C701.685 145.98 704.979 144.219 707.565 141.633C710.151 139.047 711.912 135.752 712.626 132.165C713.339 128.578 712.973 124.861 711.574 121.482C710.174 118.103 707.804 115.215 704.763 113.184C701.723 111.152 698.148 110.067 694.491 110.067C689.587 110.067 684.883 112.015 681.416 115.483C677.948 118.951 676 123.654 676 128.558Z" fill="#5A4ABF"/>
<path d="M278.5 243.257C275.512 243.277 272.528 243.035 269.582 242.531C267.708 242.315 265.926 241.603 264.419 240.469C260.55 237.226 261.005 231.28 262.997 227.113C271.673 209.575 289.467 181.228 292.496 176.42C291.956 173.035 289.652 159.352 284.972 141.658C284.823 141.092 284.905 140.49 285.2 139.985C285.494 139.479 285.978 139.112 286.544 138.963C287.11 138.814 287.711 138.896 288.217 139.19C288.722 139.485 289.09 139.969 289.239 140.534C294.63 161.073 296.962 176.406 296.991 176.563C297.062 177.088 296.946 177.622 296.664 178.07C296.465 178.383 276.296 210.144 266.951 229.062C265.628 231.75 265.258 235.476 267.193 237.098C268.122 237.712 269.186 238.092 270.293 238.207C278.401 239.63 287.02 238.478 294.473 237.297C316.906 233.832 339.122 229.083 361.011 223.073C364.738 222.007 368.663 220.528 369.702 217.626C368.478 213.814 350.329 199.334 338.268 189.705C331.056 184.016 324.243 178.511 319.606 174.415C319.259 174.107 319.016 173.7 318.909 173.249L314.642 154.758C314.567 154.474 314.55 154.178 314.591 153.887C314.633 153.596 314.732 153.317 314.884 153.065C315.036 152.814 315.237 152.595 315.474 152.423C315.712 152.251 315.982 152.128 316.269 152.062C316.555 151.996 316.851 151.989 317.141 152.04C317.43 152.091 317.706 152.2 317.952 152.36C318.199 152.52 318.41 152.727 318.575 152.971C318.739 153.214 318.853 153.488 318.909 153.776L323.02 171.627C327.571 175.61 334.1 180.815 340.984 186.306C367.212 207.243 375.121 214.426 373.983 218.636C372.56 223.756 367.198 225.904 362.192 227.341C340.154 233.402 317.786 238.189 295.199 241.678C289.684 242.658 284.1 243.2 278.5 243.299" fill="#5A4ABF"/>
<path d="M320.545 121.532C320.273 121.532 320.001 121.561 319.734 121.617L278.173 129.639C277.614 129.746 277.082 129.963 276.608 130.278C276.134 130.593 275.728 131 275.414 131.474C274.772 132.425 274.532 133.59 274.745 134.717L275.143 136.751C275.367 137.876 276.026 138.868 276.977 139.51C277.928 140.152 279.094 140.392 280.221 140.179L321.768 132.157C322.331 132.057 322.867 131.845 323.346 131.533C323.825 131.222 324.237 130.817 324.557 130.344C324.876 129.87 325.098 129.337 325.208 128.776C325.317 128.215 325.314 127.638 325.196 127.079L324.798 125.045C324.693 124.487 324.478 123.956 324.166 123.482C323.853 123.008 323.449 122.602 322.977 122.286C322.26 121.797 321.413 121.534 320.545 121.532ZM279.396 144.674C277.37 144.663 275.41 143.947 273.853 142.65C272.296 141.352 271.239 139.553 270.862 137.562L270.464 135.514C270.034 133.244 270.519 130.896 271.815 128.982C273.11 127.069 275.109 125.746 277.377 125.301L318.924 117.265C320.054 117.061 321.214 117.081 322.336 117.325C323.459 117.569 324.523 118.032 325.466 118.687C326.42 119.321 327.236 120.14 327.866 121.095C328.497 122.05 328.929 123.123 329.136 124.249L329.534 126.297C329.968 128.567 329.484 130.917 328.189 132.832C326.893 134.746 324.891 136.069 322.622 136.509L281.075 144.546C280.53 144.646 279.978 144.699 279.425 144.702" fill="#5A4ABF"/>
<path d="M763.509 209.419C767.338 209.609 771.145 210.123 774.887 210.955C782.643 212.39 789.606 216.615 794.459 222.832C799.15 229.665 800.974 238.067 799.537 246.23C798.456 253.27 795.469 260.368 790.391 267.949C790.217 268.209 789.994 268.432 789.734 268.605C789.475 268.778 789.183 268.899 788.877 268.96C788.57 269.02 788.255 269.02 787.949 268.959C787.642 268.898 787.351 268.777 787.091 268.603C786.832 268.43 786.609 268.207 786.435 267.947C786.262 267.687 786.141 267.395 786.081 267.089C786.02 266.783 786.02 266.467 786.081 266.161C786.142 265.854 786.263 265.563 786.437 265.303C791.117 258.32 793.862 251.848 794.829 245.519C796.075 238.578 794.542 231.426 790.562 225.606C786.398 220.333 780.448 216.766 773.835 215.578C761.219 212.904 751.177 213.06 743.212 222.533C738.233 228.45 737.224 237.44 737.935 243.869C738.646 250.298 741.576 255.575 745.815 258.391C750.466 261.492 756.966 261.079 760.294 257.481C760.593 257.153 760.877 256.798 761.162 256.442C762.215 254.795 763.775 253.536 765.608 252.856C767.441 252.176 769.445 252.112 771.317 252.673C772.057 252.784 772.803 252.85 773.55 252.872C777.462 252.872 784.133 251.848 784.929 244.452C784.962 244.141 785.056 243.839 785.205 243.565C785.354 243.29 785.556 243.047 785.799 242.85C786.042 242.653 786.321 242.506 786.621 242.418C786.921 242.329 787.235 242.3 787.546 242.333C787.857 242.365 788.159 242.459 788.434 242.608C788.709 242.757 788.951 242.959 789.148 243.202C789.345 243.445 789.492 243.725 789.581 244.024C789.669 244.324 789.698 244.639 789.666 244.95C788.798 252.972 782.767 257.751 773.522 257.637C772.57 257.611 771.62 257.53 770.677 257.395C769.622 256.938 768.433 256.896 767.347 257.275C766.262 257.655 765.358 258.429 764.817 259.443C764.462 259.884 764.12 260.311 763.75 260.709C758.815 266.043 749.769 266.768 743.126 262.359C737.65 258.732 734.023 252.175 733.17 244.395C732.103 234.78 734.478 225.449 739.528 219.447C746.483 211.197 755.003 209.064 763.48 209.362" fill="#5A4ABF"/>
<path d="M1352.59 188.652C1352.31 184.829 1352.35 180.988 1352.71 177.171C1353.18 169.297 1356.51 161.866 1362.08 156.283C1368.28 150.783 1376.39 147.937 1384.67 148.355C1391.79 148.558 1399.2 150.646 1407.35 154.749C1407.63 154.889 1407.88 155.083 1408.09 155.32C1408.29 155.556 1408.45 155.831 1408.54 156.127C1408.64 156.424 1408.68 156.737 1408.66 157.048C1408.63 157.36 1408.55 157.664 1408.41 157.943C1408.27 158.222 1408.08 158.471 1407.84 158.675C1407.6 158.879 1407.33 159.035 1407.03 159.133C1406.74 159.231 1406.42 159.27 1406.11 159.247C1405.8 159.224 1405.5 159.14 1405.22 159C1397.71 155.218 1390.95 153.293 1384.55 153.115C1377.51 152.735 1370.6 155.139 1365.31 159.808C1360.59 164.591 1357.79 170.935 1357.43 177.645C1356.33 190.494 1357.73 200.44 1368.11 207.175C1374.6 211.384 1383.64 211.277 1389.93 209.777C1396.23 208.278 1401.1 204.719 1403.37 200.165C1405.87 195.166 1404.66 188.767 1400.68 185.908C1400.32 185.652 1399.93 185.414 1399.54 185.176C1397.78 184.334 1396.34 182.941 1395.44 181.206C1394.53 179.471 1394.22 177.49 1394.55 175.563C1394.57 174.815 1394.54 174.067 1394.47 173.322C1393.99 169.441 1392.15 162.947 1384.71 163.07C1384.4 163.076 1384.09 163.02 1383.8 162.906C1383.5 162.792 1383.24 162.622 1383.01 162.405C1382.79 162.188 1382.61 161.929 1382.48 161.642C1382.36 161.356 1382.29 161.047 1382.28 160.735C1382.28 160.422 1382.33 160.111 1382.45 159.82C1382.56 159.529 1382.73 159.263 1382.95 159.038C1383.17 158.813 1383.43 158.632 1383.71 158.507C1384 158.382 1384.31 158.314 1384.62 158.309C1392.69 158.179 1398.17 163.574 1399.2 172.762C1399.29 173.71 1399.33 174.663 1399.31 175.615C1398.99 176.719 1399.1 177.904 1399.61 178.934C1400.12 179.965 1401 180.766 1402.07 181.177C1402.55 181.476 1403.02 181.762 1403.46 182.08C1409.36 186.319 1411.2 195.206 1407.64 202.342C1404.72 208.224 1398.66 212.633 1391.04 214.441C1381.63 216.686 1372.08 215.481 1365.5 211.212C1356.46 205.328 1353.29 197.137 1352.54 188.687" fill="#5A4ABF"/>
<path d="M297.859 105.829C297.726 104.473 297.193 103.187 296.327 102.134C295.462 101.082 294.303 100.31 292.997 99.9181C291.692 99.5261 290.3 99.5312 288.997 99.9327C287.695 100.334 286.542 101.114 285.684 102.173C284.826 103.232 284.302 104.522 284.179 105.879C284.057 107.237 284.34 108.6 284.994 109.795C285.649 110.991 286.644 111.965 287.853 112.593C289.062 113.222 290.431 113.477 291.785 113.325C293.584 113.135 295.234 112.239 296.373 110.834C297.511 109.428 298.046 107.628 297.859 105.829Z" fill="#5A4ABF"/>
<path d="M297.091 74.5518C296.854 72.1581 295.91 69.8889 294.38 68.0327C292.851 66.1764 290.803 64.8167 288.499 64.1266C286.195 63.4364 283.737 63.4468 281.439 64.1564C279.14 64.8661 277.105 66.2429 275.59 68.1121C274.076 69.9812 273.152 72.2582 272.935 74.6539C272.718 77.0496 273.218 79.4558 274.371 81.5667C275.524 83.6776 277.279 85.398 279.413 86.5093C281.546 87.6207 283.962 88.0728 286.353 87.8082C287.928 87.6431 289.456 87.1693 290.848 86.4137C292.241 85.6581 293.471 84.6356 294.468 83.4045C295.465 82.1735 296.21 80.7581 296.66 79.2391C297.11 77.7202 297.257 76.1274 297.091 74.5518" fill="#5A4ABF"/>
<path d="M279.667 95.4744C279.574 94.56 279.211 93.6939 278.625 92.9861C278.038 92.2783 277.255 91.7607 276.374 91.4991C275.493 91.2375 274.554 91.2436 273.676 91.5166C272.799 91.7897 272.022 92.3174 271.445 93.0327C270.868 93.7481 270.516 94.6188 270.435 95.5343C270.354 96.4498 270.547 97.3688 270.989 98.1745C271.431 98.9803 272.102 99.6365 272.918 100.06C273.734 100.483 274.657 100.655 275.571 100.552C276.173 100.488 276.757 100.306 277.289 100.016C277.822 99.7265 278.291 99.3345 278.672 98.8629C279.052 98.3912 279.336 97.8491 279.507 97.2677C279.678 96.6862 279.732 96.0769 279.667 95.4744" fill="#5A4ABF"/>
<path d="M463.648 253.569C463.435 251.82 461.927 249.387 459.31 246.656C458.209 245.546 456.886 244.679 455.428 244.113C453.97 243.547 452.409 243.294 450.847 243.371C444.404 243.371 436.851 246.784 431.02 250.483C444.66 258.462 460.164 259.216 463.222 255.39C463.411 255.133 463.547 254.841 463.62 254.53C463.693 254.22 463.703 253.898 463.648 253.583V253.569ZM410.723 277.578C409.713 269.357 412.941 260.211 419.57 253.398C420.574 252.393 421.633 251.443 422.741 250.554C408.973 239.772 405.204 224.553 412.458 208.039C412.559 207.726 412.724 207.438 412.944 207.193C413.164 206.948 413.432 206.752 413.733 206.617C414.033 206.483 414.358 206.413 414.687 206.412C415.017 206.412 415.342 206.48 415.643 206.614C415.944 206.747 416.213 206.942 416.434 207.186C416.654 207.431 416.821 207.719 416.923 208.031C417.025 208.344 417.06 208.675 417.026 209.002C416.992 209.33 416.889 209.646 416.725 209.931C408.305 229.105 417.934 241.223 426.681 247.624C433.537 242.958 442.825 238.62 450.861 238.663C453.057 238.589 455.243 238.971 457.283 239.787C459.322 240.602 461.17 241.832 462.71 243.399C469.978 250.98 468.996 255.703 466.891 258.32C461.515 265.033 442.555 262.985 427.876 254.053C427.506 253.839 427.151 253.612 426.781 253.37C425.426 254.384 424.143 255.492 422.941 256.684C417.251 262.544 412.984 272.458 416.497 281.333C418.162 285.6 421.547 289.469 426.838 293.338C434.703 299.027 444.02 302.967 453.038 306.737C455.256 307.661 457.475 308.586 459.68 309.581C481.015 318.812 496.263 328.911 507.628 341.357C522.064 357.173 529.318 376.731 527.54 395.022C526.576 405.139 522.085 414.594 514.853 421.734C514.411 422.151 513.824 422.381 513.216 422.377C512.608 422.372 512.026 422.133 511.589 421.71C511.153 421.286 510.897 420.711 510.874 420.103C510.852 419.496 511.064 418.903 511.468 418.448C517.993 412.098 522.029 403.621 522.847 394.553C524.525 377.584 517.726 359.349 504.185 344.514C493.276 332.581 478.583 322.838 457.845 313.877C455.655 312.938 453.45 312.028 451.26 311.032C441.986 307.163 432.399 303.166 424.078 297.093C418.062 292.684 414.122 288.09 412.145 283.026C411.442 281.248 410.964 279.389 410.723 277.493" fill="#5A4ABF"/>
<path d="M1355.95 59.119C1357.64 59.6311 1360.47 59.2471 1364.03 57.9669C1365.49 57.411 1366.82 56.554 1367.93 55.4513C1369.04 54.3487 1369.9 53.0251 1370.47 51.5664C1373.13 45.692 1373.04 37.3428 1372.05 30.5582C1359.25 39.7892 1352.22 53.6429 1354.47 57.9953C1354.78 58.5411 1355.29 58.9445 1355.89 59.119H1355.95ZM1355.51 1.01587C1363.43 3.43387 1370.46 10.0905 1374 18.9091C1374.52 20.237 1374.96 21.5954 1375.32 22.977C1390.78 14.7843 1406.21 17.5152 1418.35 30.871C1418.56 31.0972 1418.73 31.3645 1418.84 31.6573C1418.96 31.9501 1419.01 32.2624 1419 32.5758C1418.99 32.8892 1418.92 33.1973 1418.78 33.4819C1418.65 33.7665 1418.46 34.0218 1418.23 34.2328C1418 34.4438 1417.73 34.6063 1417.43 34.7105C1417.14 34.8147 1416.82 34.8585 1416.51 34.8395C1416.2 34.8204 1415.89 34.7389 1415.61 34.5997C1415.33 34.4604 1415.08 34.2663 1414.88 34.0287C1400.78 18.5393 1385.83 22.4365 1376.47 27.7703C1377.89 35.9204 1378.12 46.1756 1374.82 53.5007C1374 55.5366 1372.76 57.3786 1371.19 58.9092C1369.61 60.4398 1367.73 61.6255 1365.68 62.3904C1355.79 65.9463 1351.88 63.13 1350.34 60.1431C1346.39 52.5051 1356.03 35.9631 1370.09 26.2343L1371.11 25.4804C1370.75 23.8264 1370.28 22.2006 1369.69 20.6159C1366.67 12.9921 1359.33 5.1123 1349.77 4.71404C1345.25 4.51491 1340.29 6.00831 1334.61 9.2655C1326.16 14.1157 1318.82 21.0568 1311.71 27.7561C1309.96 29.4155 1308.2 31.0607 1306.45 32.6917C1289.38 48.4372 1273.91 58.2941 1257.92 63.571C1237.59 70.3272 1216.78 68.9902 1200.8 59.9013C1191.95 54.917 1185.12 46.9837 1181.52 37.485C1181.32 36.9111 1181.35 36.2825 1181.61 35.7299C1181.86 35.1773 1182.31 34.7432 1182.88 34.5179C1183.44 34.2926 1184.07 34.2935 1184.64 34.5203C1185.2 34.747 1185.65 35.1823 1185.9 35.7356C1189.07 44.266 1195.18 51.3841 1203.13 55.8049C1217.95 64.2395 1237.38 65.4343 1256.43 59.1048C1271.77 53.9986 1286.65 44.5115 1303.26 29.2354C1305.01 27.6281 1306.75 25.9924 1308.48 24.3567C1315.78 17.4583 1323.33 10.3323 1332.27 5.19759C1338.74 1.48525 1344.53 -0.207368 1349.97 0.0202081C1351.9 0.101686 1353.82 0.431545 1355.66 1.00164" fill="#5A4ABF"/>
<path d="M238.604 264.037C240.325 263.682 243.113 264.308 246.555 265.886C247.961 266.572 249.208 267.543 250.217 268.738C251.227 269.934 251.975 271.326 252.415 272.828C254.534 278.901 253.738 287.165 252.159 293.893C240.168 283.581 234.408 269.172 237.025 265.033C237.205 264.767 237.438 264.541 237.71 264.369C237.982 264.198 238.286 264.085 238.604 264.037V264.037ZM233.142 321.884C241.249 320.163 248.788 314.147 253.055 305.67C253.677 304.386 254.232 303.071 254.719 301.73C269.412 311.245 285.015 309.866 298.271 297.619C298.498 297.41 298.682 297.158 298.812 296.878C298.941 296.598 299.014 296.295 299.027 295.987C299.039 295.678 298.991 295.37 298.885 295.081C298.778 294.791 298.616 294.525 298.407 294.298C298.197 294.071 297.946 293.887 297.665 293.758C297.385 293.628 297.082 293.555 296.774 293.543C296.466 293.53 296.158 293.578 295.868 293.685C295.578 293.791 295.312 293.954 295.085 294.163C279.696 308.386 265.145 303.181 256.212 297.008C258.389 289.014 259.47 278.816 256.81 271.234C256.169 269.133 255.096 267.189 253.661 265.526C252.226 263.863 250.46 262.518 248.475 261.577C238.945 257.167 234.792 259.628 233 262.473C228.405 269.741 236.527 287.008 249.712 298.032C250.039 298.316 250.381 298.586 250.722 298.857C250.219 300.464 249.601 302.032 248.873 303.55C245.189 310.89 237.196 318.101 227.652 317.674C223.129 317.461 218.321 315.541 212.945 311.8C204.951 306.239 198.237 298.686 191.751 291.389C190.144 289.583 188.551 287.791 186.93 286.013C171.284 268.845 156.747 257.722 141.272 251.023C121.615 242.489 100.764 242.034 84.0509 249.714C74.7972 253.898 67.3101 261.204 62.9005 270.353C62.6195 270.918 62.5747 271.573 62.7761 272.172C62.9775 272.77 63.4085 273.265 63.9744 273.546C64.5402 273.827 65.1946 273.872 65.7934 273.67C66.3922 273.469 66.8865 273.038 67.1676 272.472C71.0677 264.256 77.7702 257.699 86.0706 253.981C101.574 246.87 121.032 247.382 139.452 255.404C154.301 261.833 168.297 272.586 183.544 289.256C185.152 291.005 186.731 292.783 188.309 294.575C194.994 302.071 201.893 309.837 210.342 315.726C216.472 319.993 222.09 322.183 227.524 322.425C229.433 322.506 231.345 322.343 233.213 321.941" fill="#5A4ABF"/>
<path d="M-34.4038 188.256C-35.577 189.573 -36.407 192.3 -36.7326 196.087C-36.8386 197.645 -36.6147 199.207 -36.0753 200.673C-35.5359 202.138 -34.6933 203.473 -33.6026 204.59C-29.383 209.454 -21.8661 212.799 -15.1816 214.811C-18.1925 199.289 -27.8587 187.153 -32.7526 187.365C-33.0741 187.392 -33.3865 187.486 -33.6705 187.639C-33.9545 187.792 -34.2041 188.002 -34.4038 188.256ZM18.5671 212.189C13.051 218.381 4.09333 222.02 -5.41825 221.471C-6.84321 221.392 -8.26222 221.228 -9.66767 220.981C-8.67996 238.453 -17.6303 251.3 -34.8135 256.774C-35.1143 256.909 -35.4401 256.978 -35.7695 256.978C-36.099 256.978 -36.4248 256.909 -36.7257 256.775C-37.0267 256.641 -37.296 256.445 -37.5162 256.2C-37.7365 255.955 -37.9026 255.667 -38.0039 255.353C-38.1052 255.04 -38.1394 254.708 -38.1042 254.381C-38.069 254.053 -37.9652 253.737 -37.7996 253.452C-37.634 253.167 -37.4103 252.92 -37.143 252.728C-36.8758 252.535 -36.5709 252.401 -36.2484 252.334C-16.2836 246.004 -13.5945 230.798 -14.4894 219.999C-22.5074 217.923 -31.8697 213.849 -37.1782 207.748C-38.6813 206.148 -39.836 204.252 -40.5692 202.183C-41.3025 200.113 -41.5983 197.913 -41.4381 195.723C-40.5308 185.254 -36.3361 182.877 -32.9801 182.723C-24.3888 182.339 -13.4248 197.936 -10.4154 214.828C-10.3403 215.257 -10.2652 215.686 -10.2102 216.116C-8.53624 216.472 -6.83928 216.711 -5.13187 216.83C3.07344 217.264 13.2758 213.895 17.6405 205.382C19.7051 201.354 20.4268 196.225 19.8294 189.711C18.9569 179.999 15.7253 170.434 12.6021 161.175C11.8259 158.896 11.0631 156.616 10.3136 154.335C3.15238 132.182 0.658153 114.091 2.52223 97.331C4.87101 76.0496 14.7726 57.6873 29.7199 46.9825C37.9372 41.0079 47.9971 38.1198 58.1323 38.8256C58.7304 38.8912 59.2809 39.1826 59.6714 39.6404C60.0618 40.0983 60.2628 40.6879 60.2331 41.2889C60.2035 41.8899 59.9455 42.4568 59.5119 42.874C59.0783 43.2912 58.5019 43.5271 57.9002 43.5336C48.8268 42.8401 39.805 45.419 32.4689 50.8033C18.6057 60.7404 9.40946 77.8833 7.19566 97.8371C5.42331 113.917 7.79072 131.38 14.7732 152.879C15.4982 155.144 16.2634 157.407 17.0286 159.67C20.2366 169.176 23.5647 179.018 24.5358 189.218C25.2066 196.654 24.3222 202.629 21.8409 207.467C20.968 209.177 19.878 210.767 18.5978 212.197" fill="#5A4ABF"/>
<path d="M577.75 214.653C564.337 214.653 550.028 211.681 539.702 206.205C526.246 199.093 485.297 177.388 498.667 120.437C498.73 120.168 498.847 119.915 499.011 119.692C499.175 119.47 499.382 119.283 499.62 119.142C499.858 119.003 500.121 118.912 500.395 118.875C500.668 118.839 500.947 118.857 501.213 118.929L530.599 127.022C530.902 127.109 531.18 127.264 531.414 127.475C531.648 127.686 531.83 127.948 531.946 128.24C532.063 128.533 532.111 128.848 532.087 129.162C532.063 129.476 531.968 129.781 531.808 130.052C528.963 134.831 526.246 146.252 530.528 158.158C534.638 169.536 544.168 178.241 558.121 183.205C568.746 186.989 591.874 189.976 603.295 174.173C603.443 173.934 603.638 173.727 603.869 173.567C604.101 173.406 604.362 173.295 604.638 173.24C604.914 173.185 605.199 173.187 605.474 173.247C605.749 173.306 606.008 173.422 606.237 173.587C606.465 173.751 606.657 173.961 606.8 174.203C606.944 174.445 607.036 174.714 607.071 174.994C607.106 175.273 607.083 175.556 607.004 175.826C606.924 176.096 606.79 176.347 606.609 176.563C593.808 194.342 568.376 191.199 556.742 187.06C537.625 180.261 529.831 168.342 526.673 159.537C522.705 148.5 523.999 137.249 527.086 130.308L502.194 123.452C491 175.78 529.006 195.992 541.608 202.592C556.912 210.699 581.434 213.003 597.435 207.84C615.641 201.98 629.026 189.079 640.618 166.151C615.473 156.887 589.726 149.35 563.555 143.593C563.043 143.458 562.604 143.13 562.329 142.679C562.054 142.228 561.964 141.687 562.077 141.171C562.191 140.655 562.5 140.202 562.94 139.909C563.38 139.615 563.916 139.503 564.437 139.596C591.534 145.552 618.179 153.409 644.174 163.107C644.444 163.207 644.689 163.362 644.895 163.563C645.101 163.764 645.262 164.006 645.368 164.274C645.474 164.538 645.521 164.822 645.509 165.106C645.497 165.391 645.425 165.669 645.297 165.924C632.909 191.241 618.571 205.38 598.772 211.809C591.975 213.821 584.909 214.781 577.821 214.653" fill="#5A4ABF"/>
<path d="M1123.11 92.7294C1124.15 93.5151 1125.4 93.9742 1126.7 94.0483C1128 94.1224 1129.29 93.8082 1130.41 93.1456C1131.53 92.483 1132.43 91.5019 1133 90.327C1133.56 89.1521 1133.76 87.8364 1133.57 86.547C1133.39 85.2576 1132.82 84.0527 1131.95 83.0855C1131.08 82.1182 1129.94 81.4322 1128.67 81.1146C1127.41 80.797 1126.08 80.8622 1124.85 81.3018C1123.63 81.7414 1122.56 82.5356 1121.78 83.5836C1120.75 84.9726 1120.31 86.7155 1120.56 88.43C1120.8 90.1444 1121.72 91.6906 1123.11 92.7294Z" fill="#5A4ABF"/>
<path d="M1145.6 112.5C1147.43 113.89 1149.64 114.703 1151.94 114.834C1154.25 114.965 1156.53 114.409 1158.52 113.237C1160.5 112.064 1162.09 110.328 1163.09 108.25C1164.08 106.171 1164.44 103.843 1164.11 101.562C1163.77 99.2812 1162.77 97.1504 1161.23 95.4405C1159.68 93.7306 1157.66 92.5189 1155.43 91.9594C1153.19 91.3998 1150.84 91.5177 1148.67 92.2981C1146.5 93.0785 1144.61 94.4862 1143.25 96.3421C1141.42 98.7977 1140.64 101.877 1141.08 104.906C1141.52 107.935 1143.15 110.666 1145.6 112.5Z" fill="#5A4ABF"/>
<path d="M1142.2 86.6416C1142.9 87.1769 1143.75 87.4906 1144.63 87.5429C1145.51 87.5951 1146.39 87.3834 1147.15 86.9348C1147.91 86.4862 1148.52 85.821 1148.91 85.0239C1149.29 84.2268 1149.42 83.334 1149.3 82.4592C1149.17 81.5843 1148.79 80.767 1148.19 80.1115C1147.6 79.4561 1146.82 78.992 1145.97 78.7785C1145.11 78.565 1144.21 78.6118 1143.38 78.9127C1142.54 79.2137 1141.82 79.7553 1141.3 80.4685C1140.6 81.4071 1140.31 82.5833 1140.47 83.7399C1140.64 84.8966 1141.26 85.9397 1142.2 86.6416Z" fill="#5A4ABF"/>
<path d="M1286.37 233.144C1285.97 233.149 1285.57 233.043 1285.23 232.838C1284.88 232.633 1284.6 232.337 1284.41 231.983C1284.23 231.628 1284.14 231.229 1284.17 230.829C1284.19 230.429 1284.33 230.044 1284.56 229.716C1288.64 223.755 1291.31 216.944 1292.37 209.798C1293.43 202.652 1292.86 195.358 1290.69 188.468C1288.51 181.577 1284.81 175.271 1279.84 170.025C1274.87 164.779 1268.78 160.731 1262.02 158.186C1261.47 157.981 1261.03 157.567 1260.79 157.036C1260.55 156.505 1260.53 155.901 1260.74 155.356C1260.94 154.811 1261.35 154.37 1261.89 154.13C1262.42 153.889 1263.02 153.87 1263.57 154.076C1270.94 156.857 1277.59 161.277 1283.01 167.003C1288.43 172.729 1292.48 179.611 1294.85 187.129C1297.22 194.648 1297.85 202.607 1296.7 210.405C1295.54 218.204 1292.63 225.639 1288.19 232.149C1287.98 232.444 1287.71 232.686 1287.39 232.852C1287.08 233.018 1286.72 233.104 1286.37 233.102" fill="#5A4ABF"/>
<path d="M802.169 156.337C801.065 157.853 800.053 159.435 799.139 161.073C796.423 166.08 793.678 171.997 793.877 177.928C794.047 182.992 797.12 189.008 802.496 190.189C803.952 190.536 805.471 190.528 806.923 190.167C808.376 189.805 809.721 189.101 810.845 188.112C812.311 186.697 813.424 184.956 814.094 183.032C814.763 181.107 814.971 179.052 814.7 177.032C813.932 167.218 809.722 160.262 802.169 156.337V156.337ZM612.171 250.212C519.832 250.212 483.832 207.371 454.105 171.983C430.935 144.417 410.937 120.607 370.385 122.94C370.098 122.957 369.809 122.918 369.537 122.823C369.264 122.729 369.013 122.582 368.798 122.39C368.583 122.198 368.407 121.966 368.282 121.707C368.156 121.447 368.083 121.165 368.067 120.878C368.04 120.296 368.242 119.727 368.631 119.293C369.019 118.859 369.562 118.596 370.144 118.559C412.814 116.084 433.538 140.691 457.476 169.166C492.679 211.055 532.562 258.519 656.876 242.816C655.98 223.244 671.512 200.572 699.902 180.232C730.354 158.385 775.4 141.103 800.889 150.804C813.462 134.703 842.592 107.052 878.692 99.7982C906.527 94.2084 933.168 101.462 957.874 121.347C958.288 121.725 958.542 122.247 958.584 122.806C958.627 123.365 958.455 123.919 958.103 124.356C957.752 124.793 957.247 125.079 956.692 125.157C956.137 125.235 955.573 125.098 955.115 124.775C931.475 105.729 906.058 98.7742 879.559 104.108C845.11 111.021 817.274 137.121 804.957 152.681C813.491 157.375 818.327 165.596 819.18 176.577C819.507 179.282 819.193 182.027 818.264 184.589C817.335 187.151 815.817 189.459 813.832 191.327C812.188 192.76 810.227 193.784 808.111 194.313C805.994 194.842 803.782 194.862 801.657 194.37C794.033 192.692 789.809 184.855 789.595 177.971C789.382 171.087 792.44 164.401 795.37 158.883C796.217 157.374 797.142 155.912 798.144 154.502C776.609 147.305 736.485 159.409 702.505 183.802C674.811 203.715 659.464 226.373 661.441 244.523C661.502 245.093 661.339 245.664 660.986 246.115C660.632 246.566 660.117 246.863 659.55 246.941C643.845 249.059 628.018 250.152 612.171 250.212" fill="#5A4ABF"/>
<path d="M674.412 235.164L694.524 217.882L695.534 243.541L674.412 235.164Z" fill="#5A4ABF"/>
<path d="M1121.43 301.019C1112.33 303.864 1105.67 307.96 1104.76 311.502C1104.62 312.057 1104.18 313.749 1107.82 315.854C1111.2 317.817 1114.73 313.977 1116.08 312.227C1118.56 308.867 1120.38 305.062 1121.43 301.019V301.019ZM1031.45 233.358C1031.01 232.177 1030.53 231.068 1030.03 230.029C1025.39 220.428 1021.3 219.148 1019.75 219.049C1018.92 219.042 1018.1 219.26 1017.39 219.681C1016.67 220.102 1016.09 220.71 1015.69 221.438C1014.6 223.394 1014.02 225.598 1014.02 227.839C1014.02 230.08 1014.6 232.284 1015.69 234.24C1019.96 242.347 1024.94 247.283 1030.88 250.156C1031.28 249.554 1031.63 248.921 1031.93 248.264C1034.11 243.471 1033.12 237.923 1031.39 233.329L1031.45 233.358ZM981.967 451.362C983.183 460.328 987.616 468.548 994.441 474.489C1006.92 485.512 1026.23 487.29 1038.42 478.628C1041.75 476.079 1044.47 472.822 1046.39 469.093C1048.3 465.364 1049.37 461.256 1049.5 457.065C1049.83 449.427 1047.13 442.586 1042.06 438.276C1034.18 431.563 1021.51 430.382 1008.12 435.118C998.347 438.606 989.428 444.144 981.967 451.362V451.362ZM966.393 499.466C964.471 494.232 963.4 488.724 963.221 483.151C962.737 470.677 968.569 459.114 977.444 449.797C977.351 448.376 977.351 446.951 977.444 445.53C978.17 435.972 983.034 426.2 991.881 416.471C1001.29 406.073 1012.9 397.904 1025.86 392.562C1042.6 385.763 1060.27 384.71 1077.36 383.7C1091.72 382.847 1106.57 381.951 1120.77 377.655C1143.53 370.771 1159.65 361.284 1168.78 349.479C1176.55 339.522 1178.74 328.015 1175.27 316.409C1170.17 299.668 1151.77 297.563 1141.24 297.79C1136.13 297.917 1131.05 298.57 1126.08 299.739C1125 305.213 1122.73 310.383 1119.44 314.887C1115.17 320.391 1109.98 322.155 1105.57 319.609C1099.88 316.338 1099.88 312.497 1100.48 310.407C1102.01 304.433 1111.33 299.255 1122.38 296.183C1124.09 285.316 1121.9 272.387 1112.43 262.687C1106.57 256.684 1098.2 254.977 1080.37 256.172C1076.72 256.414 1073.25 256.713 1069.77 257.011C1055.38 258.22 1042.74 259.301 1032.11 255.433C1028.69 258.875 1023.67 261.506 1017.11 263.284C1016.84 263.364 1016.55 263.387 1016.26 263.353C1015.98 263.319 1015.7 263.229 1015.46 263.087C1015.21 262.945 1014.99 262.755 1014.81 262.527C1014.64 262.3 1014.51 262.04 1014.44 261.762C1014.29 261.204 1014.37 260.61 1014.66 260.109C1014.95 259.608 1015.42 259.241 1015.98 259.088C1020.26 258.08 1024.29 256.175 1027.78 253.498C1021.64 250.213 1016.29 244.822 1011.82 236.202C1008.89 230.513 1008.98 223.615 1011.99 218.978C1012.81 217.6 1013.98 216.469 1015.38 215.704C1016.79 214.94 1018.37 214.572 1019.97 214.64C1023.47 214.867 1028.73 217.385 1033.88 228.067C1037.94 236.444 1038.62 244.04 1035.89 250.028C1035.62 250.62 1035.32 251.195 1034.98 251.749C1044.45 254.793 1055.9 253.811 1069.4 252.673C1072.86 252.375 1076.41 252.076 1080.07 251.834C1096.61 250.725 1107.72 251.649 1115.54 259.643C1125.5 269.898 1128.24 283.396 1126.85 295.102C1131.56 294.088 1136.35 293.512 1141.17 293.381C1161.17 292.954 1175.12 300.905 1179.43 315.086C1183.39 328.101 1180.86 340.888 1172.24 352.067C1162.54 364.612 1145.65 374.597 1122.04 381.752C1107.36 386.204 1092.24 387.1 1077.63 387.967C1060.13 389.006 1043.6 390.001 1027.51 396.502C1015.15 401.584 1004.08 409.359 995.11 419.259C987.031 428.149 982.551 436.953 981.825 445.431C989.11 439.074 997.518 434.135 1006.62 430.866C1021.48 425.617 1035.76 427.082 1044.84 434.82C1050.91 439.997 1054.18 448.133 1053.78 457.108C1053.36 467.065 1048.42 476.665 1040.9 482.028C1026.89 491.984 1005.65 490.121 991.497 477.604C984.784 471.77 980.105 463.948 978.141 455.273C971.371 463.253 967.118 472.74 967.516 482.838C968.612 510.958 990.174 523.646 1013.03 537.087C1041.08 553.586 1070.08 570.654 1065.39 617.109C1065.33 617.683 1065.04 618.21 1064.59 618.574C1064.15 618.939 1063.57 619.113 1063 619.057C1062.72 619.029 1062.44 618.945 1062.19 618.81C1061.94 618.675 1061.72 618.492 1061.54 618.271C1061.36 618.051 1061.22 617.797 1061.14 617.524C1061.06 617.251 1061.04 616.965 1061.06 616.682C1065.46 572.987 1037.7 556.644 1010.83 540.828C992.521 530.061 973.718 518.995 966.364 499.323" fill="#5A4ABF"/>
</svg>
