<svg width="138" height="138" viewBox="0 0 138 138" fill="none" xmlns="http://www.w3.org/2000/svg">
<circle cx="69" cy="69.0003" r="67" fill="#C1CCDC" stroke="white" stroke-width="4"/>
<path d="M90.0783 61.0611V76.9396C90.0783 79.5396 88.6854 81.954 86.4337 83.2772L72.6444 91.2397C70.3926 92.5397 67.6069 92.5397 65.3319 91.2397L51.5426 83.2772C49.2908 81.9772 47.8979 79.5628 47.8979 76.9396V61.0611C47.8979 58.4611 49.2908 56.0467 51.5426 54.7235L65.3319 46.761C67.5837 45.461 70.3694 45.461 72.6444 46.761L86.4337 54.7235C88.6854 56.0467 90.0783 58.4379 90.0783 61.0611Z" stroke="white" stroke-width="2" stroke-linecap="round" stroke-linejoin="round"/>
<path d="M68.9997 66.6789C71.987 66.6789 74.4087 64.2572 74.4087 61.2699C74.4087 58.2826 71.987 55.8611 68.9997 55.8611C66.0125 55.8611 63.5908 58.2826 63.5908 61.2699C63.5908 64.2572 66.0125 66.6789 68.9997 66.6789Z" stroke="white" stroke-width="2" stroke-linecap="round" stroke-linejoin="round"/>
<path d="M78.2853 79.8181C78.2853 75.6395 74.1299 72.2504 68.9996 72.2504C63.8692 72.2504 59.7139 75.6395 59.7139 79.8181" stroke="white" stroke-width="2" stroke-linecap="round" stroke-linejoin="round"/>
</svg>
