<svg width="100" height="50" viewBox="0 0 1080 1080" fill="none" xmlns="http://www.w3.org/2000/svg">
<path d="M417.754 507.689L289.172 581.926C298.72 592.495 309.944 598.507 322.845 599.961C335.961 601.291 349.304 598.038 362.873 590.204C381.18 579.635 391.217 564.937 392.984 546.112L431.437 546.311C429.268 578.865 412.461 604.22 381.016 622.375C354.955 637.421 329.139 641.701 303.568 635.213C281.159 629.209 263.119 616.35 249.454 596.635C247.581 593.933 245.793 591.101 244.084 588.142C230.282 564.235 226.624 539.496 233.111 513.925C239.384 488.479 255.119 468.481 280.319 453.932C303.795 440.378 327.967 437.478 352.834 445.234C377.701 452.989 396.974 468.713 410.652 492.405C413.139 496.712 415.507 501.807 417.754 507.689ZM272.434 553.682L367.417 498.844C357.711 487.504 346.669 480.813 334.29 478.771C322.126 476.604 310.121 478.94 298.275 485.779C285.353 493.24 276.635 503.012 272.124 515.093C267.612 527.175 267.716 540.038 272.434 553.682Z" fill="#fff"/>
<path d="M508.028 545.114H451.778V526.514H508.028V545.114Z" fill="#fff"/>
<path d="M596.699 552.314L609.449 506.114H629.999L606.149 581.114H587.699L573.899 535.664L560.099 581.114H541.649L517.799 506.114H538.349L551.099 552.164L564.749 506.114H583.049L596.699 552.314Z" fill="#fff"/>
<path d="M701.399 571.814C693.799 579.414 684.399 583.214 673.199 583.214C661.999 583.214 652.599 579.414 644.999 571.814C637.399 564.214 633.599 554.814 633.599 543.614C633.599 532.514 637.399 523.164 644.999 515.564C652.699 507.864 662.099 504.014 673.199 504.014C684.299 504.014 693.699 507.864 701.399 515.564C709.099 523.264 712.949 532.614 712.949 543.614C712.949 554.714 709.099 564.114 701.399 571.814ZM658.649 558.464C662.549 562.364 667.399 564.314 673.199 564.314C678.999 564.314 683.849 562.364 687.749 558.464C691.649 554.564 693.599 549.614 693.599 543.614C693.599 537.614 691.649 532.664 687.749 528.764C683.849 524.864 678.999 522.914 673.199 522.914C667.399 522.914 662.549 524.864 658.649 528.764C654.849 532.764 652.949 537.714 652.949 543.614C652.949 549.514 654.849 554.464 658.649 558.464Z" fill="#fff"/>
<path d="M745.912 506.114V519.014C747.612 514.314 750.512 510.764 754.612 508.364C758.712 505.864 763.412 504.614 768.712 504.614V526.214C762.812 525.414 757.512 526.614 752.812 529.814C748.212 532.914 745.912 538.064 745.912 545.264V581.114H726.562V506.114H745.912Z" fill="#fff"/>
<path d="M818.129 543.164L849.179 581.114H826.679L799.379 547.064V581.114H780.029V476.114H799.379V539.114L825.179 506.114H848.279L818.129 543.164Z" fill="#fff"/>
</svg>
