<svg id="Layer_1" data-name="Layer 1" xmlns="http://www.w3.org/2000/svg" viewBox="0 0 1080 1080"><defs><style>.cls-1{fill:#fff;}</style></defs><path class="cls-1" d="M1079.71,319.71c-4.78,23.46-19.5,40.31-35.91,56.68Q821,598.62,598.66,821.37c-23.34,23.36-50.49,33.17-82.23,21.88-11.46-4.08-22.7-11.61-31.38-20.24Q255.34,594.26,26.4,364.75c-23.16-23.18-31-51-19.46-82,10.86-29.11,33.14-45.62,64.18-48.68,25.08-2.48,45.71,7.55,63.2,25.14Q187,312.23,240,365,385.85,510.85,531.68,656.76c2.71,2.71,5,5.82,10.88,12.7,3-5.32,4.42-9.68,7.3-12.57Q748,458.38,946.42,260.08c22.65-22.66,48.91-32.35,80.35-22.54,24.77,7.74,41.18,24.41,49.12,49.24q1.89,5.94,3.82,11.87Z"/></svg>