<svg width="18" height="18" viewBox="0 0 18 18" fill="none" xmlns="http://www.w3.org/2000/svg">
<path d="M11.6849 9C11.6849 10.485 10.4849 11.685 8.99994 11.685C7.51494 11.685 6.31494 10.485 6.31494 9C6.31494 7.515 7.51494 6.315 8.99994 6.315C10.4849 6.315 11.6849 7.515 11.6849 9Z" stroke="#23222B" stroke-width="1.5" stroke-linecap="round" stroke-linejoin="round"/>
<path d="M9.00001 15.2025C11.6475 15.2025 14.115 13.6425 15.8325 10.9425C16.5075 9.885 16.5075 8.1075 15.8325 7.05C14.115 4.35 11.6475 2.79 9.00001 2.79C6.35251 2.79 3.88501 4.35 2.1675 7.05C1.4925 8.1075 1.4925 9.885 2.1675 10.9425C3.88501 13.6425 6.35251 15.2025 9.00001 15.2025Z" stroke="#23222B" stroke-width="1.5" stroke-linecap="round" stroke-linejoin="round"/>
</svg>
