<svg width="412" height="425" viewBox="0 0 412 425" fill="none" xmlns="http://www.w3.org/2000/svg">
<path d="M403.598 163.913C404.267 159.004 397.331 154.964 392.121 154.539C389.634 154.34 387.047 154.72 384.696 153.897C379.586 152.089 377.551 145.527 372.568 143.429C368.851 141.866 364.564 143.258 360.955 145.075C357.347 146.892 353.775 149.178 349.741 149.432C346.232 149.658 342.424 148.356 339.358 150.073C337.07 151.348 335.876 153.978 333.769 155.497C331.662 157.016 329.012 157.305 326.453 157.477C323.893 157.648 321.243 157.639 318.919 158.706C316.595 159.773 314.659 162.241 315.148 164.754L403.598 163.913Z" fill="#F5F5F5"/>
<path d="M176.647 83.2445C177.181 79.3847 171.718 76.2028 167.603 75.8683C165.65 75.7146 163.615 76.013 161.761 75.3621C157.745 73.97 156.145 68.7814 152.229 67.1271C149.298 65.8978 145.898 66.9916 143.085 68.4198C140.272 69.848 137.442 71.6469 134.267 71.8548C131.509 72.0265 128.506 71.0051 126.128 72.352C124.319 73.3553 123.414 75.4344 121.732 76.6548C120.05 77.8751 117.988 78.1011 115.98 78.2095C113.972 78.318 111.883 78.3451 110.047 79.1768C108.211 80.0084 106.701 81.9519 107.081 83.9315L176.647 83.2445Z" fill="#FAFAFA"/>
<path d="M134.675 57.6176C135.579 51.1544 126.435 45.8663 119.571 45.2787C116.297 45.0076 112.897 45.5138 109.794 44.429C103.102 42.0878 100.389 33.4461 93.8318 30.6529C88.9299 28.5828 83.2864 30.4269 78.5383 32.8133C73.7902 35.1997 69.0873 38.237 63.7785 38.5534C59.166 38.8517 54.1466 37.1342 50.113 39.394C47.1013 41.0663 45.5277 44.5375 42.7512 46.6256C39.9747 48.7137 36.4927 49.0572 33.1283 49.238C29.764 49.4188 26.273 49.455 23.1799 50.8561C20.0869 52.2572 17.5726 55.5024 18.2057 58.8108L134.675 57.6176Z" fill="#F5F5F5"/>
<path d="M62.7655 296.874C62.7655 296.874 55.9825 294.678 52.8171 310.316C49.6517 325.954 49.1995 334.596 49.1995 334.596C49.1995 334.596 48.1504 337.986 45.6542 336.648C43.1581 335.31 38.9798 330.745 35.8958 332.635C32.8117 334.524 32.5585 338.791 34.8286 344.314C37.0986 349.837 41.5573 362.103 41.9552 363.215C42.3532 364.327 42.1633 366.117 40.3273 365.484C38.4914 364.851 26.8156 357.403 23.6049 363.152C20.3943 368.901 29.1851 383.238 30.1166 384.847C31.0482 386.456 30.9125 387.251 30.2161 387.902C29.5197 388.553 25.8388 385.678 22.4292 383.699C19.0196 381.719 14.7328 380.011 13.1591 383.482C11.5854 386.953 14.0635 398.849 30.4874 414.749L38.5728 421.628L48.6659 418.211C69.8289 409.588 76.5938 399.482 76.431 395.685C76.2682 391.888 71.6558 391.852 67.7488 392.413C63.8418 392.973 59.3559 394.275 58.958 393.407C58.5601 392.539 58.7409 391.735 60.197 390.605C61.6531 389.475 75.1649 379.459 74.3419 372.933C73.5188 366.406 59.8714 368.955 57.9631 368.856C56.0549 368.756 56.5251 367.048 57.3029 366.144C58.0807 365.24 66.8263 355.559 70.9775 351.283C75.1287 347.007 76.63 343.084 74.3961 340.065C72.1622 337.046 66.6454 339.839 63.8327 340.146C61.02 340.454 61.3185 336.91 61.3185 336.91C61.3185 336.91 64.1221 328.73 67.0252 313.037C69.9284 297.345 62.6299 296.865 62.6299 296.865" fill="#EBEBEB"/>
<path d="M37.4419 423.897C39.6215 412.381 43.827 391.97 47.3903 374.424C50.9537 356.878 54.0829 340.978 56.3167 329.507C57.4292 323.758 58.3245 319.103 58.9486 315.875C59.2561 314.275 59.5002 313.028 59.663 312.169C59.7444 311.753 59.8168 311.437 59.862 311.202C59.9072 310.967 59.9344 310.877 59.9344 310.877C59.9344 310.877 59.9344 310.994 59.9344 311.211C59.9344 311.428 59.8439 311.762 59.7716 312.178C59.6269 313.082 59.4008 314.294 59.1204 315.894C58.5416 319.121 57.6824 323.785 56.5881 329.543C54.4175 341.068 51.2792 356.96 47.7611 374.487C44.243 392.015 40.0013 412.453 37.7675 423.942" fill="#E0E0E0"/>
<path d="M41.4487 339.27C41.6194 339.462 41.7709 339.671 41.9009 339.893C42.1723 340.3 42.5521 340.906 43.0133 341.701C43.9177 343.202 45.1387 345.317 46.432 347.667C47.7253 350.018 48.8558 352.097 49.733 353.706L50.746 355.514C50.8855 355.729 51.0008 355.96 51.0896 356.201C50.9161 356.01 50.7644 355.801 50.6374 355.577C50.3571 355.17 49.9863 354.564 49.5341 353.769C48.6297 352.25 47.4449 350.153 46.1426 347.776C44.8402 345.398 43.7007 343.364 42.8053 341.764C42.4074 341.041 42.0637 340.427 41.7834 339.957C41.6437 339.742 41.5313 339.512 41.4487 339.27Z" fill="#E0E0E0"/>
<path d="M52.0752 356.101C52.0752 356.02 56.2716 353.335 61.5624 350.09C66.8531 346.845 71.1671 344.277 71.2123 344.359C71.2575 344.44 67.0159 347.116 61.7342 350.37C56.4525 353.624 52.1295 356.155 52.0752 356.101Z" fill="#E0E0E0"/>
<path d="M45.4551 382.795C45.6913 382.683 45.9404 382.601 46.1967 382.551L48.2587 381.981C49.9861 381.511 52.3828 380.842 54.9875 380.001C57.5921 379.161 59.9436 378.347 61.6258 377.724L63.6335 377C63.8725 376.898 64.1208 376.819 64.3752 376.765C64.1564 376.908 63.9229 377.026 63.6788 377.118C63.2175 377.326 62.5483 377.606 61.7162 377.94C60.0431 378.618 57.7097 379.486 55.087 380.318C52.4642 381.15 50.0675 381.791 48.313 382.207C47.4086 382.415 46.7212 382.578 46.2329 382.668C45.9781 382.734 45.7177 382.777 45.4551 382.795Z" fill="#E0E0E0"/>
<path d="M32.4858 369.715C32.6931 369.842 32.8818 369.997 33.0466 370.176L34.4846 371.522C35.6874 372.67 37.3425 374.234 39.1422 376.042C40.942 377.85 42.5699 379.441 43.7366 380.634L45.1022 382.044C45.2773 382.212 45.4349 382.397 45.5725 382.596C45.3664 382.471 45.1778 382.319 45.0118 382.144C44.6229 381.773 44.1074 381.321 43.5738 380.797C42.3709 379.649 40.7159 378.085 38.9161 376.277C37.1164 374.469 35.4885 372.869 34.3218 371.685L32.9561 370.266C32.7844 370.095 32.6271 369.911 32.4858 369.715Z" fill="#E0E0E0"/>
<path d="M23.6499 392.503C23.9004 392.683 24.1363 392.883 24.3553 393.1L26.2094 394.817C27.7559 396.273 29.8903 398.306 32.2236 400.566C34.557 402.826 36.6642 404.878 38.1746 406.388L39.9834 408.196C40.2098 408.405 40.4157 408.635 40.5984 408.883C40.3456 408.706 40.1095 408.506 39.893 408.286L38.0841 406.569C36.5376 405.113 34.4032 403.079 32.0699 400.819C29.7365 398.56 27.6293 396.508 26.1189 394.998L24.3101 393.19C24.0646 392.987 23.8431 392.756 23.6499 392.503Z" fill="#E0E0E0"/>
<path d="M40.2817 408.358C40.5747 408.225 40.877 408.113 41.1861 408.024L43.7637 407.219C45.9433 406.532 48.9459 405.583 52.2289 404.435C55.5119 403.287 58.4602 402.175 60.5855 401.353L63.1088 400.385C63.402 400.255 63.7043 400.147 64.0132 400.06C63.7281 400.239 63.4249 400.387 63.1088 400.503C62.521 400.765 61.6799 401.136 60.6217 401.57C58.5145 402.474 55.5752 403.595 52.2831 404.743C48.9911 405.891 45.9523 406.813 43.7818 407.454C42.6784 407.762 41.783 408.006 41.1681 408.159C40.8774 408.246 40.5813 408.312 40.2817 408.358Z" fill="#E0E0E0"/>
<path d="M249.904 360.422C251.746 360.42 253.57 360.789 255.267 361.506C256.963 362.224 258.498 363.275 259.78 364.598C262.321 367.272 264.218 370.49 265.324 374.008C267.657 380.716 267.133 388.878 265.658 395.83C258.052 393.723 252.906 386.148 250.537 382.144C246.793 375.816 243.871 362.103 249.904 360.449" fill="#EBEBEB"/>
<path d="M276.928 403.35C275.691 401.706 274.911 399.764 274.666 397.721C274.421 395.678 274.721 393.607 275.535 391.717C276.385 389.847 277.598 388.165 279.104 386.769C280.61 385.372 282.379 384.288 284.308 383.581C286.116 382.894 288.16 382.505 289.806 383.446C290.552 383.929 291.155 384.603 291.553 385.398C291.95 386.192 292.128 387.079 292.067 387.965C291.907 389.743 291.283 391.448 290.259 392.91C287.003 398.044 282.915 402.428 276.901 403.359" fill="#EBEBEB"/>
<path d="M277.651 421.122C277.067 419.665 276.639 418.15 276.376 416.602C276.016 414.922 275.858 413.204 275.906 411.486C275.907 409.397 276.042 407.311 276.313 405.24C276.822 401.429 278.263 397.803 280.509 394.682C281.209 393.761 282 392.913 282.869 392.151C283.503 391.644 283.882 391.391 283.919 391.436C283.955 391.482 282.589 392.657 280.961 395.052C278.92 398.169 277.6 401.702 277.099 405.393C276.833 407.432 276.679 409.484 276.638 411.54C276.562 413.209 276.659 414.881 276.928 416.53C277.27 418.043 277.512 419.577 277.651 421.122Z" fill="#E0E0E0"/>
<path d="M253.051 370.664C253.522 371.305 253.937 371.985 254.29 372.698C255.041 374.026 256.099 375.97 257.383 378.383C259.961 383.201 263.434 389.9 267.097 397.366C270.759 404.833 273.88 411.739 276.032 416.756C277.108 419.269 277.958 421.276 278.519 422.731C278.845 423.455 279.111 424.205 279.315 424.973C278.891 424.301 278.528 423.593 278.23 422.858C277.533 421.339 276.62 419.368 275.517 416.982C273.238 412.028 270.036 405.231 266.382 397.71C262.728 390.189 259.373 383.626 256.886 378.609L254.019 372.815C253.636 372.127 253.312 371.407 253.051 370.664Z" fill="#E0E0E0"/>
<path d="M270.009 409.678C267.046 406.5 263.366 404.075 259.276 402.605C255.186 401.135 250.804 400.662 246.494 401.226C244.315 401.524 241.809 402.437 241.258 404.571C240.706 406.704 242.488 408.729 244.288 409.994C248.097 412.586 252.589 413.992 257.197 414.036C261.805 414.079 266.323 412.758 270.181 410.239" fill="#EBEBEB"/>
<path d="M251.17 405.701C251.576 405.588 251.998 405.543 252.418 405.565C253.223 405.52 254.381 405.565 255.819 405.565C259.594 405.679 263.316 406.488 266.798 407.952C268.707 408.81 270.464 409.973 271.999 411.396C274.061 413.368 275.65 415.782 276.647 418.455C276.834 418.833 276.953 419.239 277 419.658C276.855 419.721 276.231 418.049 274.694 415.68C272.69 412.599 269.834 410.165 266.473 408.675C263.064 407.267 259.452 406.412 255.774 406.144C254.232 406.082 252.695 405.934 251.17 405.701Z" fill="#E0E0E0"/>
<path d="M47.0469 170.828L35.9318 147.931L24.7715 155.045L7.64209 140.32L23.1707 162.973L34.4757 155.714L47.0469 170.828Z" fill="#E0E0E0"/>
<path d="M43.7188 177.11L28.2444 169.553L25.278 178.005L10.0117 177.318L27.738 182.887L30.7225 174.308L43.7188 177.11Z" fill="#E0E0E0"/>
<path d="M343.673 400.042C343.478 400.023 343.287 399.981 343.103 399.915C342.732 399.834 342.198 399.653 341.493 399.5C336.58 398.312 331.48 398.112 326.489 398.912C319.142 400.083 312.347 403.522 307.053 408.747C303.42 412.302 300.538 416.55 298.579 421.24C298.281 421.899 298.118 422.433 297.964 422.785C297.899 422.969 297.82 423.147 297.729 423.319C297.756 423.127 297.805 422.939 297.874 422.758C298 422.397 298.136 421.854 298.407 421.176C299.143 419.254 300.051 417.403 301.121 415.644C303.805 411.089 307.47 407.189 311.85 404.226C316.23 401.263 321.215 399.312 326.444 398.514C329.458 398.035 332.522 397.94 335.56 398.234C337.604 398.42 339.626 398.792 341.601 399.346C342.307 399.527 342.831 399.744 343.193 399.852C343.36 399.898 343.52 399.961 343.673 400.042Z" fill="#263238"/>
<path d="M340.571 398.641C338.954 400.468 337.865 402.7 337.42 405.098C336.976 407.496 337.193 409.97 338.047 412.254C338.4 413.158 339.042 414.144 340.01 414.153C340.978 414.162 341.683 413.059 342.018 412.083C342.699 410.027 342.95 407.853 342.755 405.696C342.561 403.54 341.925 401.446 340.887 399.545C342.241 402.851 344.545 405.682 347.507 407.68C348.638 408.44 350.221 409.054 351.27 408.25C352.319 407.445 352.219 405.863 351.785 404.634C350.977 402.509 349.509 400.698 347.597 399.467C345.685 398.236 343.429 397.649 341.158 397.791C343.196 397.934 345.228 397.452 346.984 396.408C348.739 395.364 350.134 393.809 350.98 391.952C351.595 390.523 351.658 388.49 350.275 387.766C349.834 387.605 349.364 387.54 348.896 387.576C348.428 387.612 347.973 387.748 347.562 387.974C345.87 388.707 344.358 389.797 343.129 391.171C341.9 392.544 340.984 394.167 340.444 395.929C341.322 393.929 341.596 391.717 341.233 389.563C340.87 387.41 339.885 385.409 338.4 383.807C337.432 382.804 336.049 381.945 334.719 382.334C333.028 382.822 332.467 384.946 332.512 386.7C332.593 388.893 333.164 391.04 334.184 392.983C335.205 394.926 336.649 396.615 338.409 397.927C337.272 397.196 335.973 396.752 334.626 396.636C333.278 396.519 331.923 396.733 330.676 397.258C329.048 397.954 327.529 399.744 328.253 401.353C328.976 402.962 331.092 403.034 332.775 402.727C335.803 402.159 338.667 400.924 341.158 399.111" fill="#E8505B"/>
<path d="M309.441 405.773C311.98 408.923 315.177 411.482 318.807 413.271C322.437 415.06 326.413 416.037 330.459 416.132C330.324 414.324 328.922 412.968 327.511 411.893C322.406 408.024 316.154 405.972 309.749 406.062" fill="#455A64"/>
<path d="M339.729 408.223C340.123 406.497 340.41 404.749 340.589 402.989C340.609 401.22 340.525 399.451 340.335 397.692C341.51 401.147 341.293 404.924 339.729 408.223Z" fill="#263238"/>
<path d="M346.503 404.444C345.742 403.223 344.861 402.081 343.872 401.036C342.135 399.4 340.353 398.514 340.435 398.379C341.858 398.835 343.149 399.629 344.197 400.693C345.343 401.668 346.151 402.981 346.503 404.444Z" fill="#263238"/>
<path d="M346.169 392.603C345.807 393.981 345.072 395.232 344.043 396.218C343.112 397.329 341.841 398.101 340.426 398.415C341.591 397.7 342.679 396.867 343.673 395.929C344.561 394.864 345.394 393.753 346.169 392.603Z" fill="#263238"/>
<path d="M340.507 396.381C340.829 396.366 341.148 396.442 341.427 396.603C341.706 396.763 341.933 397 342.081 397.285C342.22 397.575 342.275 397.899 342.238 398.219C342.201 398.539 342.075 398.842 341.873 399.093C341.472 398.78 341.023 398.532 340.544 398.361C340.639 397.707 340.639 397.043 340.544 396.39" fill="#FAFAFA"/>
<path d="M335.714 386.79C336.221 387.182 336.655 387.659 336.998 388.2C338.825 390.693 339.935 393.638 340.209 396.715C340.314 397.347 340.314 397.991 340.209 398.623C339.818 394.349 338.277 390.26 335.75 386.79H335.714Z" fill="#263238"/>
<path d="M15.2483 389.149C16.2197 389.159 17.1791 389.364 18.0695 389.752C18.9598 390.141 19.7628 390.704 20.4306 391.409C21.7544 392.836 22.735 394.545 23.2975 396.408C24.4913 399.961 24.1567 404.263 23.2975 407.924C19.3001 406.758 16.6321 402.736 15.4021 400.611C13.4667 397.249 12.0106 389.999 15.2031 389.149" fill="#E8505B"/>
<path d="M29.2393 411.956C28.5976 411.08 28.1985 410.051 28.0826 408.971C27.9667 407.892 28.1379 406.801 28.5791 405.809C29.0358 404.825 29.6847 403.943 30.4876 403.213C31.2906 402.483 32.2315 401.922 33.2548 401.561C33.7094 401.349 34.2049 401.239 34.7064 401.239C35.2079 401.239 35.7034 401.349 36.158 401.561C36.5472 401.82 36.8598 402.179 37.0634 402.601C37.267 403.022 37.354 403.49 37.3156 403.956C37.2304 404.894 36.8964 405.793 36.3479 406.559C34.6024 409.271 32.4228 411.531 29.2393 411.983" fill="#E8505B"/>
<path d="M30.4151 424.006C30.3106 423.768 30.2347 423.52 30.189 423.264C30.0533 422.74 29.8724 422.053 29.6644 421.231C29.009 418.996 28.7218 416.669 28.8143 414.342C28.9405 411.998 29.6897 409.73 30.9848 407.771C31.3865 407.189 31.8538 406.655 32.3776 406.18C32.5585 406.008 32.7213 405.9 32.8208 405.818C32.9202 405.737 32.9836 405.701 32.9926 405.71C32.3177 406.37 31.7116 407.097 31.1838 407.879C29.9589 409.831 29.2494 412.061 29.1218 414.361C29.0364 416.661 29.2924 418.96 29.8815 421.185C30.0804 422.089 30.2342 422.758 30.3246 423.246C30.3776 423.496 30.4079 423.75 30.4151 424.006Z" fill="#263238"/>
<path d="M16.8491 394.573C16.9171 394.66 16.9748 394.754 17.021 394.853L17.4732 395.703C17.8711 396.444 18.4228 397.511 19.1011 398.849C20.4396 401.515 22.2484 405.176 24.1567 409.362C26.065 413.547 27.7019 417.289 28.8505 420.046C29.4203 421.42 29.8725 422.541 30.18 423.319C30.3247 423.689 30.4332 423.988 30.5237 424.223C30.5737 424.326 30.6101 424.435 30.6322 424.548C30.5693 424.452 30.5177 424.349 30.4784 424.241L30.0805 423.337L28.6696 420.101C27.4758 417.389 25.8117 413.592 23.9125 409.452C22.0133 405.312 20.2225 401.597 18.9202 398.912C18.2871 397.592 17.7626 396.517 17.3827 395.73C17.2139 395.381 17.0782 395.079 16.9757 394.826C16.9266 394.746 16.8843 394.661 16.8491 394.573Z" fill="#263238"/>
<path d="M25.3234 416.304C24.0249 414.42 22.2978 412.87 20.2838 411.783C18.2698 410.696 16.0265 410.101 13.738 410.049C12.5713 410.049 11.1966 410.32 10.7444 411.387C10.2922 412.453 11.0519 413.646 11.893 414.451C13.6726 416.088 15.8949 417.166 18.2831 417.55C20.6712 417.935 23.1196 417.608 25.3234 416.611" fill="#E8505B"/>
<path d="M15.6372 413.041C15.8807 413.016 16.1262 413.016 16.3698 413.041C16.6528 413.021 16.9369 413.021 17.2199 413.041C17.5455 413.041 17.9253 413.095 18.3414 413.176C18.7574 413.258 19.2458 413.33 19.6799 413.466C20.1924 413.591 20.6968 413.748 21.1902 413.936C22.3263 414.369 23.4094 414.93 24.4189 415.608C25.4136 416.291 26.3242 417.089 27.1321 417.985C27.4808 418.376 27.8069 418.787 28.1089 419.215C28.3798 419.585 28.6274 419.971 28.8505 420.372C29.0462 420.695 29.2214 421.03 29.3751 421.375C29.504 421.626 29.6158 421.886 29.7097 422.153C29.8106 422.373 29.8894 422.603 29.9448 422.84C29.8906 422.84 29.5469 421.881 28.6877 420.471C28.4595 420.081 28.2057 419.707 27.928 419.35C27.6477 418.953 27.304 418.564 26.9422 418.148C26.1254 417.28 25.2155 416.504 24.229 415.834C23.2422 415.176 22.1869 414.628 21.0817 414.198C20.5992 414.009 20.1071 413.846 19.6075 413.71C19.1372 413.565 18.7031 413.484 18.2871 413.393C16.6773 413.104 15.6372 413.104 15.6372 413.041Z" fill="#263238"/>
<path d="M273.392 424.629H297.973L333.236 253.982L309.667 249.11L273.392 424.629Z" fill="#4030A4"/>
<path d="M379.261 370.564L230.758 339.902L226.553 336.133L242.253 284.301L249.145 284.743L238.518 279.094L244.596 248.803L393.098 279.464L397.313 283.243L391.154 313.037L379.397 313.254L385.863 314.492L390.068 318.262L379.261 370.564Z" fill="#24167E"/>
<path d="M375.055 366.795L226.553 336.133L238.048 280.522L244.939 280.974L239.187 274.99L244.596 248.803L393.098 279.464L386.939 309.259L375.182 309.475L385.863 314.492L375.055 366.795Z" fill="#4030A4"/>
<path d="M378.357 309.15H378.04L377 309.078L373.002 308.752L370.117 308.499L366.69 308.092C364.239 307.785 361.435 307.496 358.36 306.99L353.522 306.257C351.84 305.986 350.103 305.652 348.303 305.353C344.686 304.739 340.86 303.934 336.826 303.121C328.768 301.412 319.95 299.342 310.743 297.001C292.339 292.264 275.752 287.708 263.66 284.753C260.64 283.984 257.899 283.36 255.521 282.782C253.142 282.203 250.999 281.733 249.344 281.363L245.428 280.459L244.415 280.215C244.299 280.192 244.187 280.156 244.08 280.106L244.433 280.16L245.455 280.35L249.389 281.137C251.089 281.48 253.178 281.914 255.584 282.475C257.99 283.035 260.748 283.623 263.778 284.364C275.897 287.22 292.511 291.722 310.906 296.45C320.113 298.791 328.913 300.879 336.953 302.615C340.987 303.437 344.812 304.26 348.412 304.892C350.221 305.218 351.948 305.561 353.621 305.796L358.442 306.565C361.508 307.098 364.302 307.415 366.753 307.749L370.172 308.201L373.048 308.499L377.036 308.933L378.04 309.15C378.145 309.14 378.251 309.14 378.357 309.15Z" fill="#24167E"/>
<path d="M385.818 304.413C385.699 304.356 385.587 304.286 385.483 304.205L384.579 303.528C383.756 302.94 382.58 302.009 380.961 300.906C376.503 297.78 371.858 294.93 367.051 292.373C359.914 288.604 352.446 285.499 344.74 283.098C335.293 280.198 325.542 278.402 315.681 277.747C305.181 276.979 295.16 278 286.035 278.208C281.707 278.361 277.375 278.273 273.057 277.946C269.296 277.637 265.559 277.088 261.869 276.301C256.524 275.171 251.298 273.54 246.259 271.428C244.451 270.678 243.121 270.045 242.208 269.62L241.177 269.096L240.833 268.906C240.962 268.938 241.087 268.987 241.204 269.051L242.262 269.521C243.166 269.937 244.55 270.542 246.341 271.257C251.395 273.28 256.618 274.85 261.951 275.948C265.64 276.707 269.374 277.229 273.129 277.512C277.43 277.819 281.744 277.892 286.053 277.729C295.151 277.494 305.199 276.454 315.754 277.223C325.658 277.883 335.45 279.703 344.93 282.646C352.657 285.081 360.139 288.234 367.277 292.065C372.079 294.66 376.705 297.568 381.124 300.77C382.688 301.891 383.837 302.859 384.651 303.482L385.555 304.205L385.818 304.413Z" fill="#24167E"/>
<path d="M314.035 264.522C313.812 264.626 313.578 264.708 313.339 264.766L311.304 265.372C310.4 265.634 309.341 265.941 308.066 266.231C306.791 266.52 305.353 266.918 303.725 267.207C302.097 267.496 300.343 267.876 298.425 268.111C296.508 268.346 294.446 268.653 292.284 268.897C282.867 269.838 273.371 269.632 264.004 268.283C261.851 267.939 259.798 267.641 257.908 267.225C256.018 266.809 254.245 266.448 252.645 266.05C251.044 265.652 249.615 265.236 248.358 264.884C247.101 264.531 246.024 264.188 245.156 263.889L243.148 263.193C242.911 263.122 242.681 263.028 242.461 262.913C242.707 262.949 242.949 263.006 243.184 263.085L245.219 263.682C246.124 263.953 247.173 264.269 248.439 264.585C249.705 264.902 251.152 265.336 252.735 265.67C254.318 266.005 256.09 266.439 257.99 266.773C259.889 267.107 261.924 267.451 264.067 267.776C273.403 269.065 282.856 269.272 292.239 268.391C294.392 268.156 296.445 267.966 298.353 267.659C300.261 267.352 302.034 267.089 303.653 266.755C305.272 266.42 306.719 266.14 307.994 265.851C309.269 265.562 310.363 265.318 311.25 265.083L313.312 264.576C313.55 264.533 313.793 264.515 314.035 264.522Z" fill="#24167E"/>
<path d="M274.54 317.593C274.54 317.593 274.775 317.719 275.209 317.991L277.163 319.193C278.881 320.232 281.396 321.823 284.76 323.613C288.813 325.871 293.159 327.556 297.675 328.621C299.037 328.924 300.418 329.135 301.808 329.254C303.263 329.431 304.735 329.113 305.986 328.35C306.596 327.906 307.036 327.269 307.234 326.542C307.43 325.792 307.43 325.005 307.234 324.255C306.76 322.687 305.753 321.334 304.385 320.431C293.062 312.929 277.118 307.46 259.075 306.953C256.823 306.881 254.553 306.881 252.238 306.953C249.922 307.026 247.571 307.568 246.024 309.286C245.634 309.691 245.328 310.17 245.125 310.694C244.921 311.219 244.824 311.779 244.84 312.341C244.924 313.49 245.367 314.584 246.106 315.469C247.562 317.331 249.66 318.623 251.677 319.988C259.817 325.502 268.435 330.98 278.131 334.777C287.826 338.574 298.127 340.282 307.831 338.845C310.225 338.491 312.585 337.934 314.886 337.181C317.151 336.542 319.183 335.261 320.737 333.493C322.126 331.655 322.861 329.406 322.826 327.102C322.833 324.845 322.332 322.615 321.361 320.576C319.388 316.665 316.362 313.381 312.625 311.094C309.106 308.92 305.288 307.272 301.292 306.203C297.449 305.091 293.641 304.296 290.005 303.491L279.542 301.123L247.969 293.955L239.395 291.975L237.17 291.451C236.664 291.333 236.411 291.252 236.411 291.252C236.411 291.252 236.673 291.252 237.179 291.397L239.422 291.867L248.023 293.747L279.632 300.743L290.105 303.076C293.723 303.898 297.548 304.676 301.419 305.787C305.477 306.864 309.353 308.533 312.923 310.741C316.747 313.067 319.843 316.418 321.858 320.413C322.866 322.518 323.386 324.823 323.378 327.157C323.418 329.577 322.648 331.941 321.189 333.873C319.57 335.72 317.454 337.063 315.094 337.742C312.766 338.512 310.375 339.078 307.949 339.432C298.127 340.897 287.69 339.152 277.968 335.346C268.246 331.541 259.527 326.018 251.406 320.495C249.398 319.103 247.263 317.783 245.726 315.821C244.916 314.846 244.432 313.642 244.342 312.377C244.328 311.748 244.437 311.122 244.666 310.536C244.894 309.95 245.236 309.414 245.672 308.96C246.511 308.063 247.571 307.402 248.747 307.044C249.883 306.7 251.06 306.506 252.247 306.465C254.571 306.375 256.859 306.375 259.12 306.465C277.272 307.008 293.261 312.531 304.657 320.142C306.092 321.102 307.145 322.535 307.632 324.192C307.84 325.004 307.84 325.856 307.632 326.669C307.402 327.463 306.911 328.156 306.239 328.639C304.923 329.451 303.37 329.792 301.835 329.606C300.426 329.477 299.027 329.254 297.648 328.937C293.115 327.847 288.758 326.124 284.706 323.821C281.341 322.013 278.845 320.377 277.145 319.301L275.228 318.054C274.757 317.756 274.54 317.593 274.54 317.593Z" fill="#24167E"/>
<path d="M382.933 327.229C382.627 327.196 382.325 327.139 382.028 327.057C381.468 326.895 380.626 326.741 379.55 326.551C376.477 326.112 373.355 326.136 370.289 326.623C365.757 327.391 361.361 328.813 357.239 330.845C352.233 333.409 347.399 336.296 342.768 339.487C338.092 342.694 333.193 345.564 328.108 348.074C323.912 350.071 319.434 351.413 314.831 352.051C311.723 352.465 308.569 352.376 305.489 351.789C304.656 351.624 303.834 351.407 303.029 351.138C302.743 351.062 302.464 350.959 302.197 350.831C302.488 350.877 302.775 350.943 303.056 351.03C303.617 351.193 304.449 351.373 305.525 351.572C308.572 352.067 311.678 352.089 314.732 351.636C319.285 350.95 323.709 349.582 327.855 347.577C332.902 345.059 337.767 342.193 342.415 338.998C347.087 335.792 351.97 332.905 357.031 330.357C361.209 328.322 365.669 326.926 370.262 326.217C373.365 325.758 376.522 325.795 379.614 326.325C380.448 326.477 381.273 326.679 382.083 326.931C382.375 327.002 382.66 327.102 382.933 327.229Z" fill="#24167E"/>
<path d="M380.183 341.954C380.183 342.009 379.478 341.719 378.176 341.43C376.336 341.032 374.44 340.967 372.577 341.24C369.823 341.713 367.141 342.543 364.601 343.708C361.453 345.079 358.407 346.671 355.484 348.472C352.337 350.334 349.334 352.142 346.44 353.525C343.902 354.783 341.229 355.747 338.472 356.399C336.607 356.822 334.696 357.011 332.784 356.96C332.114 356.96 331.59 356.879 331.237 356.824C331.055 356.816 330.875 356.78 330.704 356.716C330.704 356.662 331.454 356.761 332.793 356.716C334.677 356.688 336.552 356.445 338.382 355.993C341.091 355.294 343.717 354.306 346.214 353.046C349.054 351.654 352.029 349.837 355.186 347.966C358.128 346.152 361.202 344.563 364.384 343.211C366.974 342.047 369.713 341.247 372.523 340.833C374.428 340.581 376.363 340.704 378.221 341.195C378.722 341.331 379.214 341.497 379.695 341.692C379.87 341.755 380.034 341.844 380.183 341.954Z" fill="#24167E"/>
<path d="M332.341 267.053C332.341 267.207 326.616 266.077 319.625 264.549C312.634 263.022 306.963 261.648 307.026 261.503C307.09 261.358 312.751 262.47 319.742 264.007C326.733 265.544 332.368 266.909 332.341 267.053Z" fill="#263238"/>
<path d="M291.218 301.349L286.569 300.337L285.267 306.321L276.63 304.441L277.941 298.456L261.39 294.841L262.648 289.073L280.944 272.603L290.114 274.592L273.383 290.095L279.714 291.478L280.871 286.163L289.237 287.971L288.079 293.295L292.728 294.307L291.218 301.349Z" fill="white"/>
<path d="M295.143 292.084C297.395 281.76 304.494 277.087 312.498 278.823C320.502 280.558 324.979 287.763 322.727 298.086C320.475 308.409 313.375 313.091 305.417 311.356C297.458 309.62 292.891 302.407 295.143 292.084ZM313.828 296.151C315.266 289.58 313.737 286.678 310.924 286.063C308.112 285.449 305.498 287.455 304.042 294.018C302.586 300.581 304.132 303.5 306.99 304.115C309.848 304.73 312.399 302.723 313.828 296.151Z" fill="white"/>
<path d="M353.178 314.827L348.529 313.814L347.227 319.799L338.599 317.927L339.901 311.934L323.36 308.318L324.617 302.551L342.904 286.081L352.075 288.079L335.352 303.6L341.683 304.983L342.841 299.659L351.197 301.467L350.04 306.782L354.688 307.794L353.178 314.827Z" fill="white"/>
<path d="M284.624 323.532L284.163 325.484L274.748 323.279L277.651 310.723L286.822 312.874L286.361 314.827L279.533 313.227L278.764 316.49L284.823 317.909L284.38 319.835L278.312 318.416L277.498 321.869L284.624 323.532Z" fill="white"/>
<path d="M294.989 328.025L293.289 323.749C293.124 323.726 292.961 323.693 292.8 323.649L289.96 322.99L289.101 326.605L286.768 326.063L289.716 313.507L294.88 314.718C298.181 315.496 299.836 317.656 299.185 320.44C299.02 321.311 298.579 322.104 297.927 322.705C297.276 323.306 296.449 323.681 295.568 323.776L297.494 328.576L294.989 328.025ZM294.311 316.707L291.597 316.065L290.422 321.064L293.135 321.706C295.188 322.185 296.463 321.498 296.834 319.898C297.205 318.298 296.355 317.186 294.311 316.707Z" fill="white"/>
<path d="M308.112 331.098L306.402 326.822C306.238 326.798 306.075 326.765 305.914 326.723L303.083 326.063L302.224 329.724L299.891 329.173L302.839 316.617L308.003 317.828C311.304 318.605 312.95 320.766 312.299 323.55C312.135 324.421 311.694 325.215 311.043 325.816C310.391 326.417 309.563 326.792 308.681 326.886L310.599 331.685L308.112 331.098ZM307.433 319.781L304.72 319.139L303.544 324.138L306.258 324.779C308.302 325.258 309.577 324.571 309.948 322.971C310.318 321.371 309.477 320.26 307.433 319.781Z" fill="white"/>
<path d="M313.583 325.756C314.488 322.049 317.97 319.979 321.859 320.883C325.748 321.787 327.991 325.195 327.113 328.928C326.236 332.662 322.727 334.714 318.838 333.801C314.949 332.888 312.715 329.471 313.583 325.756ZM324.762 328.377C324.964 327.506 324.903 326.595 324.588 325.759C324.272 324.922 323.715 324.198 322.987 323.678C322.26 323.158 321.394 322.866 320.5 322.837C319.606 322.809 318.724 323.046 317.965 323.519C317.206 323.992 316.604 324.679 316.236 325.494C315.868 326.309 315.749 327.214 315.896 328.096C316.043 328.978 316.448 329.797 317.06 330.448C317.672 331.1 318.464 331.556 319.335 331.758C319.914 331.911 320.519 331.945 321.111 331.856C321.704 331.767 322.272 331.557 322.78 331.241C323.289 330.924 323.727 330.506 324.068 330.014C324.408 329.521 324.645 328.964 324.762 328.377Z" fill="white"/>
<path d="M336.338 337.715L334.629 333.439L334.14 333.34L331.3 332.671L330.441 336.332L328.108 335.789L331.056 323.234L336.22 324.445C339.521 325.213 341.176 327.383 340.525 330.167C340.358 331.036 339.917 331.83 339.266 332.43C338.615 333.03 337.788 333.406 336.908 333.502L338.834 338.302L336.338 337.715ZM335.66 326.388L332.946 325.756L331.771 330.754L334.484 331.396C336.528 331.875 337.803 331.188 338.174 329.588C338.545 327.988 337.704 326.867 335.66 326.388Z" fill="white"/>
<path d="M295.902 120.153C296.021 120.2 296.136 120.258 296.245 120.324L297.213 120.876C298.431 121.622 299.59 122.462 300.677 123.389C304.705 126.827 307.774 131.249 309.585 136.225C310.821 139.659 311.466 143.278 311.493 146.928C311.506 151.121 310.765 155.282 309.305 159.212C307.731 163.587 305.267 167.588 302.07 170.964C300.385 172.746 298.465 174.291 296.363 175.556C294.194 176.852 291.844 177.818 289.39 178.421C284.537 179.488 279.546 179.777 274.603 179.28C269.819 178.918 265.251 178.304 260.874 178.105C256.738 177.815 252.582 178.153 248.547 179.108C245.033 179.932 241.76 181.563 238.988 183.872C236.711 185.793 235.024 188.319 234.122 191.158C233.411 193.29 233.198 195.556 233.498 197.784C233.692 199.19 234.139 200.55 234.818 201.797C235.298 202.638 235.614 203.054 235.587 203.072C235.275 202.683 234.99 202.272 234.737 201.842C234.019 200.598 233.537 199.231 233.317 197.811C232.975 195.554 233.164 193.248 233.869 191.076C234.763 188.177 236.463 185.59 238.771 183.619C241.576 181.26 244.892 179.586 248.457 178.729C252.525 177.751 256.717 177.394 260.892 177.671C265.297 177.861 269.873 178.466 274.63 178.819C279.525 179.308 284.467 179.021 289.272 177.969C291.683 177.375 293.993 176.427 296.128 175.158C298.192 173.911 300.078 172.39 301.735 170.638C304.906 167.328 307.357 163.398 308.934 159.095C310.381 155.201 311.119 151.081 311.114 146.928C311.112 143.323 310.5 139.744 309.305 136.342C307.059 130.034 302.805 124.636 297.195 120.975L296.29 120.397C296.155 120.326 296.024 120.244 295.902 120.153Z" fill="#263238"/>
<path d="M233.335 6.02028C235.678 12.836 238.047 19.7603 238.373 26.9557C238.698 34.1511 236.709 41.7804 231.481 46.7431C225.422 52.4922 216.441 53.586 208.121 54.3905C214.108 54.5984 220.674 56.0447 224.291 60.8085C228.397 66.2955 227.059 74.1418 224.291 80.3971C221.524 86.6524 217.373 92.4829 216.242 99.2444C221.007 96.2292 226.498 94.5573 232.135 94.4057C237.773 94.254 243.346 95.6282 248.266 98.3829C253.186 101.138 257.269 105.17 260.084 110.054C262.899 114.938 264.341 120.492 264.257 126.128C269.403 116.428 278.23 108.492 288.802 105.518C299.375 102.544 311.566 104.975 319.47 112.596C316.388 108.152 314.226 103.136 313.114 97.8443C312.002 92.5524 311.961 87.0914 312.995 81.7835C314.028 76.4755 316.115 71.4283 319.131 66.9394C322.148 62.4505 326.033 58.6108 330.558 55.647C325.747 59.6425 318.222 59.1634 313.104 55.5657C307.985 51.9679 304.991 45.8934 303.879 39.7737C302.766 33.654 303.327 27.3083 303.879 21.0801C298.452 28.1218 287.21 29.7218 280.048 24.4608C272.704 19.0371 270.85 9.09371 269.557 0.0542297C270.226 8.89484 263.452 17.6722 254.733 19.2722C246.015 20.8721 236.573 15.0055 234.059 6.50842" fill="#F5F5F5"/>
<path d="M291.398 115.027C290.756 119.285 291.94 123.642 293.261 127.737C293.464 128.531 293.848 129.267 294.382 129.888C294.656 130.195 295.013 130.414 295.411 130.519C295.808 130.623 296.227 130.608 296.616 130.476C296.951 130.281 297.242 130.021 297.472 129.71C297.702 129.399 297.867 129.044 297.955 128.668C298.499 127.085 298.777 125.424 298.778 123.75C300.125 124.745 301.581 125.784 303.255 125.866C304.928 125.947 306.773 124.582 306.51 122.928C306.254 122.007 305.697 121.199 304.928 120.632L295.983 112.379L291.398 115.091" fill="#E8505B"/>
<path d="M243.645 28.9896C243.645 28.9896 219.851 46.5533 227.131 74.6209L229.528 74.9192L237.93 66.2232L249.506 82.2592L247.896 65.9068L252.852 69.5226L261.372 51.751C261.372 51.751 248.71 42.7115 250.519 33.8619C250.519 33.8619 243.085 33.4461 243.645 28.9896Z" fill="#E8505B"/>
<path d="M234.384 88.2705C235.601 95.6374 239.223 102.395 244.685 107.488L258.812 98.9913C258.812 98.9913 240.426 95.6467 234.384 88.2705Z" fill="#E8505B"/>
<path d="M263.986 107.064C263.986 107.064 270.506 117.558 287.075 117.007C298.832 116.6 306.411 101.64 303.481 87.3304L293.894 94.562L290.313 92.2479V99.8049C290.313 99.8049 286.451 105.382 281.468 102.236C281.513 102.236 277.163 111.457 263.986 107.064Z" fill="#E8505B"/>
<path d="M270.09 25.9704C269.539 26.2145 281.404 40.1985 281.504 48.5691C281.504 48.5691 285.42 40.9307 293.415 40.6053C293.415 40.6053 293.704 33.9884 300.143 35.3715C300.143 35.3534 286.369 18.9829 270.09 25.9704Z" fill="#E8505B"/>
<path d="M308.699 53.3329C308.699 53.3329 314.315 63.1859 314.126 73.2197C314.126 73.2197 305.986 64.8944 299.492 70.752L297.855 66.7927C297.855 66.7927 301.717 66.0243 301.699 61.369C301.681 56.7136 297.114 53.9747 297.114 53.9747C297.114 53.9747 305.968 61.4051 308.699 53.3329Z" fill="#E8505B"/>
<path d="M260.296 77.5316C260.296 77.6581 249.985 80.2434 237.197 83.3349C224.409 86.4264 214.017 88.7586 213.99 88.6772C213.963 88.5959 224.3 85.9654 237.089 82.8739C249.877 79.7824 260.268 77.405 260.296 77.5316Z" fill="#263238"/>
<path d="M263.009 61.1882C262.964 61.3057 257.402 59.3803 250.573 56.9306C243.745 54.4809 238.255 52.4109 238.301 52.2391C238.346 52.0674 243.908 54.047 250.736 56.4877C257.564 58.9283 263.054 61.0617 263.009 61.1882Z" fill="#263238"/>
<path d="M254.86 0.180786C254.987 0.180786 259.319 12.3479 264.546 27.4529C269.774 42.5578 273.907 54.8244 273.78 54.8696C273.654 54.9148 269.331 42.7025 264.085 27.6066C258.84 12.5106 254.743 0.225984 254.86 0.180786Z" fill="#263238"/>
<path d="M289.318 35.2539C289.381 36.1583 289.354 37.0668 289.236 37.9658C289.11 39.611 288.857 41.8889 288.441 44.3838C288.024 46.8787 287.536 49.1115 287.12 50.7114C286.943 51.5891 286.676 52.4463 286.324 53.2696C286.417 52.3796 286.574 51.4974 286.794 50.6301C287.129 49.012 287.563 46.7793 287.979 44.3025C288.395 41.8256 288.694 39.5658 288.884 37.9296C288.954 37.0272 289.099 36.1323 289.318 35.2539Z" fill="#263238"/>
<path d="M323.776 36.9805C323.839 37.098 315.925 41.8347 306.104 47.5657C296.282 53.2967 288.269 57.8526 288.205 57.7351C288.142 57.6176 296.056 52.89 305.877 47.1589C315.699 41.4279 323.721 36.872 323.776 36.9805Z" fill="#263238"/>
<path d="M323.884 80.9485C323.445 80.9562 323.006 80.9229 322.573 80.8491C321.732 80.7587 320.511 80.614 319.018 80.4061C316.016 79.9994 311.883 79.3756 307.334 78.5982C302.784 77.8208 298.669 77.0073 295.712 76.3745C294.229 76.0672 292.999 75.796 292.212 75.5971C291.778 75.527 291.353 75.4088 290.946 75.2446C291.384 75.2678 291.819 75.3253 292.248 75.4164L295.775 76.0491L307.406 78.1372L319.064 80.0898L322.6 80.6773C323.036 80.7265 323.466 80.8173 323.884 80.9485Z" fill="#263238"/>
<path d="M310.806 119.981C310.716 120.071 303.815 112.56 295.431 103.222C287.048 93.884 280.265 86.2185 280.364 86.1372C280.464 86.0558 287.355 93.5586 295.739 102.905C304.123 112.252 310.906 119.9 310.806 119.981Z" fill="#263238"/>
<path d="M255.945 116.609C256.014 116.253 256.126 115.907 256.28 115.579C256.515 114.919 256.886 113.979 257.356 112.867C258.261 110.562 259.644 107.389 261.209 103.918C262.774 100.447 264.266 97.328 265.378 95.0953C265.93 93.9834 266.391 93.0795 266.717 92.4648C266.866 92.1415 267.054 91.8378 267.277 91.5609C267.18 91.9097 267.049 92.2486 266.889 92.5733C266.554 93.2964 266.156 94.2004 265.677 95.2851C264.6 97.6535 263.19 100.709 261.643 104.153C260.097 107.597 258.722 110.67 257.664 113.048C257.181 114.114 256.774 115.018 256.443 115.76C256.305 116.058 256.138 116.343 255.945 116.609Z" fill="#263238"/>
<path d="M262.982 71.1045C262.982 71.0232 263.705 70.9508 264.79 70.517C266.188 69.9661 267.397 69.0243 268.273 67.8042C269.149 66.5842 269.654 65.1377 269.729 63.6379C269.792 62.4809 269.629 61.7667 269.729 61.7487C270.005 62.3412 270.127 62.9945 270.081 63.647C270.101 65.2354 269.613 66.7887 268.687 68.08C267.761 69.3712 266.447 70.3328 264.935 70.8243C264.317 71.0776 263.646 71.1738 262.982 71.1045Z" fill="#263238"/>
<path d="M270.479 83.9586C270.407 83.9586 270.796 83.3078 271.004 82.214C271.303 80.7925 271.043 79.3101 270.276 78.0758C269.51 76.8414 268.296 75.9503 266.889 75.5881C265.821 75.2898 265.08 75.3711 265.08 75.2898C265.69 75.1045 266.342 75.1045 266.952 75.2898C267.708 75.4386 268.426 75.7407 269.062 76.1776C269.697 76.6144 270.236 77.1767 270.645 77.8298C271.054 78.4828 271.325 79.2128 271.441 79.9746C271.558 80.7364 271.516 81.514 271.32 82.2592C271.216 82.8969 270.923 83.4888 270.479 83.9586Z" fill="#263238"/>
<path d="M288.115 76.2932C288.115 76.3655 287.319 76.0672 286.026 75.9135C284.344 75.7206 282.64 75.9377 281.061 76.5463C279.493 77.1842 278.105 78.1959 277.018 79.4932C276.177 80.4875 275.824 81.2378 275.752 81.2016C275.936 80.4966 276.276 79.8418 276.747 79.2853C277.802 77.8644 279.233 76.7658 280.878 76.1127C282.524 75.4597 284.319 75.278 286.062 75.5881C286.79 75.6677 287.491 75.9086 288.115 76.2932Z" fill="#263238"/>
<path d="M287.599 71.0141C287.059 71.0478 286.52 70.9288 286.044 70.6706C284.837 70.1324 283.858 69.1876 283.278 68.0012C282.698 66.8149 282.553 65.4624 282.869 64.1803C282.946 63.6449 283.175 63.1428 283.529 62.7339C283.602 62.7339 283.331 63.3125 283.195 64.2435C282.996 65.4507 283.182 66.69 283.727 67.7853C284.273 68.8807 285.15 69.7763 286.234 70.3452C287.057 70.8152 287.654 70.9327 287.599 71.0141Z" fill="#263238"/>
<path d="M282.3 59.6605C281.963 60.0237 281.569 60.3291 281.133 60.5645C280.133 61.3052 278.952 61.7641 277.714 61.8933C277.077 61.9318 276.44 61.8086 275.863 61.5352C275.286 61.2618 274.787 60.847 274.413 60.3295C274.248 60.1227 274.133 59.8801 274.078 59.6212C274.023 59.3622 274.03 59.094 274.097 58.838C274.226 59.2961 274.424 59.732 274.685 60.1306C275.044 60.5654 275.498 60.9121 276.012 61.144C276.527 61.376 277.087 61.487 277.651 61.4684C278.813 61.3341 279.931 60.9452 280.925 60.3295C281.346 60.0373 281.81 59.8116 282.3 59.6605Z" fill="#263238"/>
<g opacity="0.3">
<path d="M291.271 116.184C293.159 115.31 294.917 114.182 296.499 112.831L298.172 114.376C295.893 116.013 293.252 117.549 291.335 119.601C291.212 118.467 291.19 117.323 291.271 116.184Z" fill="black"/>
</g>
<path d="M296.996 112.288C296.296 113.343 295.386 114.242 294.323 114.931C293.261 115.62 292.068 116.083 290.819 116.293C290.819 116.157 292.375 115.651 294.066 114.539C295.757 113.427 296.888 112.198 296.996 112.288Z" fill="#263238"/>
<path d="M293.379 112.514C293.073 112.709 292.749 112.872 292.411 113.002C292.025 113.182 291.63 113.339 291.226 113.473C290.756 113.626 290.231 113.843 289.616 113.988C288.201 114.377 286.755 114.64 285.293 114.774C283.502 114.931 281.7 114.913 279.912 114.72C278.125 114.493 276.363 114.099 274.648 113.545C273.255 113.065 271.908 112.46 270.624 111.737C270.063 111.457 269.602 111.131 269.177 110.833C268.813 110.614 268.466 110.369 268.137 110.101C267.835 109.9 267.556 109.666 267.305 109.405C267.368 109.332 268.58 110.309 270.787 111.412C272.075 112.062 273.411 112.612 274.784 113.057C276.476 113.578 278.21 113.953 279.966 114.178C281.723 114.367 283.494 114.4 285.257 114.277C286.699 114.162 288.13 113.933 289.535 113.59C291.932 113.075 293.342 112.424 293.379 112.514Z" fill="#FAFAFA"/>
<path d="M293.93 127.393C293.266 126.334 292.852 125.138 292.718 123.895C292.433 122.676 292.433 121.408 292.718 120.189C292.854 120.189 292.845 121.834 293.189 123.805C293.532 125.775 294.039 127.339 293.93 127.393Z" fill="#FAFAFA"/>
<path d="M243.465 103.366C242.888 103.018 242.37 102.582 241.927 102.074C240.777 100.935 239.733 99.6948 238.807 98.3676C237.883 97.0403 237.077 95.6336 236.401 94.1642C236.087 93.5697 235.859 92.9336 235.723 92.275C235.859 92.2117 237.044 94.9868 239.196 98.0964C241.349 101.206 243.564 103.267 243.465 103.366Z" fill="#FAFAFA"/>
<path d="M234.972 42.9013C235.045 42.9556 234.131 44.3025 232.928 46.6437C231.366 49.6851 230.152 52.8934 229.311 56.2074C228.494 59.5247 228.06 62.9247 228.017 66.3407C228.017 68.9621 228.153 70.5893 228.072 70.5983C227.965 70.2302 227.902 69.851 227.882 69.4684C227.76 68.4301 227.693 67.386 227.683 66.3407C227.572 59.3955 229.274 52.5414 232.621 46.4539C233.116 45.5206 233.663 44.6153 234.258 43.742C234.467 43.4385 234.706 43.1568 234.972 42.9013Z" fill="#FAFAFA"/>
<path d="M241.629 35.0551C241.71 35.1545 241.149 35.7602 240.362 36.402C239.576 37.0438 238.879 37.4777 238.798 37.3782C238.716 37.2788 239.286 36.6731 240.064 36.0313C240.842 35.3895 241.547 34.9556 241.629 35.0551Z" fill="#FAFAFA"/>
<path d="M260.115 257.01C260.322 257.173 260.494 257.376 260.621 257.607C261.01 258.27 261.178 259.039 261.101 259.804C260.957 261.01 260.413 262.134 259.554 262.994C258.466 264.157 257.148 265.08 255.683 265.706C253.911 266.489 251.967 266.8 250.04 266.61C247.815 266.354 245.727 265.405 244.071 263.898C242.271 262.195 241.128 259.914 240.842 257.453C240.523 254.835 240.92 252.18 241.991 249.77C243.047 247.386 244.472 245.184 246.214 243.243C247.86 241.345 249.578 239.627 250.953 237.82C252.311 236.149 253.281 234.197 253.793 232.107C254.308 229.853 254.197 227.502 253.47 225.307C252.743 223.113 251.428 221.16 249.669 219.659C248.9 219.018 248.081 218.44 247.218 217.933C248.153 218.321 249.02 218.855 249.786 219.515C251.951 221.285 253.473 223.718 254.119 226.439C254.555 228.316 254.573 230.266 254.173 232.152C253.669 234.306 252.689 236.319 251.306 238.046C249.904 239.899 248.186 241.607 246.567 243.469C244.862 245.381 243.465 247.547 242.425 249.887C241.387 252.217 240.999 254.785 241.303 257.318C241.565 259.675 242.65 261.865 244.369 263.501C245.955 264.95 247.952 265.869 250.085 266.131C251.948 266.332 253.831 266.055 255.557 265.327C258.704 264.007 260.775 261.711 260.92 259.74C261.006 259.007 260.874 258.265 260.54 257.607C260.409 257.4 260.268 257.201 260.115 257.01Z" fill="#263238"/>
<path d="M76.9371 377.38C79.587 364.987 94.781 275.044 94.781 275.044C94.781 275.044 83.8287 276.771 81.6219 280.703C79.1981 285.015 67.3867 351.283 66.0753 373.809C64.9945 373.728 63.9092 373.728 62.8285 373.809C60.0736 373.956 57.458 375.066 55.4395 376.946C54.3138 378.128 53.5345 379.596 53.1868 381.19C52.8391 382.784 52.9364 384.443 53.4679 385.986C54.0928 387.62 55.1919 389.03 56.6243 390.035C56.4524 391.961 57.0674 394.32 58.5778 395.305C59.4578 395.86 60.4825 396.141 61.5223 396.113C62.5621 396.086 63.5706 395.751 64.4202 395.152C64.6057 395.738 64.9547 396.26 65.4264 396.656C65.8981 397.051 66.4729 397.304 67.0833 397.385C67.6937 397.466 68.3145 397.371 68.8728 397.111C69.4311 396.852 69.9039 396.439 70.2355 395.92C70.959 397.601 73.3286 397.728 75.0379 397.131C76.635 396.507 78.0506 395.493 79.1563 394.183C80.2619 392.873 81.0224 391.307 81.3687 389.629C81.6848 387.951 81.6604 386.227 81.2968 384.56C80.9333 382.892 80.238 381.314 79.2524 379.92C78.581 378.987 77.8041 378.135 76.9371 377.38Z" fill="#E8505B"/>
<g opacity="0.3">
<path d="M79.1442 364.481C72.6687 353.1 69.3766 340.978 74.2785 323.387C77.7876 310.777 84.7876 297.878 91.227 286.479" fill="black"/>
</g>
<path d="M75.6077 388.697C75.8949 388.492 76.1642 388.262 76.4126 388.01C76.7147 387.651 76.9297 387.226 77.0411 386.77C77.1525 386.314 77.1571 385.838 77.0547 385.38C76.8771 384.714 76.5085 384.114 75.9943 383.655C75.4801 383.196 74.8427 382.897 74.1606 382.795C73.3002 382.698 72.4295 382.829 71.6358 383.175C70.8421 383.521 70.1533 384.069 69.6386 384.765C68.5932 386.164 68.0143 387.856 67.9836 389.601C67.9321 391.028 68.1977 392.448 68.7613 393.76C69.3175 394.96 70.0901 396.048 71.0404 396.969C71.0404 396.969 70.95 396.969 70.7962 396.824C70.574 396.674 70.3679 396.501 70.1813 396.309C69.4636 395.618 68.8809 394.799 68.4629 393.895C67.832 392.547 67.5224 391.071 67.5585 389.583C67.5767 387.742 68.1853 385.955 69.2949 384.485C69.8522 383.74 70.594 383.154 71.4472 382.783C72.3004 382.412 73.2356 382.269 74.1606 382.37C74.922 382.482 75.633 382.817 76.2031 383.334C76.7731 383.851 77.1766 384.525 77.3622 385.272C77.4611 385.776 77.4362 386.297 77.2897 386.79C77.1433 387.282 76.8795 387.732 76.5211 388.101C76.3284 388.295 76.1054 388.457 75.8609 388.58C75.6981 388.658 75.6137 388.697 75.6077 388.697Z" fill="#263238"/>
<path d="M55.5755 389.448C55.5755 389.448 55.8921 389.647 56.4799 389.936C57.2905 390.343 58.1715 390.592 59.0756 390.668C60.4053 390.794 61.7433 390.534 62.9283 389.918C63.6301 389.566 64.2473 389.067 64.7371 388.453C64.9863 388.136 65.1678 387.771 65.2704 387.381C65.3731 386.99 65.3947 386.583 65.334 386.184C65.0115 384.724 64.2474 383.399 63.1454 382.388C62.236 381.517 61.1548 380.846 59.9709 380.417L59.4192 380.227L59.989 380.083C61.403 379.684 62.7798 379.164 64.104 378.528C63.8048 378.8 63.4664 379.025 63.1002 379.197C62.1446 379.723 61.1308 380.135 60.0795 380.426V380.083C61.3293 380.494 62.4744 381.173 63.4348 382.072C63.9953 382.593 64.4848 383.185 64.8909 383.834C65.3468 384.526 65.6547 385.305 65.7953 386.121C65.8642 386.581 65.8379 387.05 65.7181 387.5C65.5984 387.949 65.3876 388.369 65.0989 388.734C64.5726 389.393 63.9091 389.929 63.1544 390.306C61.8885 390.941 60.462 391.183 59.0575 391.003C58.1199 390.893 57.2164 390.585 56.4076 390.099C56.1919 389.971 55.989 389.822 55.8016 389.656C55.6298 389.529 55.5665 389.466 55.5755 389.448Z" fill="#263238"/>
<path d="M63.8236 389.601C63.9773 389.647 63.4347 390.948 63.6427 392.566C63.8807 393.534 64.1828 394.486 64.5471 395.414C63.7624 394.689 63.2811 393.694 63.1995 392.63C63.0976 392.109 63.1002 391.573 63.2074 391.053C63.3145 390.533 63.524 390.04 63.8236 389.601Z" fill="#263238"/>
<path d="M70.4891 383.274C70.4065 382.887 70.2663 382.516 70.0731 382.171C69.8479 381.837 69.535 381.571 69.1687 381.403C68.7055 381.209 68.1932 381.164 67.7036 381.276C66.78 381.506 65.9667 382.053 65.4064 382.822C64.9361 383.409 64.71 383.825 64.6467 383.789C64.5834 383.753 64.71 383.301 65.1351 382.623C65.4037 382.171 65.7608 381.778 66.1851 381.467C66.6094 381.157 67.092 380.935 67.6041 380.815C68.1938 380.681 68.8113 380.748 69.3586 381.005C69.7978 381.221 70.1583 381.568 70.3897 381.999C70.7514 382.74 70.5434 383.274 70.4891 383.274Z" fill="#263238"/>
<g opacity="0.3">
<path d="M60.3689 380.137C61.1007 379.947 61.8695 379.951 62.5992 380.149C63.3289 380.348 63.9942 380.733 64.5291 381.267C65.4552 380.146 66.7277 379.364 68.1467 379.043C68.8584 378.908 69.5951 379.039 70.2169 379.41C70.8387 379.782 71.3025 380.368 71.5201 381.059C72.0402 380.826 72.6078 380.72 73.1769 380.748C73.746 380.776 74.3004 380.938 74.7949 381.221C75.2894 381.504 75.7101 381.899 76.0227 382.375C76.3354 382.852 76.531 383.395 76.5938 383.961C75.7893 383.148 74.7305 382.634 73.5936 382.506C72.4567 382.378 71.3101 382.642 70.3444 383.256C70.3316 382.807 70.178 382.373 69.9054 382.017C69.6327 381.66 69.2548 381.398 68.825 381.267C68.3901 381.152 67.9351 381.134 67.4926 381.215C67.05 381.297 66.631 381.475 66.2656 381.737C65.5377 382.269 64.9586 382.979 64.5834 383.798C63.6018 382.089 62.0437 380.785 60.188 380.119" fill="black"/>
</g>
<path d="M57.2214 388.951C56.583 388.66 56.0267 388.216 55.6025 387.658C54.4656 386.374 53.7824 384.752 53.6582 383.042C53.534 381.332 53.9757 379.628 54.9152 378.194C55.2526 377.576 55.7411 377.053 56.3351 376.675C56.3894 376.729 55.8105 377.272 55.1955 378.365C54.3961 379.768 54.032 381.376 54.1496 382.985C54.2671 384.595 54.861 386.133 55.8558 387.405C56.6245 388.435 57.2757 388.887 57.2214 388.951Z" fill="white"/>
<path d="M253.35 212.364C252.753 210.638 251.125 208.911 249.37 209.408C249.564 208.824 249.586 208.196 249.434 207.599C249.282 207.002 248.962 206.461 248.512 206.04C248.062 205.618 247.501 205.335 246.895 205.222C246.289 205.11 245.664 205.173 245.093 205.404C245.024 204.367 244.648 203.373 244.014 202.549C243.38 201.725 242.515 201.108 241.529 200.776C239.793 200.233 237.586 201.246 236.202 202.584C234.52 202.107 232.733 202.148 231.074 202.701C229.526 203.258 228.163 204.232 227.136 205.517C226.11 206.802 225.46 208.346 225.259 209.978C225.082 212.73 225.88 215.456 227.511 217.68C228.887 219.573 230.477 221.302 232.25 222.832C222.935 266.321 175.209 273.896 175.209 273.896L179.731 291.397C225.467 280.097 238.065 243.659 241.493 226.538C241.9 226.538 242.298 226.538 242.696 226.538C244.402 226.417 246.067 225.954 247.591 225.178C249.115 224.401 250.467 223.327 251.568 222.019C252.648 220.686 253.377 219.104 253.688 217.418C253.999 215.732 253.883 213.994 253.35 212.364Z" fill="#E8505B"/>
<path d="M247.127 218.177C247.179 218.256 247.213 218.345 247.227 218.439C247.293 218.708 247.311 218.986 247.281 219.261C247.223 219.77 247.042 220.258 246.753 220.681C246.465 221.105 246.078 221.452 245.626 221.693C244.93 222.023 244.151 222.138 243.389 222.023C242.628 221.909 241.917 221.571 241.348 221.051C240.676 220.402 240.187 219.587 239.93 218.689C239.673 217.791 239.657 216.841 239.883 215.935C240.319 214.145 241.318 212.542 242.732 211.361C243.866 210.396 245.205 209.703 246.648 209.336C247.617 209.091 248.622 209.024 249.614 209.137C249.882 209.165 250.145 209.22 250.401 209.3C250.582 209.345 250.673 209.381 250.664 209.39C249.35 209.241 248.019 209.333 246.738 209.662C245.366 210.056 244.097 210.747 243.021 211.686C241.683 212.815 240.734 214.336 240.308 216.034C240.099 216.861 240.108 217.729 240.335 218.551C240.562 219.373 240.998 220.123 241.602 220.726C242.105 221.2 242.737 221.516 243.418 221.635C244.1 221.754 244.802 221.671 245.436 221.395C245.856 221.184 246.221 220.88 246.503 220.505C246.786 220.13 246.977 219.695 247.064 219.234C247.121 218.885 247.142 218.531 247.127 218.177Z" fill="#263238"/>
<path d="M235.072 202.168C235.072 202.168 235.162 202.168 235.334 202.168C235.586 202.213 235.834 202.276 236.076 202.358C236.964 202.676 237.774 203.178 238.455 203.831C239.479 204.808 240.19 206.066 240.498 207.447C240.684 208.268 240.684 209.121 240.498 209.942C240.397 210.396 240.205 210.825 239.933 211.202C239.661 211.58 239.315 211.898 238.916 212.138C238.195 212.547 237.397 212.802 236.573 212.889C235.814 212.984 235.045 212.984 234.285 212.889C232.995 212.716 231.76 212.259 230.668 211.551L230.921 211.325C231.359 212.325 231.683 213.371 231.889 214.443C231.984 214.834 232.024 215.235 232.006 215.637C231.655 214.21 231.183 212.816 230.595 211.469L230.351 210.945L230.858 211.253C231.936 211.897 233.137 212.307 234.385 212.455C235.867 212.674 237.381 212.427 238.717 211.75C239.063 211.544 239.364 211.269 239.6 210.943C239.837 210.616 240.004 210.245 240.091 209.851C240.259 209.092 240.259 208.306 240.091 207.546C239.819 206.241 239.175 205.042 238.237 204.093C237.603 203.443 236.851 202.918 236.022 202.548C235.416 202.285 235.063 202.213 235.072 202.168Z" fill="#263238"/>
<path d="M240.417 208.45C240.562 207.939 240.808 207.462 241.14 207.048C241.473 206.633 241.885 206.289 242.352 206.037C243.23 205.427 244.305 205.169 245.364 205.314C245.364 205.476 243.989 205.585 242.597 206.435C241.806 207.034 241.076 207.709 240.417 208.45Z" fill="#263238"/>
<path d="M239.712 217.625C239.757 217.625 239.476 218.159 238.644 218.33C238.161 218.417 237.662 218.354 237.215 218.15C236.676 217.898 236.234 217.475 235.958 216.947C235.728 216.473 235.595 215.958 235.567 215.432C235.539 214.905 235.617 214.379 235.796 213.883C236.058 213.142 236.338 212.744 236.392 212.771C236.342 213.18 236.251 213.583 236.121 213.973C235.891 214.88 235.981 215.837 236.374 216.685C236.602 217.134 236.962 217.503 237.405 217.743C237.772 217.927 238.181 218.008 238.59 217.978C238.981 217.922 239.36 217.803 239.712 217.625Z" fill="#263238"/>
<g opacity="0.3">
<path d="M230.893 211.768C231.207 212.454 231.695 213.047 232.31 213.486C232.924 213.925 233.642 214.196 234.394 214.272C234.112 215.703 234.312 217.187 234.963 218.493C235.311 219.128 235.879 219.614 236.56 219.86C237.241 220.106 237.988 220.096 238.662 219.831C238.811 220.381 239.088 220.887 239.47 221.31C239.852 221.732 240.328 222.059 240.86 222.263C241.392 222.461 241.963 222.533 242.528 222.474C243.093 222.414 243.637 222.224 244.116 221.919C242.973 221.814 241.901 221.32 241.078 220.521C240.256 219.722 239.732 218.665 239.594 217.526C239.238 217.801 238.804 217.956 238.354 217.971C237.905 217.985 237.462 217.858 237.089 217.607C236.724 217.345 236.422 217.004 236.206 216.61C235.99 216.216 235.865 215.778 235.841 215.329C235.787 214.431 235.968 213.534 236.365 212.726C234.421 213.049 232.424 212.665 230.74 211.641" fill="black"/>
</g>
<path d="M114.117 380.914C116.993 393.1 119.863 405.288 122.727 417.479C118.272 416.84 113.73 417.685 109.803 419.884C108.446 420.652 107.008 422.162 107.741 423.499C108.311 424.575 109.803 424.666 111.024 424.611C120.538 424.195 130.016 425.009 139.585 424.611L139.06 387.549" fill="#E8505B"/>
<path d="M165.704 380.914C162.841 393.1 159.971 405.288 157.095 417.479C161.553 416.839 166.098 417.684 170.028 419.884C171.384 420.652 172.813 422.162 172.09 423.499C171.511 424.575 170.028 424.666 168.807 424.611C159.283 424.195 149.769 425.009 140.246 424.611L140.77 387.549" fill="#E8505B"/>
<g opacity="0.3">
<path d="M116.125 389.43L117.31 394.266C125.088 394.682 132.63 395.866 139.16 394.429L139.097 390.162C139.097 390.162 131.048 389.737 126.435 388.526L128.542 392.386C124.307 391.863 120.142 390.872 116.125 389.43Z" fill="black"/>
</g>
<g opacity="0.3">
<path d="M140.67 394.356C140.67 394.356 148.34 396.435 155.738 395.152C161.996 394.076 162.873 392.946 162.873 392.946L164.809 384.747C164.809 384.747 156.136 389.692 142.669 387.025L149.705 389.945H140.734L140.67 394.356Z" fill="black"/>
</g>
<path d="M200.524 334.027C197.5 327.955 193.75 322.272 189.354 317.105V317.042C191.733 317.531 194.165 317.71 196.59 317.575C192.347 314.422 188.749 310.485 185.99 305.977C182.3 292.337 178.33 278.633 178.248 264.694L95.2696 264.052C93.0555 280.659 89.2144 297.009 83.8018 312.865C78.077 330.04 71.6195 350.479 83.0331 367.301C85.1294 370.301 87.745 372.903 90.7567 374.985C94.3137 378.748 98.1273 382.261 102.17 385.497L100.099 380.209L101.519 380.842C109.647 387.409 119.442 391.588 129.809 392.91C129.293 391.68 128.787 390.451 128.271 389.231C140.155 391.292 152.229 390.668 163.018 385.615C183.159 376.124 193.768 364.887 196.264 350.153C197.539 342.687 196.092 335.979 193.849 329.272L200.524 334.027Z" fill="#E8505B"/>
<path d="M173.129 338.122C173.129 338.122 173.012 338.122 172.795 338.122C172.578 338.122 172.252 338.04 171.845 337.941C170.674 337.678 169.523 337.334 168.399 336.91C164.576 335.462 161.1 333.226 158.198 330.348L158.578 330.095C158.976 331.116 159.392 332.174 159.808 333.258C160.576 335.229 161.309 337.127 161.987 338.881L162.503 340.219L161.598 339.107C159.012 335.898 156.769 333.123 155.123 331.071L153.314 328.721C153.078 328.44 152.869 328.137 152.69 327.817C152.96 328.056 153.208 328.319 153.432 328.603L155.376 330.872L161.987 338.791L161.598 339.016C160.92 337.263 160.178 335.401 159.41 333.394C158.985 332.318 158.578 331.252 158.18 330.239L157.782 329.209L158.569 329.986C161.41 332.831 164.793 335.077 168.517 336.594C169.619 337.043 170.745 337.429 171.89 337.751C172.311 337.846 172.725 337.97 173.129 338.122Z" fill="#263238"/>
<path d="M101.447 321.706C101.038 321.039 100.733 320.313 100.542 319.555C99.9437 317.76 99.5641 315.899 99.4118 314.013C99.2567 312.122 99.3265 310.22 99.6198 308.346C99.6994 307.566 99.8913 306.802 100.19 306.077C100.158 306.852 100.079 307.625 99.9545 308.391C99.7566 310.244 99.7324 312.111 99.8821 313.968C100.04 315.826 100.367 317.666 100.859 319.464C101.097 320.2 101.293 320.948 101.447 321.706Z" fill="#263238"/>
<path d="M104.223 314.646C103.941 314.137 103.748 313.584 103.653 313.01C103.324 311.657 103.148 310.271 103.129 308.879C103.11 307.489 103.244 306.1 103.527 304.739C103.61 304.165 103.787 303.61 104.051 303.094C104.196 303.094 103.545 305.67 103.599 308.879C103.653 312.088 104.368 314.574 104.223 314.646Z" fill="#263238"/>
<path d="M133.698 367.735C133.529 367.726 133.361 367.696 133.2 367.645C132.875 367.563 132.395 367.464 131.789 367.283C130.068 366.786 128.38 366.182 126.734 365.475C121.242 363.141 116.241 359.792 111.992 355.604L112.354 355.297L112.924 356.11C114.676 358.661 116.042 361.458 116.975 364.408L117.147 364.951L116.659 364.661C113.115 362.606 110.135 359.705 107.986 356.219C107.377 355.222 106.842 354.183 106.385 353.109C106.231 352.729 106.132 352.431 106.059 352.205C106.014 352.108 105.984 352.004 105.969 351.898C106.178 352.258 106.362 352.633 106.52 353.019C107.02 354.063 107.584 355.074 108.212 356.047C110.404 359.434 113.375 362.248 116.876 364.255L116.559 364.508C115.616 361.617 114.26 358.877 112.535 356.372L111.974 355.568L112.327 355.26C116.533 359.422 121.457 362.79 126.86 365.204C128.487 365.928 130.151 366.568 131.844 367.12C132.441 367.328 132.911 367.455 133.218 367.563C133.384 367.604 133.544 367.661 133.698 367.735Z" fill="#263238"/>
<path d="M91.2269 283.604C91.2389 283.676 91.2389 283.75 91.2269 283.821C91.2269 283.984 91.2269 284.192 91.1726 284.436C91.1726 284.988 91.0279 285.783 90.8923 286.814C90.6029 288.865 90.0602 291.821 89.183 295.428C88.3057 299.035 87.0667 303.283 85.5653 307.957C84.064 312.63 82.409 317.747 80.8806 323.179C79.3956 328.274 78.2684 333.466 77.5071 338.718C76.9273 343.001 76.8666 347.338 77.3263 351.636C77.6463 354.537 78.3144 357.39 79.3159 360.133C79.6867 361.091 79.9852 361.841 80.2203 362.329L80.4645 362.899C80.4986 362.961 80.523 363.028 80.5369 363.098C80.5369 363.098 80.5369 363.043 80.4284 362.917C80.3198 362.79 80.2475 362.591 80.1389 362.375C79.7703 361.666 79.4382 360.939 79.1441 360.196C78.0713 357.457 77.3511 354.592 77.0007 351.672C76.4919 347.339 76.5284 342.96 77.1092 338.637C77.8541 333.366 78.9846 328.158 80.4917 323.053C82.0291 317.629 83.7294 312.495 85.2126 307.821C86.6959 303.148 87.9801 298.935 88.9026 295.347C89.8251 291.758 90.4039 288.829 90.7114 286.786C90.8742 285.765 91.0008 284.978 91.0731 284.427L91.1726 283.812C91.1801 283.741 91.1984 283.671 91.2269 283.604Z" fill="#263238"/>
<path d="M94.7537 371.902C94.5464 371.754 94.35 371.59 94.1659 371.414C93.6134 370.947 93.0851 370.452 92.5832 369.931C90.7029 368.032 89.0655 365.906 87.7085 363.604C85.6831 360.178 84.1602 356.479 83.1865 352.621C81.9969 347.895 81.4643 343.029 81.6038 338.158C81.7731 333.289 82.3968 328.447 83.4668 323.695C84.4255 319.329 85.5469 315.46 86.5508 312.233C87.5547 309.005 88.441 306.429 89.056 304.648C89.3635 303.79 89.5987 303.103 89.7795 302.596C89.8539 302.353 89.9508 302.117 90.0689 301.891C90.0198 302.14 89.9533 302.384 89.87 302.624C89.7162 303.139 89.4992 303.835 89.2279 304.703C88.6671 306.511 87.8351 309.105 86.8674 312.332C85.8997 315.559 84.8234 319.428 83.8919 323.785C82.8579 328.5 82.2525 333.298 82.0831 338.122C81.9484 342.975 82.4686 347.825 83.6296 352.54C84.5742 356.341 86.0444 359.992 87.9979 363.387C89.3151 365.693 90.8964 367.838 92.7098 369.778C93.3248 370.492 93.8946 370.953 94.2382 371.324C94.4311 371.497 94.604 371.691 94.7537 371.902Z" fill="white"/>
<path d="M103.237 374.677C101.686 373.682 100.224 372.554 98.8689 371.306C97.4078 370.183 96.0489 368.934 94.8081 367.572C96.3538 368.571 97.812 369.699 99.1673 370.944C100.627 372.071 101.989 373.32 103.237 374.677Z" fill="white"/>
<path d="M70.4437 120.894C69.7654 121.066 53.052 128.785 56.1993 150.941C58.9126 170.349 70.4437 170.828 70.4437 170.828L91.8599 152.116C91.8599 152.116 76.3132 150.462 72.2977 139.136C68.2188 127.61 70.4437 120.894 70.4437 120.894Z" fill="#455A64"/>
<path d="M79.8043 147.75C79.8043 147.841 78.2578 147.804 75.8612 148.383C72.7278 149.119 69.8239 150.615 67.4059 152.739C64.988 154.862 63.1302 157.548 61.9967 160.559C61.0923 162.864 60.9476 164.41 60.8571 164.392C60.8424 164.028 60.8727 163.664 60.9476 163.307C61.1093 162.333 61.3544 161.374 61.6801 160.442C62.7564 157.332 64.6228 154.556 67.0962 152.385C69.5696 150.214 72.565 148.723 75.7888 148.058C76.7406 147.852 77.7094 147.734 78.6829 147.705C79.0568 147.662 79.4352 147.677 79.8043 147.75Z" fill="#263238"/>
<path d="M73.4284 140.736C73.4284 140.817 72.1713 140.591 70.1726 140.736C67.5681 140.919 65.0532 141.762 62.8649 143.185C60.6765 144.608 58.8869 146.565 57.6647 148.871C56.706 150.634 56.4166 151.863 56.3262 151.836C56.334 151.527 56.3921 151.222 56.498 150.932C56.7253 150.154 57.0282 149.4 57.4024 148.681C58.5862 146.271 60.3994 144.225 62.6503 142.76C64.9013 141.294 67.5065 140.464 70.1906 140.356C70.9945 140.319 71.8 140.358 72.5963 140.473C72.8858 140.516 73.1667 140.605 73.4284 140.736Z" fill="#263238"/>
<path d="M57.1035 136.794C57.1035 136.794 57.1035 136.568 57.3025 136.189C57.5513 135.659 57.8543 135.156 58.2069 134.688C59.3775 133.134 60.9968 131.976 62.8465 131.371C64.7131 130.772 66.735 130.882 68.5261 131.678C69.066 131.914 69.5735 132.218 70.0365 132.582C70.362 132.835 70.5158 133.007 70.4977 133.025C70.4796 133.043 69.747 132.519 68.4085 132.031C66.6711 131.362 64.7584 131.302 62.9821 131.859C61.2184 132.448 59.653 133.515 58.4601 134.941C57.5467 135.999 57.1849 136.831 57.1035 136.794Z" fill="#263238"/>
<path d="M66.2746 124.745C66.2746 124.745 65.8405 125.224 65.0537 126.074C63.9517 127.275 62.9476 128.563 62.0511 129.924C59.0243 134.399 57.2875 139.62 57.0307 145.015C56.7738 150.41 58.0069 155.772 60.595 160.514C61.364 161.951 62.244 163.326 63.2268 164.627C63.6146 165.086 63.9769 165.566 64.3121 166.064C64.1902 165.967 64.0781 165.858 63.9775 165.739C63.7694 165.513 63.4439 165.196 63.0731 164.735C62.0228 163.469 61.0932 162.107 60.2965 160.668C57.5924 155.903 56.2939 150.471 56.5516 145C56.8093 139.528 58.6126 134.242 61.7526 129.753C62.6869 128.396 63.7434 127.129 64.909 125.965C65.3069 125.54 65.6596 125.26 65.8857 125.061C65.9981 124.936 66.1293 124.829 66.2746 124.745Z" fill="#FAFAFA"/>
<path d="M197.277 122.801C197.946 122.964 214.669 130.693 211.512 152.848C208.754 172.256 197.277 172.654 197.277 172.654L175.861 153.951C175.861 153.951 191.398 152.297 195.423 140.971C199.493 129.518 197.277 122.801 197.277 122.801Z" fill="#455A64"/>
<path d="M187.907 149.649C188.266 149.591 188.63 149.576 188.993 149.603C189.981 149.638 190.964 149.759 191.932 149.965C195.156 150.626 198.153 152.115 200.626 154.287C203.098 156.459 204.961 159.238 206.031 162.349C206.358 163.281 206.603 164.24 206.764 165.215C206.844 165.567 206.877 165.929 206.864 166.29C206.764 166.29 206.601 164.763 205.715 162.457C204.583 159.448 202.727 156.763 200.31 154.641C197.894 152.519 194.991 151.025 191.859 150.29C189.454 149.712 187.898 149.748 187.907 149.649Z" fill="#263238"/>
<path d="M194.727 142.706C194.999 142.6 195.285 142.533 195.577 142.507C196.358 142.389 197.148 142.346 197.937 142.381C200.571 142.498 203.119 143.353 205.29 144.849C207.471 146.322 209.227 148.342 210.382 150.706C210.729 151.417 211.011 152.158 211.223 152.921C211.321 153.194 211.376 153.481 211.386 153.771C211.304 153.771 211.015 152.595 210.083 150.86C208.871 148.61 207.137 146.682 205.028 145.237C202.918 143.793 200.468 142.923 197.919 142.715C195.957 142.571 194.736 142.824 194.727 142.706Z" fill="#263238"/>
<path d="M210.608 138.702C210.535 138.702 210.174 137.906 209.269 136.794C208.076 135.37 206.511 134.306 204.747 133.721C202.972 133.162 201.059 133.219 199.321 133.884C197.973 134.381 197.277 134.959 197.223 134.887C197.168 134.815 197.358 134.697 197.684 134.444C198.149 134.083 198.656 133.779 199.194 133.54C200.989 132.747 203.013 132.638 204.883 133.233C206.729 133.844 208.345 135.005 209.513 136.559C209.869 137.025 210.173 137.528 210.418 138.06C210.572 138.467 210.635 138.684 210.608 138.702Z" fill="#263238"/>
<path d="M198.787 124.808C198.947 125.138 199.071 125.483 199.158 125.839C199.297 126.246 199.406 126.663 199.484 127.086C199.615 127.641 199.718 128.202 199.791 128.767C199.888 129.454 199.948 130.145 199.972 130.837C200.013 131.632 200.013 132.429 199.972 133.224C199.752 136.876 198.704 140.431 196.906 143.619C196.472 144.333 196.074 145.029 195.622 145.626C195.23 146.196 194.804 146.742 194.347 147.262C193.977 147.698 193.585 148.115 193.171 148.51C192.893 148.833 192.59 149.135 192.267 149.413C191.994 149.673 191.69 149.897 191.362 150.082C191.299 150.001 192.529 149.025 194.075 147.081C194.509 146.555 194.913 146.006 195.287 145.436C195.721 144.849 196.101 144.153 196.517 143.447C197.357 141.865 198.044 140.206 198.57 138.494C199.062 136.773 199.383 135.008 199.529 133.224C199.529 132.401 199.628 131.624 199.592 130.883C199.585 130.203 199.543 129.524 199.466 128.849C199.185 126.327 198.688 124.835 198.787 124.808Z" fill="#FAFAFA"/>
<path d="M120.629 135.592C120.629 135.592 117.807 136.397 119.019 125.097L128.714 135.592C128.714 135.592 124.771 129.12 123.713 123.47C123.713 123.47 135.959 134.797 140.209 135.592C144.46 136.388 173.545 138.006 190.503 152.541C207.46 167.077 215.157 181.151 217.002 196.401C220.005 221.106 215.546 242.158 203.834 256.287L203.436 252.247C203.436 252.247 190.91 270.416 171.927 275.704C152.943 280.992 96.7708 275.704 96.7708 275.704C96.7708 275.704 65.2705 267.225 54.3634 242.601C43.4563 217.978 49.5158 214.335 49.5158 214.335L44.8491 218.755C44.8491 218.755 43.6191 183.302 75.3908 158.191C100.434 138.403 120.629 135.592 120.629 135.592Z" fill="#E8505B"/>
<path d="M181.73 271.636C181.73 271.636 181.667 271.69 181.522 271.763L180.88 272.088C180.319 272.377 179.487 272.811 178.384 273.336C176.195 274.384 172.957 275.849 168.842 277.394C163.951 279.253 158.898 280.654 153.748 281.58C150.655 282.14 147.521 282.442 144.378 282.484C140.953 282.549 137.531 282.231 134.177 281.534L134.367 281.119L142.199 286.542L143.148 287.202L142.009 286.958L139.911 286.515L121.244 282.511L121.452 282.131L125.838 286.732L126.336 287.266L125.63 287.094C117.274 285.059 109.183 282.062 101.519 278.163C98.7152 276.735 96.5718 275.496 95.1157 274.619C94.3921 274.185 93.8405 273.824 93.4697 273.589L93.0536 273.318C93.0049 273.29 92.9594 273.256 92.918 273.218L93.0717 273.29L93.5058 273.535L95.188 274.502C96.6622 275.342 98.8056 276.545 101.636 277.937C109.309 281.749 117.384 284.69 125.712 286.705L125.504 287.058C124.087 285.575 122.625 284.044 121.117 282.466L120.611 281.941L121.325 282.095L139.992 286.081L142.09 286.524L141.909 286.949L134.077 281.48L133.173 280.82L134.294 281.064C137.607 281.753 140.986 282.077 144.369 282.032C147.49 281.999 150.602 281.712 153.676 281.173C158.807 280.28 163.847 278.924 168.734 277.123C172.876 275.623 176.105 274.194 178.321 273.2L180.844 272.025L181.504 271.727L181.73 271.636Z" fill="#263238"/>
<g opacity="0.3">
<path d="M181.73 271.636C166.482 279.32 149.226 284.563 134.222 281.29L142.054 286.759L121.253 282.312L125.712 286.913C114.137 284.121 103.08 279.507 92.9541 273.245C92.9541 273.245 109.468 290.493 128.597 291.415C160.079 292.924 181.73 271.636 181.73 271.636Z" fill="black"/>
</g>
<path d="M76.2137 247.338C76.0147 247.256 75.8264 247.149 75.653 247.022C75.3003 246.796 74.7486 246.488 74.1065 246.018C72.2424 244.716 70.5017 243.245 68.9062 241.625C63.5767 236.255 59.866 229.496 58.1981 222.118L58.6593 222.064C58.6593 222.163 58.6593 222.281 58.6593 222.398C58.795 227.243 58.9306 231.826 59.0572 235.903V236.988L58.6231 235.994C56.8142 231.888 55.6489 227.528 55.1683 223.067C55.0258 221.803 54.9473 220.533 54.9332 219.262C54.9332 218.828 54.9332 218.484 54.9332 218.258C54.922 218.141 54.922 218.023 54.9332 217.906C54.9665 218.02 54.9817 218.139 54.9784 218.258C54.9784 218.523 54.9965 218.858 55.0327 219.262C55.0779 220.165 55.1683 221.422 55.3854 223.04C55.9617 227.454 57.1804 231.76 59.003 235.822L58.596 235.912C58.4603 231.835 58.3066 227.252 58.1528 222.416V222.073L58.6231 222.019C59.5224 226.021 61.0291 229.862 63.0909 233.408C64.7592 236.309 66.7792 238.993 69.1051 241.399C70.6828 243.028 72.3918 244.525 74.215 245.874C74.839 246.371 75.3726 246.696 75.7073 246.949C75.8861 247.065 76.0555 247.195 76.2137 247.338Z" fill="#263238"/>
<path d="M201.311 224.947C201.388 224.796 201.482 224.653 201.591 224.523L202.495 223.374C202.848 222.868 203.21 222.19 203.671 221.431C203.861 221.033 204.06 220.599 204.268 220.147L204.594 219.451C204.684 219.198 204.783 218.945 204.874 218.683C206.511 214.525 207.497 208.333 207.442 201.508C207.442 200.541 207.442 199.583 207.343 198.661L207.225 196.853L207.804 198.57C208.401 200.378 208.98 202.059 209.513 203.668H209.097C209.869 201.608 210.249 199.423 210.219 197.223C210.196 195.492 209.928 193.772 209.423 192.116C208.951 190.65 208.346 189.231 207.614 187.876C207.614 187.876 207.696 187.958 207.813 188.13C207.931 188.301 208.112 188.545 208.311 188.898C208.889 189.891 209.362 190.943 209.721 192.035C210.981 195.861 210.921 199.998 209.55 203.786L209.333 204.374L209.134 203.777L207.397 198.688L207.849 198.597C207.922 199.501 207.94 200.496 207.949 201.472C208.003 208.342 206.963 214.588 205.236 218.764C205.127 219.026 205.028 219.289 204.928 219.533C204.829 219.777 204.702 220.012 204.584 220.238C204.358 220.69 204.15 221.142 203.942 221.521C203.454 222.281 203.038 222.95 202.685 223.447L201.781 224.55C201.643 224.703 201.484 224.836 201.311 224.947Z" fill="#263238"/>
<path d="M161.273 157.766C161.062 157.786 160.85 157.786 160.64 157.766C160.233 157.766 159.618 157.766 158.831 157.712C156.617 157.574 154.416 157.272 152.247 156.808C145.026 155.336 138.228 152.265 132.35 147.823L132.657 147.47L132.811 147.633C135.778 150.643 138.599 153.517 141.168 156.139L141.665 156.645L140.978 156.5C138.415 155.992 135.964 155.027 133.743 153.653C131.995 152.587 130.404 151.285 129.013 149.784C128.109 148.808 127.301 147.749 126.598 146.62C126.354 146.232 126.2 145.906 126.082 145.716C126.016 145.616 125.964 145.506 125.929 145.391C126.212 145.768 126.475 146.16 126.716 146.566C127.464 147.65 128.299 148.671 129.212 149.621C130.61 151.075 132.198 152.334 133.933 153.364C136.142 154.683 138.567 155.601 141.096 156.076L140.897 156.446L132.513 147.958L132.359 147.804L132.666 147.452C138.487 151.849 145.192 154.933 152.319 156.491C154.473 156.961 156.654 157.296 158.849 157.495C159.627 157.585 160.233 157.594 160.658 157.639C160.867 157.658 161.073 157.7 161.273 157.766Z" fill="#263238"/>
<path d="M101.501 146.069L101.284 146.168L100.641 146.403C100.081 146.611 99.2215 146.864 98.1634 147.307C86.6055 151.516 76.2003 158.384 67.7887 167.355C59.377 176.326 53.1949 187.149 49.7417 198.95C48.8302 202.041 48.1024 205.183 47.5621 208.36C47.3451 209.49 47.2546 210.367 47.1551 210.963C47.1551 211.234 47.0737 211.46 47.0376 211.641C47.0014 211.822 47.0376 211.867 47.0376 211.867C47.0256 211.789 47.0256 211.71 47.0376 211.632C47.0376 211.451 47.0376 211.225 47.1009 210.954C47.1823 210.358 47.2365 209.463 47.4265 208.333C47.8925 205.136 48.5723 201.974 49.4614 198.868C50.7679 194.247 52.506 189.759 54.6526 185.463C59.9041 174.874 67.5414 165.647 76.9642 158.507C80.7844 155.595 84.869 153.047 89.1646 150.896C92.0557 149.439 95.0408 148.177 98.1001 147.117C99.1763 146.72 100.035 146.494 100.614 146.313L101.265 146.123C101.341 146.093 101.42 146.075 101.501 146.069Z" fill="#FAFAFA"/>
<path d="M60.5315 245.015C60.2033 244.742 59.9006 244.439 59.6271 244.111C59.3377 243.813 59.0031 243.433 58.6323 242.972C58.2615 242.511 57.8183 242.005 57.4023 241.381C56.373 239.973 55.4509 238.489 54.6438 236.943C53.6602 235.045 52.8315 233.071 52.1658 231.04C51.523 229 51.0481 226.911 50.7459 224.794C50.5019 223.066 50.387 221.323 50.4022 219.578C50.4022 218.837 50.4565 218.159 50.4836 217.571C50.5107 216.984 50.574 216.477 50.6283 216.062C50.6615 215.634 50.7342 215.21 50.8454 214.796C50.8889 215.223 50.8889 215.653 50.8454 216.08C50.8454 216.495 50.7821 216.984 50.7821 217.58C50.7821 218.177 50.7368 218.837 50.7821 219.578C50.8148 221.303 50.9598 223.024 51.2162 224.73C51.5471 226.817 52.0277 228.877 52.6542 230.895C53.3165 232.901 54.1235 234.855 55.0689 236.744C55.8501 238.285 56.7355 239.771 57.7188 241.191C58.1167 241.815 58.5418 242.33 58.8855 242.809C59.2292 243.288 59.5457 243.713 59.7899 243.994C60.0716 244.308 60.3201 244.65 60.5315 245.015Z" fill="#FAFAFA"/>
<path d="M68.011 253.485C68.011 253.612 67.1066 253.413 66.2022 252.78C65.2978 252.147 64.7913 251.388 64.8908 251.315C64.9903 251.243 65.6143 251.804 66.4735 252.391C67.3327 252.979 68.0562 253.358 68.011 253.485Z" fill="#FAFAFA"/>
<path d="M122.998 137.002C121.695 135.897 120.684 134.489 120.053 132.902C119.422 131.315 119.191 129.597 119.381 127.9C119.585 129.543 119.961 131.161 120.502 132.727C121.183 134.235 122.02 135.668 122.998 137.002Z" fill="#FAFAFA"/>
<g opacity="0.3">
<path d="M114.859 237.187L116.505 234.475C116.449 234.738 116.457 235.011 116.528 235.27C116.599 235.529 116.73 235.768 116.912 235.966C117.28 236.357 117.715 236.678 118.196 236.916C119.101 237.413 120.294 237.82 121.217 237.331C121.638 237.006 121.95 236.56 122.112 236.053C122.273 235.546 122.276 235.002 122.121 234.493C121.949 233.652 121.57 232.875 121.343 232.052C121.203 231.648 121.145 231.22 121.173 230.793C121.201 230.366 121.314 229.949 121.506 229.567C122.125 228.797 123.008 228.284 123.984 228.129C127.477 227.105 131.124 226.707 134.756 226.954C138.4 227.226 141.892 228.531 144.822 230.715C144.578 229.431 143.429 228.527 142.298 227.849C139.966 226.449 137.374 225.535 134.68 225.16C131.985 224.786 129.242 224.96 126.616 225.67C123.984 226.413 121.556 227.747 119.519 229.571C117.481 231.395 115.887 233.659 114.859 236.192" fill="black"/>
</g>
<path d="M117.273 232.396C117.616 233.931 118.448 235.314 119.643 236.337C119.835 236.555 120.085 236.713 120.364 236.793C120.643 236.873 120.939 236.872 121.217 236.789C121.804 236.482 121.823 235.659 121.714 234.981C121.392 233.055 120.691 231.211 119.652 229.557" fill="#FAFAFA"/>
<path d="M147.661 232.396C147.324 233.931 146.495 235.315 145.301 236.337C145.108 236.556 144.856 236.714 144.576 236.794C144.295 236.874 143.998 236.873 143.718 236.789C143.13 236.482 143.112 235.659 143.23 234.981C143.544 233.053 144.245 231.208 145.292 229.557" fill="#FAFAFA"/>
<path d="M151.939 236.455C151.65 236.681 150.013 234.647 146.802 232.079C144.932 230.608 142.888 229.373 140.716 228.4C138.083 227.243 135.259 226.578 132.386 226.439C129.539 226.287 126.693 226.759 124.048 227.822C121.899 228.723 119.966 230.069 118.377 231.772C115.664 234.719 115.175 237.395 114.759 237.295C114.615 237.295 114.533 236.59 114.759 235.379C115.173 233.674 115.947 232.077 117.029 230.696C118.631 228.617 120.709 226.952 123.089 225.842C126.014 224.516 129.215 223.914 132.422 224.089C135.596 224.236 138.706 225.036 141.557 226.439C143.856 227.571 145.966 229.049 147.815 230.823C150.963 233.86 152.129 236.31 151.939 236.455Z" fill="#263238"/>
<g opacity="0.3">
<path d="M139.829 248.188C139.974 248.459 139.205 249.218 137.677 249.996C135.656 250.939 133.468 251.471 131.24 251.56C129.011 251.648 126.788 251.292 124.699 250.511C123.116 249.878 122.293 249.182 122.41 248.893C122.673 248.269 126.444 249.435 131.147 249.2C135.85 248.965 139.513 247.582 139.829 248.188Z" fill="black"/>
</g>
<path d="M97.9917 181.594C120.465 189.324 144.845 189.536 167.45 182.2C167.45 182.2 162.991 213.901 132.775 215.646C102.559 217.39 97.9917 181.594 97.9917 181.594Z" fill="#FAFAFA"/>
<path d="M121.018 187.018C119.926 194.438 121.151 202.014 124.527 208.712C125.324 210.595 126.536 212.273 128.072 213.621C128.851 214.282 129.787 214.73 130.79 214.924C131.793 215.117 132.829 215.048 133.797 214.724C135.606 213.973 136.764 212.138 137.596 210.34C141.259 202.484 141.593 196.075 141.973 187.424C135.335 189.124 128.326 188.817 121.018 187.018Z" fill="#263238"/>
<g opacity="0.3">
<path d="M162.964 198.977C163.082 199.04 162.702 200.089 161.698 201.824C160.222 204.265 158.41 206.486 156.317 208.423C154.875 209.775 153.326 211.008 151.686 212.111C149.782 213.357 147.773 214.433 145.681 215.329C140.857 217.429 135.614 218.391 130.359 218.14C125.103 217.89 119.976 216.433 115.374 213.883C113.376 212.797 111.478 211.536 109.704 210.114C108.179 208.859 106.755 207.486 105.444 206.01C103.545 203.884 101.956 201.501 100.723 198.932C99.882 197.124 99.6016 196.03 99.7282 195.976C99.8548 195.922 100.461 196.88 101.537 198.48C103.027 200.782 104.752 202.923 106.683 204.871C108.009 206.203 109.426 207.442 110.925 208.577C112.656 209.854 114.489 210.988 116.405 211.967C120.766 214.251 125.573 215.556 130.491 215.79C135.408 216.024 140.318 215.182 144.876 213.323C146.875 212.526 148.808 211.57 150.655 210.466C152.254 209.475 153.783 208.375 155.231 207.176C157.345 205.422 159.272 203.456 160.983 201.309C162.15 199.772 162.792 198.868 162.964 198.977Z" fill="black"/>
</g>
<g opacity="0.3">
<path d="M160.64 176.912C159.677 176.744 158.688 176.958 157.881 177.508C149.552 181.637 140.196 183.24 130.966 182.118C121.805 180.979 112.381 177.779 105.381 171.759C103.481 172.771 102.993 175.447 103.816 177.427C104.639 179.406 106.439 180.826 108.248 181.992C114.571 185.933 121.767 188.262 129.203 188.771C136.62 189.272 144.069 188.567 151.261 186.683C154.806 185.779 158.496 184.595 160.838 181.775C161.487 181.063 161.895 180.164 162.005 179.208C162.047 178.73 161.938 178.252 161.693 177.84C161.448 177.428 161.079 177.103 160.64 176.912Z" fill="black"/>
</g>
<path d="M159.455 176.677C159.799 177.156 157.447 179.75 152.446 182.29C149.51 183.763 146.393 184.845 143.176 185.508C135.197 187.185 126.896 186.391 119.381 183.23C116.348 181.965 113.491 180.315 110.879 178.322C106.457 174.878 104.639 171.877 105.073 171.479C105.507 171.081 108.175 173.052 112.706 175.538C118.497 178.836 124.922 180.869 131.557 181.503C138.192 182.138 144.886 181.358 151.198 179.217C156.109 177.635 159.057 176.089 159.455 176.677Z" fill="#263238"/>
<path d="M127.665 208.586C127.665 208.586 127.457 208.405 127.159 208.016C126.744 207.468 126.363 206.895 126.019 206.299C124.873 204.33 124.04 202.196 123.55 199.971C123.062 197.744 122.915 195.454 123.116 193.183C123.178 192.496 123.284 191.813 123.433 191.14C123.541 190.67 123.614 190.408 123.65 190.417C123.686 190.426 123.532 191.483 123.451 193.201C123.235 197.678 124.222 202.132 126.309 206.1C127.114 207.664 127.729 208.541 127.665 208.586Z" fill="#FAFAFA"/>
<path d="M174.631 180.328C173.689 180.883 172.688 181.328 171.646 181.657C170.66 182.046 169.467 182.516 168.029 182.959C166.591 183.402 164.99 183.989 163.163 184.441C161.336 184.893 159.355 185.49 157.176 185.915C156.09 186.141 154.978 186.412 153.811 186.611L150.194 187.208C144.839 187.999 139.436 188.41 134.023 188.437C128.606 188.422 123.197 188.03 117.834 187.262C115.374 186.837 113.023 186.493 110.87 185.978C109.785 185.734 108.736 185.517 107.741 185.264L104.91 184.496C103.102 184.026 101.474 183.456 100.054 182.995C99.3393 182.751 98.6791 182.543 98.0822 182.326L96.4452 181.675C95.4045 181.343 94.406 180.891 93.4697 180.328C93.5511 180.084 97.9103 181.73 105.164 183.528L108.013 184.206C109.007 184.432 110.056 184.613 111.133 184.83C113.276 185.291 115.6 185.589 118.042 185.978C123.349 186.655 128.692 187.005 134.041 187.027C139.392 187 144.736 186.628 150.04 185.915L153.603 185.391C154.761 185.21 155.873 184.966 156.95 184.767C159.111 184.396 161.101 183.863 162.919 183.474C164.737 183.086 166.364 182.57 167.802 182.2C169.24 181.829 170.461 181.449 171.465 181.142C172.486 180.751 173.548 180.478 174.631 180.328Z" fill="#263238"/>
<path d="M412 424.629C412 424.756 319.751 424.864 206.014 424.864C92.2761 424.864 0 424.756 0 424.629C0 424.503 92.2489 424.394 206.014 424.394C319.778 424.394 412 424.503 412 424.629Z" fill="#263238"/>
<path d="M160.278 129.49L155.376 107.443L167.061 106.241L170.859 86.562L172.551 110.869L160.685 112.053L160.278 129.49Z" fill="#E8505B"/>
<path d="M166.898 132.392L174.459 116.609L182.164 121.463L193.885 111.276L183.286 126.905L175.49 121.952L166.898 132.392Z" fill="#E8505B"/>
<path opacity="0.6" d="M160.278 129.49L155.376 107.443L167.061 106.241L170.859 86.562L172.551 110.869L160.685 112.053L160.278 129.49Z" fill="white"/>
<path opacity="0.6" d="M166.898 132.392L174.459 116.609L182.164 121.463L193.885 111.276L183.286 126.905L175.49 121.952L166.898 132.392Z" fill="white"/>
</svg>
