<svg width="25" height="24" viewBox="0 0 25 24" fill="none" xmlns="http://www.w3.org/2000/svg">
<g clip-path="url(#clip0_273_30086)">
<path d="M19.1 6.62C17.66 6.62 16.3 7.17999 15.33 8.14999L8.3 14.39C7.66 15.03 6.81 15.38 5.9 15.38C4.03 15.38 2.5 13.87 2.5 12C2.5 10.13 4.03 8.62 5.9 8.62C6.81 8.62 7.66 8.96999 8.34 9.64999L9.47 10.65L11 9.31L9.72 8.2C8.7 7.18 7.34 6.62 5.9 6.62C2.92 6.62 0.5 9.04 0.5 12C0.5 14.96 2.92 17.38 5.9 17.38C7.34 17.38 8.7 16.82 9.67 15.85L16.7 9.60999C17.34 8.97 18.19 8.62 19.1 8.62C20.97 8.62 22.5 10.13 22.5 12C22.5 13.87 20.97 15.38 19.1 15.38C18.2 15.38 17.34 15.03 16.66 14.35L15.5 13.34L14 14.68L15.28 15.8C16.3 16.81 17.65 17.37 19.1 17.37C22.08 17.37 24.5 14.96 24.5 12C24.5 9 22.08 6.62 19.1 6.62Z" fill="black"/>
</g>
<defs>
<clipPath id="clip0_273_30086">
<rect width="24" height="24" fill="white" transform="translate(0.5)"/>
</clipPath>
</defs>
</svg>
