<svg width="25" height="24" viewBox="0 0 25 24" fill="none" xmlns="http://www.w3.org/2000/svg">
<path d="M10 8.5L11.5 10L8.5 13L11.5 16L10 17.5L5.5 13L10 8.5ZM15 17.5L13.5 16L16.5 13L13.5 10L15 8.5L19.5 13L15 17.5ZM21.5 2H3.5C2.96957 2 2.46086 2.21071 2.08579 2.58579C1.71071 2.96086 1.5 3.46957 1.5 4V20C1.5 20.5304 1.71071 21.0391 2.08579 21.4142C2.46086 21.7893 2.96957 22 3.5 22H21.5C22.0304 22 22.5391 21.7893 22.9142 21.4142C23.2893 21.0391 23.5 20.5304 23.5 20V4C23.5 3.46957 23.2893 2.96086 22.9142 2.58579C22.5391 2.21071 22.0304 2 21.5 2ZM21.5 20H3.5V6H21.5V20Z" fill="black"/>
</svg>
