<svg width="25" height="24" viewBox="0 0 25 24" fill="none" xmlns="http://www.w3.org/2000/svg">
<path d="M4.5 12C4.5 12.2652 4.60536 12.5196 4.79289 12.7071C4.98043 12.8946 5.23478 13 5.5 13H13.09L10.79 15.29C10.6963 15.383 10.6219 15.4936 10.5711 15.6154C10.5203 15.7373 10.4942 15.868 10.4942 16C10.4942 16.132 10.5203 16.2627 10.5711 16.3846C10.6219 16.5064 10.6963 16.617 10.79 16.71C10.883 16.8037 10.9936 16.8781 11.1154 16.9289C11.2373 16.9797 11.368 17.0058 11.5 17.0058C11.632 17.0058 11.7627 16.9797 11.8846 16.9289C12.0064 16.8781 12.117 16.8037 12.21 16.71L16.21 12.71C16.301 12.6149 16.3724 12.5028 16.42 12.38C16.52 12.1365 16.52 11.8635 16.42 11.62C16.3724 11.4972 16.301 11.3851 16.21 11.29L12.21 7.29C12.1168 7.19676 12.0061 7.1228 11.8842 7.07234C11.7624 7.02188 11.6319 6.99591 11.5 6.99591C11.3681 6.99591 11.2376 7.02188 11.1158 7.07234C10.9939 7.1228 10.8832 7.19676 10.79 7.29C10.6968 7.38324 10.6228 7.49393 10.5723 7.61575C10.5219 7.73757 10.4959 7.86814 10.4959 8C10.4959 8.13186 10.5219 8.26243 10.5723 8.38425C10.6228 8.50607 10.6968 8.61676 10.79 8.71L13.09 11H5.5C5.23478 11 4.98043 11.1054 4.79289 11.2929C4.60536 11.4804 4.5 11.7348 4.5 12ZM17.5 2H7.5C6.70435 2 5.94129 2.31607 5.37868 2.87868C4.81607 3.44129 4.5 4.20435 4.5 5V8C4.5 8.26522 4.60536 8.51957 4.79289 8.70711C4.98043 8.89464 5.23478 9 5.5 9C5.76522 9 6.01957 8.89464 6.20711 8.70711C6.39464 8.51957 6.5 8.26522 6.5 8V5C6.5 4.73478 6.60536 4.48043 6.79289 4.29289C6.98043 4.10536 7.23478 4 7.5 4H17.5C17.7652 4 18.0196 4.10536 18.2071 4.29289C18.3946 4.48043 18.5 4.73478 18.5 5V19C18.5 19.2652 18.3946 19.5196 18.2071 19.7071C18.0196 19.8946 17.7652 20 17.5 20H7.5C7.23478 20 6.98043 19.8946 6.79289 19.7071C6.60536 19.5196 6.5 19.2652 6.5 19V16C6.5 15.7348 6.39464 15.4804 6.20711 15.2929C6.01957 15.1054 5.76522 15 5.5 15C5.23478 15 4.98043 15.1054 4.79289 15.2929C4.60536 15.4804 4.5 15.7348 4.5 16V19C4.5 19.7956 4.81607 20.5587 5.37868 21.1213C5.94129 21.6839 6.70435 22 7.5 22H17.5C18.2956 22 19.0587 21.6839 19.6213 21.1213C20.1839 20.5587 20.5 19.7956 20.5 19V5C20.5 4.20435 20.1839 3.44129 19.6213 2.87868C19.0587 2.31607 18.2956 2 17.5 2Z" fill="black"/>
</svg>
