<svg width="25" height="24" viewBox="0 0 25 24" fill="none" xmlns="http://www.w3.org/2000/svg">
<path d="M7.5 14H9.5C9.76522 14 10.0196 13.8946 10.2071 13.7071C10.3946 13.5196 10.5 13.2652 10.5 13C10.5 12.7348 10.3946 12.4804 10.2071 12.2929C10.0196 12.1054 9.76522 12 9.5 12H7.5C7.23478 12 6.98043 12.1054 6.79289 12.2929C6.60536 12.4804 6.5 12.7348 6.5 13C6.5 13.2652 6.60536 13.5196 6.79289 13.7071C6.98043 13.8946 7.23478 14 7.5 14ZM13.5 16H7.5C7.23478 16 6.98043 16.1054 6.79289 16.2929C6.60536 16.4804 6.5 16.7348 6.5 17C6.5 17.2652 6.60536 17.5196 6.79289 17.7071C6.98043 17.8946 7.23478 18 7.5 18H13.5C13.7652 18 14.0196 17.8946 14.2071 17.7071C14.3946 17.5196 14.5 17.2652 14.5 17C14.5 16.7348 14.3946 16.4804 14.2071 16.2929C14.0196 16.1054 13.7652 16 13.5 16ZM19.5 2H5.5C4.70435 2 3.94129 2.31607 3.37868 2.87868C2.81607 3.44129 2.5 4.20435 2.5 5V19C2.5 19.7956 2.81607 20.5587 3.37868 21.1213C3.94129 21.6839 4.70435 22 5.5 22H19.5C20.2956 22 21.0587 21.6839 21.6213 21.1213C22.1839 20.5587 22.5 19.7956 22.5 19V5C22.5 4.20435 22.1839 3.44129 21.6213 2.87868C21.0587 2.31607 20.2956 2 19.5 2ZM14.5 4V7.29L12.99 6.45C12.838 6.36223 12.6655 6.31603 12.49 6.31603C12.3145 6.31603 12.142 6.36223 11.99 6.45L10.5 7.29V4H14.5ZM20.5 19C20.5 19.2652 20.3946 19.5196 20.2071 19.7071C20.0196 19.8946 19.7652 20 19.5 20H5.5C5.23478 20 4.98043 19.8946 4.79289 19.7071C4.60536 19.5196 4.5 19.2652 4.5 19V5C4.5 4.73478 4.60536 4.48043 4.79289 4.29289C4.98043 4.10536 5.23478 4 5.5 4H8.5V9C8.50105 9.17451 8.54776 9.34571 8.63547 9.49658C8.72319 9.64746 8.84886 9.77274 9 9.86C9.15202 9.94777 9.32446 9.99397 9.5 9.99397C9.67554 9.99397 9.84798 9.94777 10 9.86L12.5 8.47L15.01 9.87C15.1595 9.9547 15.3282 9.99947 15.5 10C15.7652 10 16.0196 9.89464 16.2071 9.70711C16.3946 9.51957 16.5 9.26522 16.5 9V4H19.5C19.7652 4 20.0196 4.10536 20.2071 4.29289C20.3946 4.48043 20.5 4.73478 20.5 5V19Z" fill="black"/>
</svg>
