<svg width="25" height="24" viewBox="0 0 25 24" fill="none" xmlns="http://www.w3.org/2000/svg">
<path d="M21.5 10C21.6313 10 21.7614 9.97419 21.8827 9.92395C22.0041 9.8737 22.1143 9.80005 22.2072 9.70718C22.3 9.61432 22.3737 9.50406 22.4239 9.38272C22.4742 9.26138 22.5 9.13133 22.5 9V6C22.5001 5.79017 22.4341 5.58565 22.3114 5.41544C22.1887 5.24524 22.0155 5.11799 21.8164 5.05176L12.8164 2.05176C12.611 1.9834 12.389 1.9834 12.1836 2.05176L3.18359 5.05176C2.98449 5.11799 2.81131 5.24524 2.68861 5.41544C2.5659 5.58565 2.49991 5.79017 2.5 6V9C2.49997 9.13133 2.52581 9.26138 2.57605 9.38272C2.62629 9.50406 2.69995 9.61432 2.79282 9.70718C2.88568 9.80005 2.99594 9.8737 3.11728 9.92395C3.23862 9.97419 3.36867 10 3.5 10H4.5V17.1843C3.91674 17.3897 3.41137 17.7707 3.05327 18.2748C2.69517 18.779 2.5019 19.3816 2.5 20V22C2.49997 22.1313 2.52581 22.2614 2.57605 22.3827C2.62629 22.5041 2.69995 22.6143 2.79282 22.7072C2.88568 22.8 2.99594 22.8737 3.11728 22.9239C3.23862 22.9742 3.36867 23 3.5 23H21.5C21.6313 23 21.7614 22.9742 21.8827 22.9239C22.0041 22.8737 22.1143 22.8 22.2072 22.7072C22.3 22.6143 22.3737 22.5041 22.4239 22.3827C22.4742 22.2614 22.5 22.1313 22.5 22V20C22.4981 19.3816 22.3048 18.779 21.9467 18.2748C21.5886 17.7707 21.0833 17.3897 20.5 17.1843V10H21.5ZM20.5 21H4.5V20C4.50026 19.7349 4.60571 19.4807 4.79319 19.2932C4.98066 19.1057 5.23486 19.0003 5.5 19H19.5C19.7651 19.0003 20.0193 19.1057 20.2068 19.2932C20.3943 19.4807 20.4997 19.7349 20.5 20V21ZM6.5 17V10H8.5V17H6.5ZM10.5 17V10H14.5V17H10.5ZM16.5 17V10H18.5V17H16.5ZM4.5 8V6.7207L12.5 4.0537L20.5 6.7207V8H4.5Z" fill="black"/>
</svg>
