<svg width="25" height="24" viewBox="0 0 25 24" fill="none" xmlns="http://www.w3.org/2000/svg">
<path d="M18.5 8C17.4391 8 16.4217 8.42143 15.6716 9.17157C14.9214 9.92172 14.5 10.9391 14.5 12C14.503 12.705 14.6965 13.396 15.06 14H9.94C10.3036 13.396 10.497 12.705 10.5 12C10.5 11.2089 10.2654 10.4355 9.82588 9.77772C9.38635 9.11993 8.76164 8.60723 8.03074 8.30448C7.29983 8.00173 6.49556 7.92252 5.71964 8.07686C4.94372 8.2312 4.23098 8.61216 3.67157 9.17157C3.11216 9.73098 2.7312 10.4437 2.57686 11.2196C2.42252 11.9956 2.50173 12.7998 2.80448 13.5307C3.10723 14.2616 3.61992 14.8864 4.27772 15.3259C4.93552 15.7654 5.70888 16 6.5 16H18.5C19.5609 16 20.5783 15.5786 21.3284 14.8284C22.0786 14.0783 22.5 13.0609 22.5 12C22.5 10.9391 22.0786 9.92172 21.3284 9.17157C20.5783 8.42143 19.5609 8 18.5 8ZM6.5 14C6.10444 14 5.71776 13.8827 5.38886 13.6629C5.05996 13.4432 4.80362 13.1308 4.65224 12.7654C4.50087 12.3999 4.46126 11.9978 4.53843 11.6098C4.6156 11.2219 4.80608 10.8655 5.08579 10.5858C5.36549 10.3061 5.72186 10.1156 6.10982 10.0384C6.49778 9.96126 6.89992 10.0009 7.26537 10.1522C7.63082 10.3036 7.94318 10.56 8.16294 10.8889C8.3827 11.2178 8.5 11.6044 8.5 12C8.5 12.5304 8.28929 13.0391 7.91422 13.4142C7.53914 13.7893 7.03044 14 6.5 14ZM18.5 14C18.1044 14 17.7178 13.8827 17.3889 13.6629C17.06 13.4432 16.8036 13.1308 16.6522 12.7654C16.5009 12.3999 16.4613 11.9978 16.5384 11.6098C16.6156 11.2219 16.8061 10.8655 17.0858 10.5858C17.3655 10.3061 17.7219 10.1156 18.1098 10.0384C18.4978 9.96126 18.8999 10.0009 19.2654 10.1522C19.6308 10.3036 19.9432 10.56 20.1629 10.8889C20.3827 11.2178 20.5 11.6044 20.5 12C20.5 12.5304 20.2893 13.0391 19.9142 13.4142C19.5391 13.7893 19.0304 14 18.5 14Z" fill="black"/>
</svg>
