<svg width="21" height="21" viewBox="0 0 21 21" fill="none" xmlns="http://www.w3.org/2000/svg">
<path d="M9.5 7.5H13.5C13.7652 7.5 14.0196 7.39464 14.2071 7.20711C14.3946 7.01957 14.5 6.76522 14.5 6.5C14.5 6.23478 14.3946 5.98043 14.2071 5.79289C14.0196 5.60536 13.7652 5.5 13.5 5.5H11.5V4.5C11.5 4.23478 11.3946 3.98043 11.2071 3.79289C11.0196 3.60536 10.7652 3.5 10.5 3.5C10.2348 3.5 9.98043 3.60536 9.79289 3.79289C9.60536 3.98043 9.5 4.23478 9.5 4.5V5.5C8.70435 5.5 7.94129 5.81607 7.37868 6.37868C6.81607 6.94129 6.5 7.70435 6.5 8.5C6.5 9.29565 6.81607 10.0587 7.37868 10.6213C7.94129 11.1839 8.70435 11.5 9.5 11.5H11.5C11.7652 11.5 12.0196 11.6054 12.2071 11.7929C12.3946 11.9804 12.5 12.2348 12.5 12.5C12.5 12.7652 12.3946 13.0196 12.2071 13.2071C12.0196 13.3946 11.7652 13.5 11.5 13.5H7.5C7.23478 13.5 6.98043 13.6054 6.79289 13.7929C6.60536 13.9804 6.5 14.2348 6.5 14.5C6.5 14.7652 6.60536 15.0196 6.79289 15.2071C6.98043 15.3946 7.23478 15.5 7.5 15.5H9.5V16.5C9.5 16.7652 9.60536 17.0196 9.79289 17.2071C9.98043 17.3946 10.2348 17.5 10.5 17.5C10.7652 17.5 11.0196 17.3946 11.2071 17.2071C11.3946 17.0196 11.5 16.7652 11.5 16.5V15.5C12.2956 15.5 13.0587 15.1839 13.6213 14.6213C14.1839 14.0587 14.5 13.2956 14.5 12.5C14.5 11.7044 14.1839 10.9413 13.6213 10.3787C13.0587 9.81607 12.2956 9.5 11.5 9.5H9.5C9.23478 9.5 8.98043 9.39464 8.79289 9.20711C8.60536 9.01957 8.5 8.76522 8.5 8.5C8.5 8.23478 8.60536 7.98043 8.79289 7.79289C8.98043 7.60536 9.23478 7.5 9.5 7.5ZM17.5 0.5H3.5C2.70435 0.5 1.94129 0.816071 1.37868 1.37868C0.816071 1.94129 0.5 2.70435 0.5 3.5V17.5C0.5 18.2956 0.816071 19.0587 1.37868 19.6213C1.94129 20.1839 2.70435 20.5 3.5 20.5H17.5C18.2956 20.5 19.0587 20.1839 19.6213 19.6213C20.1839 19.0587 20.5 18.2956 20.5 17.5V3.5C20.5 2.70435 20.1839 1.94129 19.6213 1.37868C19.0587 0.816071 18.2956 0.5 17.5 0.5ZM18.5 17.5C18.5 17.7652 18.3946 18.0196 18.2071 18.2071C18.0196 18.3946 17.7652 18.5 17.5 18.5H3.5C3.23478 18.5 2.98043 18.3946 2.79289 18.2071C2.60536 18.0196 2.5 17.7652 2.5 17.5V3.5C2.5 3.23478 2.60536 2.98043 2.79289 2.79289C2.98043 2.60536 3.23478 2.5 3.5 2.5H17.5C17.7652 2.5 18.0196 2.60536 18.2071 2.79289C18.3946 2.98043 18.5 3.23478 18.5 3.5V17.5Z" fill="black"/>
</svg>
