<svg width="21" height="21" viewBox="0 0 21 21" fill="none" xmlns="http://www.w3.org/2000/svg">
<path d="M18.5435 11.16C18.3831 10.9775 18.2947 10.7429 18.2947 10.5C18.2947 10.2571 18.3831 10.0225 18.5435 9.84002L19.8235 8.40002C19.9645 8.24269 20.0521 8.04472 20.0736 7.83452C20.0952 7.62433 20.0496 7.4127 19.9435 7.23002L17.9435 3.77002C17.8384 3.58754 17.6783 3.44289 17.4862 3.3567C17.2941 3.27051 17.0796 3.24718 16.8735 3.29002L14.9935 3.67002C14.7542 3.71945 14.5052 3.67961 14.2933 3.55802C14.0815 3.43643 13.9214 3.2415 13.8435 3.01002L13.2335 1.18002C13.1664 0.981396 13.0386 0.808882 12.8681 0.686859C12.6976 0.564836 12.4931 0.499476 12.2835 0.500017H8.28345C8.06538 0.488635 7.84959 0.548944 7.66902 0.671731C7.48845 0.794519 7.35303 0.973036 7.28345 1.18002L6.72345 3.01002C6.64545 3.2415 6.48542 3.43643 6.27356 3.55802C6.0617 3.67961 5.81267 3.71945 5.57345 3.67002L3.64345 3.29002C3.448 3.2624 3.24875 3.29324 3.0708 3.37866C2.89285 3.46407 2.74415 3.60025 2.64345 3.77002L0.643451 7.23002C0.534611 7.41067 0.485673 7.6211 0.503634 7.83124C0.521594 8.04138 0.605533 8.24046 0.743451 8.40002L2.01345 9.84002C2.17377 10.0225 2.26219 10.2571 2.26219 10.5C2.26219 10.7429 2.17377 10.9775 2.01345 11.16L0.743451 12.6C0.605533 12.7596 0.521594 12.9587 0.503634 13.1688C0.485673 13.3789 0.534611 13.5894 0.643451 13.77L2.64345 17.23C2.74855 17.4125 2.90857 17.5571 3.1007 17.6433C3.29284 17.7295 3.50728 17.7529 3.71345 17.71L5.59345 17.33C5.83267 17.2806 6.0817 17.3204 6.29356 17.442C6.50542 17.5636 6.66545 17.7585 6.74345 17.99L7.35345 19.82C7.42303 20.027 7.55845 20.2055 7.73902 20.3283C7.91959 20.4511 8.13538 20.5114 8.35345 20.5H12.3535C12.5631 20.5006 12.7676 20.4352 12.9381 20.3132C13.1086 20.1912 13.2364 20.0186 13.3035 19.82L13.9135 17.99C13.9915 17.7585 14.1515 17.5636 14.3633 17.442C14.5752 17.3204 14.8242 17.2806 15.0635 17.33L16.9435 17.71C17.1496 17.7529 17.3641 17.7295 17.5562 17.6433C17.7483 17.5571 17.9084 17.4125 18.0135 17.23L20.0135 13.77C20.1196 13.5873 20.1652 13.3757 20.1436 13.1655C20.1221 12.9553 20.0345 12.7573 19.8935 12.6L18.5435 11.16ZM17.0535 12.5L17.8535 13.4L16.5735 15.62L15.3935 15.38C14.6732 15.2328 13.924 15.3551 13.288 15.7238C12.6521 16.0925 12.1736 16.6819 11.9435 17.38L11.5635 18.5H9.00345L8.64345 17.36C8.41331 16.6619 7.93483 16.0725 7.29886 15.7038C6.66288 15.3351 5.91367 15.2128 5.19345 15.36L4.01345 15.6L2.71345 13.39L3.51345 12.49C4.00541 11.94 4.27738 11.2279 4.27738 10.49C4.27738 9.75208 4.00541 9.04004 3.51345 8.49002L2.71345 7.59002L3.99345 5.39002L5.17345 5.63002C5.89367 5.77724 6.64288 5.6549 7.27886 5.28622C7.91483 4.91753 8.39331 4.32818 8.62345 3.63002L9.00345 2.50002H11.5635L11.9435 3.64002C12.1736 4.33818 12.6521 4.92753 13.288 5.29622C13.924 5.6649 14.6732 5.78724 15.3935 5.64002L16.5735 5.40002L17.8535 7.62002L17.0535 8.52002C16.567 9.06878 16.2984 9.7767 16.2984 10.51C16.2984 11.2433 16.567 11.9513 17.0535 12.5ZM10.2835 6.50002C9.49233 6.50002 8.71897 6.73461 8.06117 7.17414C7.40337 7.61366 6.89068 8.23838 6.58793 8.96928C6.28518 9.70019 6.20597 10.5045 6.36031 11.2804C6.51465 12.0563 6.89561 12.769 7.45502 13.3284C8.01443 13.8879 8.72717 14.2688 9.50309 14.4232C10.279 14.5775 11.0833 14.4983 11.8142 14.1955C12.5451 13.8928 13.1698 13.3801 13.6093 12.7223C14.0489 12.0645 14.2835 11.2911 14.2835 10.5C14.2835 9.43915 13.862 8.42174 13.1119 7.67159C12.3617 6.92144 11.3443 6.50002 10.2835 6.50002ZM10.2835 12.5C9.88789 12.5 9.50121 12.3827 9.17231 12.163C8.84341 11.9432 8.58707 11.6308 8.43569 11.2654C8.28432 10.8999 8.24471 10.4978 8.32188 10.1098C8.39905 9.72187 8.58953 9.36551 8.86924 9.0858C9.14894 8.8061 9.50531 8.61562 9.89327 8.53845C10.2812 8.46128 10.6834 8.50088 11.0488 8.65226C11.4143 8.80363 11.7266 9.05998 11.9464 9.38888C12.1662 9.71778 12.2835 10.1045 12.2835 10.5C12.2835 11.0304 12.0727 11.5392 11.6977 11.9142C11.3226 12.2893 10.8139 12.5 10.2835 12.5Z" fill="black"/>
</svg>
